<svg width="158" height="256" viewBox="0 0 158 256" fill="none" xmlns="http://www.w3.org/2000/svg">
<path d="M90.1201 204.35H71.5101V255.93H90.1201V204.35Z" fill="#413949"/>
<path d="M81.0301 204.35H71.5101V255.93H81.0301V204.35Z" fill="#413949"/>
<path d="M0.310059 125.38C0.310059 172.07 36.1701 206 79.4501 206C122.74 206 157.05 172.06 157.05 125.38C157.05 78.7001 121.2 0.560059 77.91 0.560059C34.62 0.560059 0.310059 78.7001 0.310059 125.38Z" fill="#A4D2CC"/>
<path d="M77.91 0.560059C78.96 0.560059 79.9901 0.640051 81.0201 0.740051V205.94C80.4801 205.97 79.9901 206.02 79.4601 206.02C36.1801 206.02 0.320071 172.08 0.320071 125.4C0.310071 78.7101 34.62 0.560059 77.91 0.560059Z" fill="#79ADA0"/>
</svg>
