<svg width="24" height="24" viewBox="0 0 24 24" fill="none" xmlns="http://www.w3.org/2000/svg">
<path fill-rule="evenodd" clip-rule="evenodd" d="M23.5396 2.63456C24.1254 2.04878 24.1254 1.09903 23.5396 0.513243C22.9538 -0.0725436 22.0041 -0.0725435 21.4183 0.513243L12.0264 9.90517L2.63444 0.513246C2.04866 -0.0725395 1.09891 -0.0725402 0.51312 0.513247C-0.0726657 1.09903 -0.0726658 2.04878 0.51312 2.63457L9.90504 12.0265L0.51312 21.4184C-0.0726657 22.0042 -0.0726677 22.9539 0.513119 23.5397C1.0989 24.1255 2.04865 24.1255 2.63444 23.5397L12.0264 14.1478L21.4183 23.5397C22.0041 24.1255 22.9538 24.1255 23.5396 23.5397C24.1254 22.954 24.1254 22.0042 23.5396 21.4184L14.1477 12.0265L23.5396 2.63456Z" fill="#61BDB5"/>
</svg>
