<svg width="473" height="244" viewBox="0 0 473 244" fill="none" xmlns="http://www.w3.org/2000/svg">
<path opacity="0.1" d="M472.68 167C472.68 124.69 438.38 90.39 396.07 90.39C391.13 90.39 385.45 91.49 379.34 93.34C381.18 87.22 382.29 81.54 382.29 76.61C382.29 34.3 347.99 0 305.68 0C274.97 0 248.56 18.11 236.34 44.19C224.12 18.11 197.71 0 167 0C124.69 0 90.39 34.3 90.39 76.61C90.39 81.55 91.49 87.23 93.34 93.34C87.22 91.5 81.54 90.39 76.61 90.39C34.3 90.39 0 124.69 0 167C0 208.78 33.47 242.69 75.05 243.53C75.05 243.55 75.04 243.58 75.04 243.61H228.3H244.37H397.63C397.63 243.59 397.62 243.56 397.62 243.53C439.21 242.69 472.68 208.78 472.68 167Z" fill="#F3F3F3"/>
</svg>
