<svg width="985" height="1181" viewBox="0 0 985 1181" fill="none" xmlns="http://www.w3.org/2000/svg">
<g clip-path="url(#clip0)">
<mask id="mask0" mask-type="alpha" maskUnits="userSpaceOnUse" x="-409" y="0" width="1394" height="1181">
<path d="M985 658.067C985 1010.72 762.058 1181 429.608 1181C97.1578 1181 -409 941.932 -409 589.275C-409 236.618 -128.729 0 203.721 0C536.171 0 985 305.41 985 658.067Z" fill="#F9FAFA"/>
</mask>
<g mask="url(#mask0)">
<path d="M985 658.067C985 1010.72 762.058 1181 429.608 1181C97.1578 1181 -409 941.932 -409 589.275C-409 236.618 -128.729 0 203.721 0C536.171 0 985 305.41 985 658.067Z" fill="#F9FAFA"/>
<path d="M482.333 354.06C571.263 516.684 440.798 786.028 272.688 877.958C104.578 969.889 -156.111 914.446 -245.041 751.822C-333.972 589.198 -487.15 310.3 -128.776 168.872C116.503 72.0752 393.402 191.436 482.333 354.06Z" fill="#E3F0EE"/>
<path d="M513.675 1106.84H472.585V1094.18H501.199V1073.48H507.437H513.675V1106.84Z" fill="#F3F3F3"/>
<path d="M462.094 1119.08H421.003V1073.49H433.48V1106.75H462.094V1119.08Z" fill="#F3F3F3"/>
<path d="M459.471 1073.46V1200.39H472.585V1073.46H466.028H459.471Z" fill="#F3F3F3"/>
<path opacity="0.2" d="M565.083 987.051C558.956 966.514 539.935 951.538 517.407 951.538C508.714 931.792 488.987 918 466.028 918V1000.46V1073.48H563.996C587.869 1073.48 607.222 1054.12 607.222 1030.25C607.222 1006.74 588.452 987.629 565.083 987.051Z" fill="#A4D2CC"/>
<path opacity="0.2" d="M414.648 951.538C392.12 951.538 373.099 966.515 366.973 987.051C343.603 987.629 324.833 1006.74 324.833 1030.25C324.833 1054.12 344.186 1073.48 368.06 1073.48H466.028V918C443.069 918 423.342 931.792 414.648 951.538Z" fill="#79ADA0"/>
<path d="M409.852 781.06C409.852 876.518 332.462 953.896 237.004 953.896C141.545 953.896 64.1667 876.507 64.1667 781.06C64.1667 685.601 141.556 608.223 237.004 608.223C332.474 608.211 409.852 685.601 409.852 781.06Z" fill="#A4D2CC"/>
<path d="M338.58 759.68C338.58 831.522 280.344 889.759 208.502 889.759C136.66 889.759 78.4233 831.522 78.4233 759.68C78.4233 687.838 136.66 629.602 208.502 629.602C280.344 629.602 338.58 687.838 338.58 759.68Z" fill="#79ADA0"/>
<path d="M296.632 885.375L245.404 919.79V841.772L261.841 829.308L299.337 843.747L302.476 835.597L270.014 823.098L295.856 803.5L290.594 796.537L245.404 830.803V742.878H233.225V785.682L205.523 763.96L200.135 770.843L233.225 796.777V884.063L206.573 870.034L202.669 831.225L193.971 832.104L197.304 865.16L169.111 850.333L165.036 858.061L233.225 893.936V956.807L187.773 932.893L183.71 940.632L233.225 966.68V1178.21H245.404V930.314L301.506 892.623L296.632 885.375Z" fill="#413949"/>
</g>
</g>
<defs>
<clipPath id="clip0">
<rect width="985" height="1181" fill="white"/>
</clipPath>
</defs>
</svg>
