<svg width="1394" height="1181" viewBox="0 0 1394 1181" fill="none" xmlns="http://www.w3.org/2000/svg">
    <mask id="mask0" mask-type="alpha" maskUnits="userSpaceOnUse" x="0" y="0" width="1394" height="1181">
        <path d="M1394 658.067C1394 1010.72 1171.06 1181 838.608 1181C506.158 1181 0 941.932 0 589.275C0 236.618 280.271 0 612.721 0C945.171 0 1394 305.41 1394 658.067Z" fill="#F9FAFA"/>
    </mask>
    <g mask="url(#mask0)">
        <path d="M1394 658.067C1394 1010.72 1171.06 1181 838.608 1181C506.158 1181 0 941.932 0 589.275C0 236.618 280.271 0 612.721 0C945.171 0 1394 305.41 1394 658.067Z" fill="#F9FAFA"/>
        <path d="M891.333 354.06C980.263 516.684 849.798 786.028 681.688 877.958C513.578 969.889 252.889 914.446 163.959 751.822C75.0282 589.198 -78.1495 310.3 280.224 168.872C525.503 72.0752 802.402 191.436 891.333 354.06Z" fill="#E3F0EE"/>
        <path d="M922.676 1106.84H881.585V1094.18H910.199V1073.48H916.437H922.676V1106.84Z" fill="#F3F3F3"/>
        <path d="M871.094 1119.08H830.003V1073.49H842.48V1106.75H871.094V1119.08Z" fill="#F3F3F3"/>
        <path d="M868.471 1073.46V1200.39H881.585V1073.46H875.028H868.471Z" fill="#F3F3F3"/>
        <path opacity="0.2" d="M974.083 987.051C967.956 966.514 948.935 951.538 926.408 951.538C917.714 931.792 897.987 918 875.028 918L875.028 1000.46L875.028 1073.48H972.996C996.869 1073.48 1016.22 1054.12 1016.22 1030.25C1016.22 1006.74 997.452 987.629 974.083 987.051Z" fill="#A4D2CC"/>
        <path opacity="0.2" d="M823.649 951.538C801.12 951.538 782.099 966.515 775.973 987.051C752.604 987.629 733.833 1006.74 733.833 1030.25C733.833 1054.12 753.187 1073.48 777.06 1073.48H875.028V918C852.069 918 832.342 931.792 823.649 951.538Z" fill="#79ADA0"/>
        <path d="M818.852 781.06C818.852 876.518 741.462 953.896 646.003 953.896C550.545 953.896 473.167 876.507 473.167 781.06C473.167 685.601 550.556 608.223 646.003 608.223C741.473 608.211 818.852 685.601 818.852 781.06Z" fill="#A4D2CC"/>
        <path d="M747.58 759.68C747.58 831.522 689.344 889.759 617.501 889.759C545.659 889.759 487.423 831.522 487.423 759.68C487.423 687.838 545.659 629.602 617.501 629.602C689.344 629.602 747.58 687.838 747.58 759.68Z" fill="#79ADA0"/>
        <path d="M705.632 885.375L654.404 919.79V841.772L670.841 829.308L708.337 843.747L711.476 835.597L679.014 823.098L704.856 803.5L699.594 796.537L654.404 830.803V742.878H642.225V785.682L614.523 763.96L609.135 770.843L642.225 796.777V884.063L615.573 870.034L611.669 831.225L602.971 832.104L606.304 865.16L578.111 850.333L574.036 858.061L642.225 893.936V956.807L596.773 932.893L592.71 940.632L642.225 966.68V1178.21H654.404V930.314L710.506 892.623L705.632 885.375Z" fill="#413949"/>
    </g>
</svg>
