<svg width="28" height="27" viewBox="0 0 28 27" fill="none" xmlns="http://www.w3.org/2000/svg">
<path d="M5.99958 12.6392C5.46677 12.1195 5.46677 11.2832 5.99958 10.7635C6.26598 10.5036 6.61147 10.3737 6.96113 10.3737C7.31078 10.3737 7.65627 10.5036 7.92267 10.7635L12.643 15.3677V1.32767C12.643 0.596842 13.2507 0 14.0041 0C14.7534 0 15.3653 0.592782 15.3653 1.32767V15.3677L20.0773 10.7635C20.6101 10.2438 21.4676 10.2438 22.0004 10.7635C22.5332 11.2832 22.5332 12.1195 22.0004 12.6392L14.9615 19.505C14.7076 19.7526 14.3621 19.8947 14 19.8947C13.6378 19.8947 13.2923 19.7567 13.0384 19.505L5.99958 12.6392Z" fill="white"/>
<path fill-rule="evenodd" clip-rule="evenodd" d="M0 25.579C0 24.7941 0.678702 24.1579 1.51592 24.1579H26.4841C27.3213 24.1579 28 24.7941 28 25.579C28 26.3638 27.3213 27 26.4841 27H1.51592C0.678702 27 0 26.3638 0 25.579Z" fill="white"/>
</svg>
