<svg width="183" height="179" viewBox="0 0 183 179" fill="none" xmlns="http://www.w3.org/2000/svg">
<path d="M40.9101 48.4518C56.2501 48.4518 84.4 67.3418 100.85 79.4218C107.5 84.3118 107.5 94.2618 100.85 99.1518C84.4 111.242 56.2501 130.132 40.9101 130.132C18.3501 130.132 0.0700725 111.842 0.0700725 89.2917C0.0600725 66.7317 18.3501 48.4518 40.9101 48.4518Z" fill="#FFB52E"/>
<path d="M141.927 48.4518C126.587 48.4518 98.4375 67.3418 81.9875 79.4218C75.3375 84.3118 75.3375 94.2618 81.9875 99.1518C98.4375 111.242 126.587 130.132 141.927 130.132C164.487 130.132 182.767 111.842 182.767 89.2917C182.777 66.7317 164.487 48.4518 141.927 48.4518Z" fill="#FFB52E"/>
<path d="M48.2601 137.482C48.2601 122.142 67.15 93.9917 79.23 77.5417C84.12 70.8917 94.0701 70.8917 98.9601 77.5417C111.05 93.9917 129.93 122.142 129.93 137.482C129.93 160.042 111.64 178.322 89.0901 178.322C66.5401 178.332 48.2601 160.042 48.2601 137.482Z" fill="#FFB52E"/>
<path d="M129.94 41.1017C129.94 56.4417 111.05 84.5917 98.97 101.042C94.08 107.692 84.1301 107.692 79.2401 101.042C67.1501 84.5917 48.2701 56.4417 48.2701 41.1017C48.2701 18.5417 66.56 0.261723 89.11 0.261723C111.66 0.251723 129.94 18.5417 129.94 41.1017Z" fill="#FFB52E"/>
<path d="M88.9601 109.742C100.381 109.742 109.64 100.483 109.64 89.0617C109.64 77.6405 100.381 68.3817 88.9601 68.3817C77.5388 68.3817 68.2801 77.6405 68.2801 89.0617C68.2801 100.483 77.5388 109.742 88.9601 109.742Z" fill="#413949"/>
</svg>
