<svg width="116" height="85" viewBox="0 0 116 85" fill="none" xmlns="http://www.w3.org/2000/svg">
<path d="M27.4628 39.9798C32.1501 22.2831 66.8027 7.61516 84.4994 12.3025C102.196 16.9898 109.464 42.7613 104.777 60.458C100.089 78.1546 77.7946 79.4225 60.098 74.7351C42.4013 70.0478 22.7755 57.6765 27.4628 39.9798Z" fill="#E3F0EE"/>
<path d="M9.25708 36.0274V16.5989H32.9785V42.3132C32.9785 43.456 30.6642 45.1703 28.9285 45.1703C27.1928 45.1703 24.8785 42.8846 24.8785 41.7417V33.1703C22.7731 37.8489 18.1695 36.3796 17.4502 33.0646C17.6608 37.1078 15.9766 40.0274 13.3071 40.0274C10.9928 40.0274 9.64279 37.3608 9.25708 36.0274Z" fill="#FFB52E"/>
<path d="M76.2535 18.6498H70.4908V13.0906C70.4908 12.2277 69.7825 11.5281 68.9088 11.5281H65.7442V8.56938C65.7442 6.06484 63.6813 4.02734 61.1454 4.02734H12.5097C9.97384 4.02734 7.91087 6.06484 7.91087 8.56938V11.5281H4.74634C3.87258 11.5281 3.16431 12.2277 3.16431 13.0906V26.7502C3.16431 27.6131 3.87258 28.3127 4.74634 28.3127H7.91087V35.9398C7.91087 38.9052 10.3534 41.3175 13.3557 41.3175C15.922 41.3175 18.0791 39.5548 18.6518 37.1911C19.3834 37.553 20.2086 37.7567 21.0813 37.7567C21.8952 37.7567 22.6679 37.5795 23.3619 37.2619V41.2844C23.3619 44.2495 25.8044 46.6619 28.8068 46.6619C31.809 46.6619 34.2515 44.2495 34.2515 41.2844V33.782H61.1454C63.6813 33.782 65.7442 31.7445 65.7442 29.24V28.3127H68.9088C69.7825 28.3127 70.4908 27.6131 70.4908 26.7502V21.7748H74.6715V35.9356C74.6715 38.2998 72.7238 40.2234 70.3301 40.2234H36.8894C36.0157 40.2234 35.3074 40.923 35.3074 41.7859V47.9422H29.2681C28.3944 47.9422 27.6861 48.6417 27.6861 49.5047V74.9377C27.6861 79.9497 31.8147 84.0273 36.8894 84.0273C41.9641 84.0273 46.0927 79.9497 46.0927 74.9377V49.5047C46.0927 48.6417 45.3844 47.9422 44.5107 47.9422H38.4714V43.3484H70.3301C74.4686 43.3484 77.8355 40.0231 77.8355 35.9356V20.2123C77.8355 19.3494 77.1273 18.6498 76.2535 18.6498ZM7.91087 25.1877H6.32837V14.6531H7.91087V25.1877ZM28.8068 43.5372C27.5491 43.5372 26.526 42.5267 26.526 41.2845V24.9131C26.526 24.0502 25.8177 23.3506 24.944 23.3506C24.0702 23.3506 23.3619 24.0502 23.3619 24.9131V32.3792C23.3619 33.6213 22.3388 34.6319 21.0813 34.6319C19.8237 34.6319 18.8005 33.6214 18.8005 32.3792C18.8005 31.5163 18.0922 30.8167 17.2184 30.8167C16.3447 30.8167 15.6364 31.5163 15.6364 32.3792V35.9398C15.6364 37.182 14.6133 38.1925 13.3556 38.1925C12.098 38.1925 11.0748 37.182 11.0748 35.9398V17.7777H31.0875V41.2845C31.0875 42.5266 30.0645 43.5372 28.8068 43.5372ZM62.5802 29.24C62.5802 30.0214 61.9366 30.657 61.1454 30.657H34.2517V17.7777H54.807C55.6807 17.7777 56.389 17.0781 56.389 16.2152C56.389 15.3522 55.6807 14.6527 54.807 14.6527H11.0749V8.56938C11.0749 7.78813 11.7185 7.15234 12.5097 7.15234H61.1454C61.9364 7.15234 62.5802 7.78797 62.5802 8.56938V29.24ZM67.3267 25.1877H65.7442V14.6531H67.3267V25.1877ZM30.8502 51.0672H35.3074V54.9258H30.8502V51.0672ZM42.9288 74.9377C42.9288 78.2266 40.2194 80.9023 36.8894 80.9023C33.5594 80.9023 30.8503 78.2267 30.8503 74.9377V58.0508H35.3075V72.694C35.3075 73.557 36.0158 74.2565 36.8896 74.2565C37.7633 74.2565 38.4716 73.557 38.4716 72.694V58.0508H42.9288V74.9377ZM42.9286 51.0672V54.9258H38.4714V51.0672H42.9286Z" fill="#413949"/>
</svg>
