<svg width="125" height="115" viewBox="0 0 125 115" fill="none" xmlns="http://www.w3.org/2000/svg">
<path d="M82.0833 22.9105C95.2239 45.1585 77.0641 78.0944 60.5251 87.8631C43.9861 97.6318 24.7655 82.4191 11.6248 60.1711C-1.51585 37.9231 20.9967 28.2224 37.5357 18.4537C54.0747 8.68504 68.9426 0.662495 82.0833 22.9105Z" fill="#E3F0EE"/>
<path d="M45.3338 37.6926H49.9491V42.8849H44.7568L45.3338 37.6926Z" fill="#FFB52E"/>
<path d="M121.488 103.462H38.4106V110.385H121.488V103.462Z" fill="#FFB52E"/>
<path d="M93.7954 37.6926H98.4108V42.8849H93.2185L93.7954 37.6926Z" fill="#FFB52E"/>
<path d="M66.103 37.6926H61.4876V42.8849H66.6799L66.103 37.6926Z" fill="#FFB52E"/>
<path d="M114.565 37.6926H109.949V42.8849H115.142L114.565 37.6926Z" fill="#FFB52E"/>
<path d="M36.7071 60.826C36.8885 60.826 37.0733 60.7975 37.2552 60.7381L39.0065 60.1638V80.0604C39.0065 80.0646 39.007 80.0689 39.0072 80.0731C39.0074 80.0905 39.0086 80.1079 39.0093 80.1253C39.0099 80.1378 39.0088 80.1503 39.0095 80.1627L39.5407 89.2762C39.5713 92.0234 41.8155 94.249 44.5697 94.249H66.3379C69.0924 94.249 71.3367 92.0234 71.3669 89.276L71.8981 80.1627C71.899 80.1473 71.898 80.132 71.8985 80.1167C71.8988 80.1044 71.9001 80.0921 71.9002 80.0798C71.9002 80.0733 71.9013 80.0669 71.9013 80.0604V60.164L73.6522 60.7381C73.8342 60.7977 74.0187 60.826 74.2003 60.826C74.9395 60.826 75.6275 60.3559 75.8702 59.6154C76.1727 58.6929 75.67 57.6999 74.7475 57.3974L71.6972 56.3974L68.8614 39.691C68.4114 36.9145 66.0429 34.8994 63.2294 34.8994H63.2095H47.5369C44.7236 34.8994 42.3551 36.9145 41.9049 39.6913L39.2004 56.4005L36.1596 57.3976C35.2371 57.7001 34.7345 58.6931 35.0369 59.6155C35.28 60.3561 35.9678 60.826 36.7071 60.826ZM43.0656 54.5236L44.5378 45.4275H48.5058C50.4274 45.4275 52.0418 43.989 52.261 42.0826L52.6856 38.4146H58.0807L58.5052 42.081C58.7245 43.9888 60.3389 45.4274 62.2605 45.4274H66.2551L67.8035 54.4847C65.5307 53.5332 63.1095 52.9479 60.6789 52.574C58.8622 52.2947 56.9966 52.0818 55.155 52.1495C51.0778 52.3054 46.854 52.9618 43.0656 54.5236ZM56.159 55.6602C59.753 55.8017 63.4989 56.4123 66.8025 57.8785L62.4493 60.8283H48.458L44.1213 57.889C46.8299 56.715 49.8052 56.1632 52.7261 55.8562C53.8584 55.7373 55.0181 55.6152 56.159 55.6602ZM61.2315 64.344V71.411H49.6756V64.344H61.2315ZM64.7471 72.4214V63.5236L68.385 61.081L68.3847 75.9261L64.7471 72.4214ZM46.16 72.4214L42.5226 75.9259V61.0529L46.16 63.518V72.4214ZM48.6269 74.9266H62.2804L65.7845 78.3028H45.1227L48.6269 74.9266ZM67.8517 89.2196C67.8517 90.0544 67.1727 90.7334 66.3379 90.7334H44.5697C43.735 90.7334 43.0559 90.0544 43.0559 89.2196C43.0559 89.1855 43.0549 89.1514 43.0529 89.1173L42.6276 81.8187H68.2803L67.8549 89.1173C67.8528 89.1514 67.8517 89.1855 67.8517 89.2196ZM63.2097 38.4148C64.2795 38.4148 65.1871 39.1802 65.3674 40.2347L65.6541 41.9119H62.2605C62.1259 41.9119 62.013 41.8121 61.9976 41.6782L61.6196 38.4146H63.2097V38.4148ZM47.5369 38.4148H49.1467L48.7686 41.6797C48.7535 41.8121 48.6404 41.9119 48.5058 41.9119H45.1069L45.3753 40.2529C45.5481 39.1881 46.4571 38.4148 47.5369 38.4148Z" fill="#413949"/>
<path d="M85.1508 57.3972C84.2283 57.6997 83.7258 58.6926 84.0281 59.6151C84.271 60.3557 84.9589 60.8257 85.698 60.8257C85.8794 60.8257 86.0641 60.7972 86.2461 60.7378L87.9974 60.1636V80.0602C87.9974 80.0644 87.9979 80.0686 87.9981 80.0728C87.9982 80.0902 87.9995 80.1077 88.0002 80.1251C88.0007 80.1375 87.9997 80.15 88.0004 80.1625L88.5316 89.2759C88.5621 92.0232 90.8063 94.2487 93.5606 94.2487H115.329C118.083 94.2487 120.328 92.0232 120.358 89.2758L120.889 80.1625C120.89 80.1463 120.889 80.1303 120.889 80.1142C120.89 80.1096 120.89 80.105 120.89 80.1004C120.89 80.0869 120.892 80.0737 120.892 80.0602V60.1637L122.643 60.7378C122.825 60.7974 123.01 60.8257 123.191 60.8257C123.93 60.8257 124.618 60.3557 124.861 59.6151C125.164 58.6926 124.661 57.6997 123.738 57.3972L120.688 56.397L118.214 41.9259L117.852 39.6906C117.402 36.9143 115.034 34.8992 112.22 34.8992H112.201H108.638H100.111H96.5279C93.7148 34.8992 91.3461 36.9143 90.896 39.6911L88.1914 56.4003L85.1508 57.3972ZM92.0566 54.5233L93.529 45.4273H97.497C99.4184 45.4273 101.033 43.9887 101.252 42.0824L101.677 38.4146H107.072L107.496 42.0812C107.716 43.9887 109.33 45.4273 111.252 45.4273H115.246L116.795 54.4847C113.676 53.1797 110.278 52.5307 106.92 52.247C106.217 52.1876 105.51 52.1394 104.804 52.1327C100.581 52.0626 95.96 52.9141 92.0566 54.5233ZM107.724 55.8651C110.474 56.1795 113.253 56.7522 115.793 57.8784L111.44 60.8282H97.449L93.1122 57.8888C96.2506 56.5279 99.7524 55.9728 103.144 55.7299C104.689 55.6191 106.184 55.6891 107.724 55.8651ZM110.223 64.3438V71.4108H98.6666V64.3438H110.223ZM113.738 72.4212V63.5232L117.376 61.0806V75.9257L113.738 72.4212ZM95.1511 72.4212L91.5135 75.9259V61.0528L95.1511 63.518V72.4212ZM97.6179 74.9264H111.271L114.776 78.3026H94.1138L97.6179 74.9264ZM116.843 89.2193C116.843 90.0541 116.164 90.7332 115.329 90.7332H93.5608C92.726 90.7332 92.047 90.0541 92.047 89.2193C92.047 89.1852 92.0459 89.1511 92.044 89.117L91.6186 81.8185H117.271L116.846 89.117C116.844 89.1511 116.843 89.1852 116.843 89.2193ZM112.201 38.4146C113.27 38.4146 114.178 39.1799 114.358 40.2344L114.645 41.9117H111.252C111.117 41.9117 111.004 41.8119 110.989 41.6781L110.611 38.4146H112.201ZM96.5279 38.4146H98.1377L97.7598 41.6793C97.7447 41.8119 97.6317 41.9117 97.497 41.9117H94.098L94.3664 40.2529C94.539 39.1878 95.4481 38.4146 96.5279 38.4146Z" fill="#413949"/>
<path d="M123.191 104.894C124.162 104.894 124.949 104.107 124.949 103.136C124.949 102.165 124.162 101.378 123.191 101.378H81.707V88.4077C81.707 87.4369 80.92 86.6499 79.9492 86.6499C78.9783 86.6499 78.1914 87.4369 78.1914 88.4077V101.378H36.7075C35.7367 101.378 34.9497 102.165 34.9497 103.136C34.9497 104.107 35.7367 104.894 36.7075 104.894H52.2464V108.819H36.7075C35.7367 108.819 34.9497 109.606 34.9497 110.577C34.9497 111.547 35.7367 112.334 36.7075 112.334H123.191C124.162 112.334 124.949 111.547 124.949 110.577C124.949 109.606 124.162 108.819 123.191 108.819H107.652V104.894H123.191ZM55.762 104.894H69.543V108.819H55.762V104.894ZM73.0586 104.894H86.8397V108.819H73.0586V104.894ZM90.3553 104.894H104.136V108.819H90.3553V104.894Z" fill="#413949"/>
<path d="M76.3093 33.1911H78.1915V78.7852C78.1915 79.756 78.9785 80.543 79.9493 80.543C80.9202 80.543 81.7071 79.756 81.7071 78.7852V33.1911H83.5073C84.4781 33.1911 85.2651 32.4042 85.2651 31.4333C85.2651 30.4625 84.4781 29.6755 83.5073 29.6755H76.3093C75.3385 29.6755 74.5515 30.4625 74.5515 31.4333C74.5515 32.4042 75.3385 33.1911 76.3093 33.1911Z" fill="#413949"/>
</svg>
