<svg width="589" height="830" viewBox="0 0 589 830" fill="none" xmlns="http://www.w3.org/2000/svg">
<g clip-path="url(#clip0)">
<mask id="mask0" mask-type="alpha" maskUnits="userSpaceOnUse" x="0" y="0" width="911" height="830">
<path d="M911 446.892C911 671.631 599.593 830 355.18 830C110.767 830 0 717.652 0 492.913C0 268.174 170.477 0 414.889 0C659.302 0 911 222.153 911 446.892Z" fill="white"/>
</mask>
<g mask="url(#mask0)">
<path d="M911 446.892C911 671.631 599.593 830 355.18 830C110.767 830 0 717.652 0 492.913C0 268.174 170.477 0 414.889 0C659.302 0 911 222.153 911 446.892Z" fill="#61BDB5"/>
<g opacity="0.1">
<path opacity="0.1" d="M1096 378.5C1096 563.798 945.781 714 760.489 714C575.197 714 425 563.776 425 378.5C425 193.202 575.219 43 760.489 43C945.803 42.9778 1096 193.202 1096 378.5Z" fill="#A4D2CC"/>
<path opacity="0.1" d="M311.257 251.118C311.257 417.428 176.427 552.237 10.1183 552.237C-156.191 552.237 -291 417.408 -291 251.118C-291 84.8093 -156.171 -50 10.1183 -50C176.447 -50.0199 311.257 84.8093 311.257 251.118Z" fill="#A4D2CC"/>
</g>
<g opacity="0.1">
<g clip-path="url(#clip1)">
<path d="M1096 378.5C1096 563.798 945.781 714 760.489 714C575.197 714 425 563.776 425 378.5C425 193.202 575.219 43 760.489 43C945.803 42.9778 1096 193.202 1096 378.5Z" fill="#A4D2CC"/>
<path d="M311.257 251.118C311.257 417.428 176.427 552.237 10.1183 552.237C-156.191 552.237 -291 417.408 -291 251.118C-291 84.8093 -156.171 -50 10.1183 -50C176.447 -50.0199 311.257 84.8093 311.257 251.118Z" fill="#A4D2CC"/>
</g>
</g>
<path d="M635.763 479.867C635.763 564.296 567.315 632.733 482.886 632.733C398.457 632.733 330.02 564.286 330.02 479.867C330.02 395.438 398.467 327 482.886 327C567.325 326.99 635.763 395.438 635.763 479.867Z" fill="#A4D2CC"/>
<path d="M572.726 460.958C572.726 524.499 521.219 576.006 457.678 576.006C394.136 576.006 342.629 524.499 342.629 460.958C342.629 397.416 394.136 345.909 457.678 345.909C521.219 345.909 572.726 397.416 572.726 460.958Z" fill="#79ADA0"/>
<path d="M535.625 572.13L490.316 602.568V533.565L504.854 522.541L538.018 535.311L540.794 528.103L512.082 517.049L534.939 499.715L530.285 493.556L490.316 523.863V446.097H479.544V483.955L455.043 464.744L450.278 470.831L479.544 493.768V570.969L455.971 558.561L452.519 524.237L444.826 525.014L447.774 554.251L422.838 541.137L419.234 547.971L479.544 579.701V635.308L439.344 614.158L435.75 621.002L479.544 644.04V831.128H490.316V611.876L539.936 578.541L535.625 572.13Z" fill="#413949"/>
<path d="M298.206 775.454H281.075V899.039H298.206V775.454Z" fill="#413949"/>
<path d="M289.64 775.454H281.075V899.039H289.64V775.454Z" fill="#413949"/>
<path d="M215 702.245C215 745.575 248.28 777.064 288.446 777.064C328.621 777.064 360.462 745.566 360.462 702.245C360.462 658.923 327.192 586.406 287.016 586.406C246.841 586.406 215 658.923 215 702.245Z" fill="#A4D2CC"/>
<path d="M287.016 586.406C287.991 586.406 288.947 586.48 289.902 586.573V777.008C289.401 777.036 288.947 777.082 288.455 777.082C248.289 777.082 215.009 745.584 215.009 702.263C215 658.933 246.841 586.406 287.016 586.406Z" fill="#79ADA0"/>
</g>
</g>
<defs>
<clipPath id="clip0">
<rect width="589" height="830" fill="white"/>
</clipPath>
<clipPath id="clip1">
<rect width="589" height="714" fill="white"/>
</clipPath>
</defs>
</svg>
