<svg width="117" height="109" viewBox="0 0 117 109" fill="none" xmlns="http://www.w3.org/2000/svg">
<g clip-path="url(#clip0)">
<path d="M98 58.5469C98 81.1224 73.3882 109 50.8045 109C28.2208 109 0 90.6992 0 68.1237C0 45.5482 22.2021 23.0002 44.7858 23.0002C67.3695 23.0002 98 35.9714 98 58.5469Z" fill="#E3F0EE"/>
<path d="M99.8183 72.3741C100.495 72.9808 101.592 72.9808 102.269 72.3741L103.008 71.7117C103.685 71.105 103.685 70.1211 103.008 69.5142C102.67 69.2109 102.226 69.0591 101.783 69.0591C101.339 69.0591 100.896 69.2109 100.557 69.5142L99.8183 70.1766C99.1415 70.7834 99.1415 71.7672 99.8183 72.3741Z" fill="#413949"/>
<path d="M63.1974 2.29443H40.3027V37.8532H63.1974V2.29443Z" fill="#FFB52E"/>
<path d="M93.937 70.9475C94.614 71.5543 95.711 71.5543 96.388 70.9475L101.559 66.3112C102.236 65.7044 102.236 64.7206 101.559 64.1137C101.221 63.8104 100.777 63.6586 100.334 63.6586C99.8901 63.6586 99.4466 63.8104 99.1081 64.1137L93.937 68.7498C93.2602 69.3567 93.2602 70.3406 93.937 70.9475Z" fill="#413949"/>
<path d="M77.2334 72.3741C77.9103 72.9808 79.0074 72.9808 79.6845 72.3741L80.4233 71.7117C81.1001 71.105 81.1001 70.1211 80.4233 69.5142C80.0847 69.2109 79.6413 69.0591 79.1977 69.0591C78.754 69.0591 78.3107 69.2109 77.9722 69.5142L77.2334 70.1766C76.5566 70.7834 76.5566 71.7672 77.2334 72.3741Z" fill="#413949"/>
<path d="M71.3519 70.9477C72.0285 71.5541 73.1255 71.5544 73.803 70.9477L78.9742 66.3116C79.6509 65.7047 79.6509 64.7208 78.9741 64.114C78.6356 63.8107 78.1921 63.659 77.7486 63.659C77.3051 63.659 76.8616 63.8107 76.5231 64.114L71.3519 68.7502C70.6751 69.357 70.6751 70.3408 71.3519 70.9477Z" fill="#413949"/>
<path d="M39.7053 78.0003L107.295 78.0002C108.252 78.0002 109.028 77.3045 109.028 76.4465V1.55399C109.028 0.695992 108.252 0.000236427 107.295 0.000236511L39.7051 0.00024242C38.7481 0.000242503 37.9721 0.695998 37.9721 1.554V76.4465C37.9721 77.3045 38.7483 78.0003 39.7053 78.0003ZM86.4981 3.10775H105.562V37.4465H86.4981V3.10775ZM86.4981 40.554H105.562V74.8927H86.4981V40.554ZM63.9681 3.10775H83.032V37.4465H63.9683V3.10775H63.9681ZM63.9681 40.554H83.032V74.8927H63.9683V40.554H63.9681ZM41.4383 3.10776L60.502 3.10775V37.4465H41.4383V3.10776ZM41.4383 40.554H60.502V74.8927H41.4383V40.554Z" fill="#413949"/>
<path d="M54.7033 72.3741C55.3803 72.9808 56.4773 72.9808 57.1545 72.3741L57.8933 71.7117C58.5701 71.105 58.5701 70.1211 57.8933 69.5142C57.5546 69.2109 57.1113 69.0591 56.6676 69.0591C56.224 69.0591 55.7806 69.2109 55.4422 69.5142L54.7033 70.1766C54.0267 70.7834 54.0267 71.7672 54.7033 72.3741Z" fill="#413949"/>
<path d="M48.8219 70.9477C49.4987 71.5541 50.5957 71.5544 51.273 70.9477L56.4442 66.3116C57.1208 65.7047 57.1208 64.7208 56.444 64.114C56.1056 63.8107 55.6621 63.659 55.2186 63.659C54.7751 63.659 54.3316 63.8107 53.9931 64.114L48.8219 68.7502C48.1452 69.357 48.1452 70.3408 48.8219 70.9477Z" fill="#413949"/>
<path d="M99.8183 34.9278C100.495 35.5345 101.592 35.5345 102.269 34.9278L103.008 34.2654C103.685 33.6587 103.685 32.6748 103.008 32.0679C102.67 31.7646 102.226 31.6128 101.783 31.6128C101.339 31.6128 100.896 31.7646 100.557 32.0679L99.8183 32.7303C99.1415 33.3371 99.1415 34.3209 99.8183 34.9278Z" fill="#413949"/>
<path d="M93.937 33.5012C94.614 34.108 95.711 34.108 96.388 33.5012L101.559 28.8651C102.236 28.2583 102.236 27.2745 101.559 26.6675C101.221 26.3642 100.777 26.2125 100.334 26.2125C99.8901 26.2125 99.4466 26.3642 99.1081 26.6675L93.937 31.3037C93.2602 31.9104 93.2602 32.8943 93.937 33.5012Z" fill="#413949"/>
<path d="M77.2334 34.9278C77.9103 35.5345 79.0074 35.5345 79.6845 34.9278L80.4233 34.2654C81.1001 33.6587 81.1001 32.6748 80.4233 32.0679C80.0848 31.7646 79.6413 31.6128 79.1978 31.6128C78.7543 31.6128 78.3107 31.7646 77.9722 32.0679L77.2334 32.7303C76.5566 33.3371 76.5566 34.3209 77.2334 34.9278Z" fill="#413949"/>
<path d="M71.3519 33.5013C72.0285 34.1078 73.1256 34.1081 73.8029 33.5013L78.9741 28.8652C79.6509 28.2584 79.6509 27.2746 78.9741 26.6677C78.6356 26.3643 78.1921 26.2126 77.7486 26.2126C77.3051 26.2126 76.8616 26.3643 76.5231 26.6677L71.3519 31.3038C70.6751 31.9106 70.6751 32.8944 71.3519 33.5013Z" fill="#413949"/>
<path d="M54.7033 34.9278C55.3803 35.5345 56.4773 35.5345 57.1545 34.9278L57.8933 34.2654C58.5701 33.6587 58.5701 32.6748 57.8933 32.0679C57.5546 31.7646 57.1113 31.6128 56.6676 31.6128C56.224 31.6128 55.7806 31.7646 55.4421 32.0679L54.7033 32.7303C54.0267 33.3371 54.0267 34.3209 54.7033 34.9278Z" fill="#413949"/>
<path d="M48.8219 33.5013C49.4989 34.108 50.5959 34.108 51.273 33.5013L51.5024 33.2957C52.1792 32.6889 52.1792 31.7051 51.5024 31.0981C51.1638 30.7947 50.7204 30.6431 50.2768 30.6431C49.8331 30.6431 49.3898 30.7948 49.0513 31.0981L48.8219 31.3038C48.1453 31.9106 48.1453 32.8944 48.8219 33.5013Z" fill="#413949"/>
<path d="M52.3443 30.3433C53.0207 30.9499 54.1183 30.9501 54.7952 30.3434L56.4442 28.8653C57.1211 28.2585 57.1211 27.2748 56.4443 26.6679C56.106 26.3644 55.6623 26.2127 55.2188 26.2127C54.7754 26.2127 54.3319 26.3644 53.9935 26.6677L52.3444 28.1459C51.6675 28.7527 51.6675 29.7364 52.3443 30.3433Z" fill="#413949"/>
</g>
<defs>
<clipPath id="clip0">
<path d="M0 0H117V109H0V0Z" fill="white"/>
</clipPath>
</defs>
</svg>
