<svg width="125" height="112" viewBox="0 0 125 112" fill="none" xmlns="http://www.w3.org/2000/svg">
<path d="M112.081 36.9998C118.94 62.5607 103.734 88.8549 78.1173 95.7295C52.5004 102.604 14.9284 90.4736 8.06884 64.9127C1.20926 39.3518 13.6641 31.1788 39.281 24.3042C64.898 17.4295 105.221 11.439 112.081 36.9998Z" fill="#E3F0EE"/>
<path d="M103.213 12.645H56.0012V75.7332H103.213V12.645Z" fill="#FFB52E"/>
<path fill-rule="evenodd" clip-rule="evenodd" d="M115.261 33.5766H109.191C108.223 33.5766 107.439 34.3479 107.439 35.2991V53.1923C107.439 54.1435 108.223 54.9149 109.191 54.9149H115.261C116.229 54.9149 117.014 54.1435 117.014 53.1923V35.2991C117.014 34.3481 116.229 33.5766 115.261 33.5766ZM113.508 51.4698H110.944V45.9683H113.508V51.4698ZM113.508 42.5232H110.944V37.0217H113.508V42.5232Z" fill="#413949"/>
<path d="M90.0206 5.24636H71.8121C70.8439 5.24636 70.0592 6.0177 70.0592 6.96889C70.0592 7.92008 70.8439 8.69142 71.8121 8.69142H90.0206C90.9887 8.69142 91.7735 7.92008 91.7735 6.96889C91.7735 6.0177 90.9887 5.24636 90.0206 5.24636Z" fill="#413949"/>
<path fill-rule="evenodd" clip-rule="evenodd" d="M121.036 0.0273438H47.3903C46.4222 0.0273438 45.6375 0.798682 45.6375 1.74987V76.3048C45.6375 77.256 46.4222 78.0273 47.3903 78.0273H121.036C122.004 78.0273 122.789 77.256 122.789 76.3048V1.74987C122.789 0.798684 122.004 0.0273438 121.036 0.0273438ZM78.6537 74.5823H57.8816V19.8745H62.1981C63.1663 19.8745 63.951 19.1032 63.951 18.152C63.951 17.2008 63.1663 16.4295 62.1981 16.4295H57.8816V13.9101H78.6537V74.5823ZM119.283 74.5823H104.92V68.8493C104.92 67.8981 104.135 67.1268 103.167 67.1268C102.199 67.1268 101.414 67.8981 101.414 68.8493V74.5823H82.1597V13.9101H101.414V59.9027C101.414 60.8539 102.199 61.6252 103.167 61.6252C104.135 61.6252 104.92 60.8539 104.92 59.9027V12.1875C104.92 11.2364 104.135 10.465 103.167 10.465H56.1287C55.1606 10.465 54.3759 11.2364 54.3759 12.1875V74.5822H49.1434V3.4724H119.283V74.5823Z" fill="#413949"/>
</svg>
