<svg width="134" height="17" viewBox="0 0 134 17" fill="none" xmlns="http://www.w3.org/2000/svg">
<path d="M8.77936 7.53511C7.90142 6.72405 6.89386 6.4537 5.70953 6.4537C4.25416 6.4537 3.44693 6.89662 3.44693 7.65591C3.44693 8.44396 4.17756 8.88112 5.76256 8.97891C8.10175 9.12847 11.0655 9.64041 11.0655 12.8559C11.0655 14.99 9.28019 16.8307 5.7331 16.8307C3.771 16.8307 1.8089 16.5143 0 14.6736L1.51429 12.5395C2.39223 13.4944 4.40735 14.2077 5.78613 14.2307C6.94099 14.2537 8.02516 13.6669 8.02516 12.7811C8.02516 11.947 7.32399 11.6019 5.56222 11.5041C3.22303 11.3316 0.436022 10.4975 0.436022 7.74794C0.436022 4.95237 3.39979 3.96875 5.66828 3.96875C7.60681 3.96875 9.06218 4.33689 10.494 5.56211L8.77936 7.53511Z" fill="white"/>
<path d="M24.9593 10.3824C24.9593 13.8682 22.5199 16.6926 18.4955 16.6926C14.4712 16.6926 12.0613 13.8682 12.0613 10.3824C12.0613 6.9196 14.5242 4.07227 18.472 4.07227C22.4197 4.07227 24.9593 6.9196 24.9593 10.3824ZM15.1311 10.3824C15.1311 12.2231 16.2624 13.943 18.5014 13.943C20.7405 13.943 21.8718 12.2231 21.8718 10.3824C21.8718 8.56473 20.5637 6.7988 18.5014 6.7988C16.286 6.7988 15.1311 8.56473 15.1311 10.3824Z" fill="white"/>
<path d="M29.3606 4.35939V10.6523C29.3606 12.493 30.3917 13.8908 32.3538 13.8908C34.2393 13.8908 35.5238 12.3434 35.5238 10.5027V4.30762L38.5642 4.31912V16.4447H35.8243L35.624 14.7996C34.3395 16.0248 33.161 16.6173 31.4228 16.6173C28.4591 16.6173 26.2966 14.4315 26.2966 10.6753V4.34788L29.3606 4.35939Z" fill="white"/>
<path d="M45.38 0.820312L45.4287 4.34295H48.8461V6.91993H45.3992V12.1487C45.3992 13.3049 46.0532 13.8686 47.0078 13.8686C47.0078 13.8686 47.7914 13.8743 48.5633 13.5925L49.129 15.9854C49.129 15.9854 47.7384 16.5376 46.8074 16.5664C44.1147 16.6641 42.3588 15.1686 42.3588 12.1487V6.91993H40.0432V4.34295H42.3588V1.08721L45.38 0.820312Z" fill="white"/>
<path d="M54.0196 0V5.96502C55.1273 4.56724 56.4825 4.14733 57.8907 4.14733C61.4084 4.14733 62.9698 6.47697 62.9698 10.0376V16.4168H59.9V10.0606C59.9 7.85174 58.7156 6.91989 57.0835 6.91989C55.2746 6.91989 54.0137 8.41546 54.0137 10.2332V16.4168H50.9438V0.316371L54.0196 0Z" fill="white"/>
<path d="M73.3164 16.497V10.0143C73.3164 8.4209 72.4621 6.97135 70.7769 6.97135C69.1153 6.97135 68.1372 8.4209 68.1372 10.0143V16.4912H65.0674V4.3426L67.9074 4.37136L68.1313 5.84392C68.7853 4.6187 70.2171 4.17578 71.4015 4.17578C72.8863 4.17578 74.3652 4.76251 75.0723 6.43639C76.18 4.71649 77.6118 4.22755 79.2204 4.22755C82.738 4.22755 84.4762 6.33861 84.4762 9.96824V16.497H81.4064V9.96824C81.4064 8.37489 80.7288 7.02312 79.0672 7.02312C77.4056 7.02312 76.2036 8.4209 76.2036 10.02L76.3745 16.497H73.3164Z" fill="white"/>
<path d="M88.96 11.4299C89.1604 12.9255 90.492 14.0069 92.6544 14.0069C93.7857 14.0069 95.2705 13.587 95.9717 12.8794L97.9338 14.7719C96.6257 16.0949 94.4869 16.7334 92.6014 16.7334C88.3296 16.7334 85.79 14.1564 85.79 10.2795C85.79 6.59805 88.3531 3.94629 92.3775 3.94629C96.5256 3.94629 99.1181 6.44849 98.635 11.4299H88.96ZM95.6948 8.9507C95.4944 7.38035 94.2394 6.5923 92.4777 6.5923C90.8161 6.5923 89.4609 7.38035 89.0072 8.9507H95.6948Z" fill="white"/>
<path d="M113.489 0V16.4225H110.626L110.425 14.7544C109.471 16.2039 107.939 16.6929 106.431 16.6929C102.783 16.6929 100.043 14.3345 100.043 10.3597C100.043 6.18936 102.736 4.02654 106.354 4.02654C107.662 4.02654 109.695 4.7168 110.425 5.96502V0.322123L113.489 0ZM103.101 10.3597C103.101 12.4708 104.663 13.9203 106.619 13.9203C108.558 13.9203 110.213 12.5455 110.213 10.3597C110.213 8.24865 108.552 6.82785 106.619 6.82785C104.663 6.8221 103.101 8.17387 103.101 10.3597Z" fill="white"/>
<path d="M119.099 1.74918C119.099 4.07882 115.481 4.07882 115.481 1.74918C115.475 -0.580456 119.099 -0.580456 119.099 1.74918ZM115.752 4.25138V16.4115H118.822V4.26289L115.752 4.25138Z" fill="white"/>
<path d="M131.042 4.30265L134 4.31991V16.4225H131.107L130.954 14.6566C130.247 16.0774 128.314 16.7677 126.929 16.7907C123.259 16.8137 120.542 14.6048 120.542 10.3597C120.542 6.18937 123.382 4.00354 127.006 4.02655C128.668 4.02655 130.247 4.78584 130.954 5.98805L131.042 4.30265ZM123.618 10.3597C123.618 12.6663 125.25 14.0411 127.289 14.0411C132.114 14.0411 132.114 6.70132 127.289 6.70132C125.25 6.70132 123.618 8.05309 123.618 10.3597Z" fill="white"/>
</svg>
