<svg width="207" height="115" viewBox="0 0 207 115" fill="none" xmlns="http://www.w3.org/2000/svg">
<g clip-path="url(#clip0)">
<path fill-rule="evenodd" clip-rule="evenodd" d="M103.149 90.039C101.82 88.1074 100.122 85.2844 100.085 84.1329C100.048 82.4986 101.34 81.1614 102.965 81.1614C104.589 81.1614 105.918 82.4986 105.955 84.1329C105.955 85.2473 104.405 88.0703 103.149 90.039ZM102.928 79.8984C100.639 79.8984 98.793 81.7928 98.8299 84.1329C98.8668 86.2502 102.263 90.9676 102.632 91.4876L103.149 92.1934L103.629 91.4876C103.998 90.9676 107.173 86.2502 107.136 84.1329C107.136 81.7928 105.217 79.8984 102.928 79.8984Z" fill="#005841"/>
<path fill-rule="evenodd" clip-rule="evenodd" d="M96.0609 83.1296C95.9501 81.1238 96.6516 79.0066 98.1283 77.6694C98.239 77.5951 98.3129 77.5208 98.4236 77.4465C98.4975 77.4093 98.8667 77.1865 98.9405 77.1122C98.6451 76.8522 98.3498 76.5179 98.0914 76.2207L97.7591 76.4436C96.024 77.5951 94.8426 79.2294 94.1781 81.0495C94.1411 81.0867 94.0673 81.161 94.0304 81.1981C93.6612 81.5695 93.1443 81.9781 92.5537 81.941C91.7784 81.9038 91.0769 81.0867 91.0031 80.3438C90.9662 79.8237 91.1139 79.3037 91.4461 78.9323C91.5938 78.7465 92.406 78.0037 92.6275 78.1894C92.5167 78.1151 92.4429 78.0036 92.3322 77.9665C90.7078 77.3722 88.2712 77.2608 87.3113 79.0066C86.4991 80.4923 86.9052 82.6096 87.7543 84.0211C88.5296 85.284 89.8217 86.2498 91.3354 85.9898C91.7045 85.9155 92.0368 85.804 92.3691 85.6183C92.6275 85.4697 92.8859 85.3212 93.1813 85.1726C93.4397 85.3954 93.4028 85.6926 93.292 85.9526C92.6275 88.0699 93.8458 90.0757 95.4702 91.3757C96.6516 92.3415 98.0545 92.8987 99.4573 93.4187C99.9004 93.6044 100.38 93.7902 100.823 93.9016C101.525 94.1616 102.226 94.4216 102.891 94.7931C102.079 92.7872 100.343 91.3758 98.9405 89.7414C97.3899 87.9213 96.2086 85.5812 96.0609 83.1296Z" fill="#005841"/>
<path fill-rule="evenodd" clip-rule="evenodd" d="M113.671 77.8923C113.56 77.9294 113.523 78.0409 113.413 78.1151C113.634 77.9294 114.483 78.6723 114.631 78.858C114.963 79.2295 115.185 79.7495 115.148 80.2324C115.111 81.0124 114.483 81.7925 113.671 81.8668C113.117 81.9039 112.563 81.4953 112.157 81.1239C112.01 80.9753 111.862 80.8267 111.714 80.641C111.013 79.8609 110.496 78.9323 109.979 78.078C109.942 78.0037 109.905 77.9666 109.868 77.8923C108.724 76.7036 107.358 75.8493 105.844 75.3664C104.22 74.8464 102.485 74.735 100.823 75.1064C101.082 75.4779 101.414 75.8122 101.746 76.1093C101.746 76.1093 101.746 76.1465 101.783 76.1465C101.931 76.1093 102.079 76.1093 102.226 76.1093C102.263 76.1093 102.3 76.1093 102.337 76.1093C102.632 76.0722 102.928 76.0722 103.26 76.0722C104.368 76.1093 105.512 76.2951 106.546 76.7408C107.358 77.1122 108.023 77.6323 108.576 78.2637C109.684 79.5638 110.275 81.3467 110.275 83.0554C110.275 85.5069 109.167 87.8471 107.653 89.7414C106.804 90.8186 105.771 91.8215 104.958 92.9359C104.663 93.3445 104.405 93.7902 104.183 94.2731C104.109 94.4588 103.998 94.6445 103.925 94.8303C104.552 94.496 105.217 94.1988 105.918 93.9388C106.361 93.7531 106.841 93.6045 107.284 93.4188C108.687 92.8987 110.053 92.3044 111.197 91.3387C112.748 90.0014 113.856 87.9956 113.117 85.8784C113.006 85.5812 112.933 85.3212 113.191 85.0983C113.486 85.2469 113.745 85.3955 114.003 85.5441C114.336 85.7298 114.705 85.8412 115.074 85.8784C116.588 86.1013 117.88 85.1355 118.581 83.8726C119.356 82.4611 119.689 80.3438 118.803 78.858C117.695 77.1865 115.295 77.298 113.671 77.8923Z" fill="#005841"/>
<path fill-rule="evenodd" clip-rule="evenodd" d="M134.456 74.6613C134.751 74.587 135.01 74.5127 135.305 74.4384C135.342 74.1041 135.379 73.7698 135.416 73.4355C135.674 70.0925 134.788 66.6009 133.016 63.7407C131.244 60.8806 128.992 58.169 125.522 57.4261C123.085 56.9061 119.836 58.429 119.984 61.2149C120.132 63.7407 122.679 65.5608 124.783 66.5266C125.189 66.7123 125.632 66.8609 126.075 67.0095C126.998 67.3438 127.995 67.5666 128.918 67.7895C130.395 68.161 131.945 68.4581 133.496 68.6438C133.385 68.161 133.237 67.6781 133.053 67.2323C133.053 67.2323 133.053 67.2323 133.053 67.1952C131.576 67.0466 128.032 66.638 125.3 65.1894C124.636 64.8551 123.86 64.3351 123.565 63.5922C123.27 62.9236 123.713 62.2178 124.451 62.515C125.152 62.8121 125.632 63.6293 126.481 63.3693C126.851 63.2579 127.183 62.8864 127.22 62.4778C127.294 62.0321 126.998 61.7349 126.777 61.4006C126.592 61.1406 126.371 60.6577 126.703 60.4349C127.22 60.1377 127.847 60.5463 128.254 60.8063C128.77 61.1778 129.287 61.5492 129.767 61.9578C130.727 62.775 131.65 63.7036 132.388 64.7436C133.385 66.1551 134.013 67.7895 134.345 69.4982C134.493 70.3525 134.603 71.2068 134.603 72.0983C134.603 72.544 134.603 72.9898 134.567 73.3984C134.603 73.5469 134.567 74.6613 134.456 74.6613Z" fill="#005841"/>
<path fill-rule="evenodd" clip-rule="evenodd" d="M73.1718 32.8732C72.2858 34.2475 70.4399 34.619 69.0739 33.7646C68.1141 33.1703 66.6373 30.273 65.7144 28.1558C68.0402 28.0815 71.3259 28.2301 72.2858 28.8244C73.6518 29.6787 74.0579 31.4988 73.1718 32.8732ZM64.7176 26.93L63.8315 26.9671L64.1638 27.7472C64.3853 28.3415 66.5635 33.616 68.3356 34.7304C70.2922 35.9562 72.9134 35.399 74.1686 33.4675C75.4238 31.5359 74.8701 28.9358 72.8765 27.71C71.1413 26.6328 65.3821 26.8929 64.7176 26.93Z" fill="#005841"/>
<path fill-rule="evenodd" clip-rule="evenodd" d="M125.669 64.4086C127.478 65.5601 130.358 66.2659 132.499 66.4888C131.244 64.743 129.989 63.0714 128.106 61.8828C128.291 62.5886 128.549 63.4429 128.032 63.9629C127.552 64.4458 126.297 64.3344 125.669 64.4086Z" fill="#005841"/>
<path fill-rule="evenodd" clip-rule="evenodd" d="M106.841 58.9492H99.6421C99.0883 58.9492 98.6084 59.395 98.6084 59.9521V60.7322C98.6084 61.2893 99.0514 61.7351 99.6421 61.7351H106.841C107.395 61.7351 107.875 61.2893 107.875 60.7322V59.9521C107.875 59.395 107.395 58.9492 106.841 58.9492Z" fill="#005841"/>
<path fill-rule="evenodd" clip-rule="evenodd" d="M150.405 57.2034C149.223 55.9405 147.119 55.2719 145.568 56.3119C143.279 57.8349 144.165 61.2893 144.165 61.2893C144.165 61.2522 146.971 58.0577 148.743 60.8064C148.854 60.955 148.928 61.1036 149.002 61.2893C150.072 64.0752 146.122 65.9695 144.018 66.7496C141.36 67.7153 138.259 67.8268 135.379 67.5296C135.527 67.9754 135.637 68.4211 135.711 68.8668C136.929 68.9411 138.148 68.9411 139.329 68.8668C142.467 68.644 145.347 67.9382 147.894 66.1553C149.039 65.3381 150.109 64.298 150.737 63.0351C151.586 61.215 151.844 58.8006 150.405 57.2034Z" fill="#005841"/>
<path fill-rule="evenodd" clip-rule="evenodd" d="M73.2825 66.7117C75.3868 66.3402 78.2295 65.4488 79.9647 64.1859C79.3371 64.1859 78.0818 64.3716 77.565 63.8887C77.0112 63.4058 77.2327 62.5515 77.3435 61.8086C75.5345 63.1087 74.4269 64.8916 73.2825 66.7117Z" fill="#005841"/>
<path fill-rule="evenodd" clip-rule="evenodd" d="M69.9968 68.8668C70.1075 68.4211 70.2183 67.9754 70.2921 67.5296C67.3756 67.8268 64.2744 67.7153 61.6163 66.7496C59.512 65.9695 55.5618 64.0752 56.6324 61.2893C56.7062 61.1407 56.7801 60.955 56.8908 60.8064C58.6629 58.0206 61.5056 61.2522 61.4687 61.2893C61.4687 61.2893 62.3547 57.7977 60.0658 56.3119C58.5152 55.2719 56.4109 55.9405 55.2295 57.2034C53.7528 58.8006 54.0481 61.215 54.9342 63.0351C55.5618 64.298 56.6324 65.3381 57.7769 66.1553C60.3242 67.9382 63.2038 68.644 66.3419 68.8668C67.5602 68.9411 68.7785 68.9411 69.9968 68.8668Z" fill="#005841"/>
<path fill-rule="evenodd" clip-rule="evenodd" d="M72.581 67.2695C72.3964 67.7152 72.2487 68.1981 72.138 68.6809C73.6886 68.4952 75.2391 68.1981 76.7158 67.8266C77.6388 67.6038 78.6356 67.3437 79.5585 67.0466C80.0016 66.898 80.4446 66.7494 80.8507 66.5637C82.9919 65.5979 85.5024 63.7778 85.65 61.252C85.8346 58.4662 82.5858 56.9432 80.1492 57.4633C76.6789 58.2061 74.39 60.9177 72.6548 63.7778C70.9197 66.638 70.0337 70.1296 70.2552 73.4726C70.2921 73.8069 70.329 74.1412 70.3659 74.4755C70.6613 74.5498 70.9566 74.6241 71.215 74.6984C71.1043 74.6612 71.0674 73.584 71.0674 73.4355C71.0304 72.9897 71.0304 72.5811 71.0304 72.1354C71.0304 71.2811 71.1043 70.3896 71.2889 69.5353C71.6211 67.8266 72.2487 66.1923 73.2455 64.7808C73.9839 63.7407 74.8699 62.8121 75.8667 61.9949C76.3467 61.5863 76.8635 61.2149 77.3804 60.8434C77.7865 60.5463 78.451 60.1377 78.9309 60.472C79.3001 60.6948 79.0786 61.1777 78.8571 61.4377C78.6356 61.772 78.3402 62.0692 78.4141 62.5149C78.4879 62.9235 78.7833 63.295 79.1524 63.4064C80.0016 63.7036 80.4815 62.8492 81.1829 62.5521C81.8844 62.2549 82.3274 62.9607 82.069 63.6293C81.7736 64.335 80.9983 64.855 80.3338 65.2265C77.6388 66.6751 74.0947 67.0837 72.581 67.2695C72.581 67.2323 72.581 67.2695 72.581 67.2695Z" fill="#005841"/>
<path fill-rule="evenodd" clip-rule="evenodd" d="M103.629 11.3661C103.924 11.589 104.146 11.8861 104.368 12.1833C105.881 10.8461 107.579 9.47174 109.315 8.76599C110.607 8.24596 111.677 7.91166 113.08 7.87451C115.037 7.80022 118.839 8.02309 118.839 10.7347C118.839 13.7805 115.037 12.629 115.037 12.5919C115.037 12.5919 116.071 15.7492 118.618 15.8235C120.353 15.8606 121.645 14.3377 121.941 12.7776C122.31 10.8461 120.87 9.06314 119.282 8.09738C118.175 7.42878 116.809 7.13162 115.517 7.05733C113.634 6.9459 111.677 7.16876 109.868 7.68879C108.022 8.24596 106.435 9.21172 104.884 10.3632C104.478 10.6604 104.035 10.9947 103.629 11.3661Z" fill="#005841"/>
<path fill-rule="evenodd" clip-rule="evenodd" d="M87.6806 15.7864C90.228 15.7121 91.2617 12.5548 91.2617 12.5548C91.2617 12.592 87.4591 13.7434 87.4591 10.6976C87.4591 7.98602 91.2617 7.76315 93.2183 7.83744C94.5843 7.87458 95.6549 8.20889 96.9101 8.69177C97.2055 8.4689 97.4639 8.28318 97.7593 8.09745C97.3162 7.91173 96.8732 7.76315 96.4302 7.61457C94.6212 7.09455 92.7015 6.87168 90.7817 6.98311C89.4896 7.0574 88.1236 7.35456 87.0161 8.02316C85.4286 8.98893 83.9888 10.7719 84.358 12.7034C84.6533 14.3378 85.9455 15.8607 87.6806 15.7864Z" fill="#005841"/>
<path fill-rule="evenodd" clip-rule="evenodd" d="M117.326 57.723C116.514 54.8258 115.701 51.9656 114.889 49.0683C115.997 49.2912 117.067 49.9227 117.769 50.8141C119.283 52.8199 118.655 55.7172 117.326 57.723ZM112.933 73.3238C111.161 72.098 109.536 70.6494 108.207 68.9779C108.133 68.8665 108.059 68.7922 107.986 68.6807C107.838 68.4579 107.69 68.235 107.543 68.0493C107.543 68.0121 107.543 67.975 107.543 67.9378C107.543 67.9007 107.543 67.8635 107.543 67.8264C107.543 67.7893 107.543 67.715 107.543 67.6778C107.579 67.6778 107.579 67.715 107.616 67.715C107.69 67.7521 107.764 67.7893 107.838 67.8264H107.875C108.207 67.9007 108.539 67.8635 108.835 67.715C109.204 67.5292 109.462 67.1578 109.499 66.7121C109.536 66.192 109.241 65.672 108.761 65.4491C108.429 65.3006 108.133 65.3006 107.875 65.412C107.653 65.4863 107.432 65.6349 107.247 65.8206C107.063 66.0435 106.915 66.3035 106.767 66.5635C106.767 66.6006 106.73 66.6378 106.73 66.6749C106.657 66.5635 106.62 66.4892 106.546 66.3778C106.324 65.9692 106.14 65.5977 105.992 65.1891C105.918 65.0034 105.734 64.4462 105.623 63.9634V63.9262C105.512 63.5176 105.18 63.2205 104.774 63.1833C104.737 63.1833 104.035 63.1833 103.297 63.1833H103.26C102.522 63.1833 101.857 63.1833 101.82 63.1833C101.377 63.2205 101.045 63.5548 100.971 63.9262V63.9634C100.823 64.4462 100.676 65.0034 100.602 65.1891C100.417 65.5977 100.233 66.0063 100.048 66.3778C100.011 66.4892 99.9374 66.5635 99.8636 66.6749C99.7529 66.3778 99.5683 66.0806 99.3468 65.8206C98.9776 65.412 98.4607 65.1891 97.8331 65.4491C97.3532 65.672 97.0209 66.192 97.0947 66.7121C97.1686 67.5293 97.9439 68.0121 98.7191 67.8264H98.7561C98.8668 67.7893 98.9407 67.7521 99.0514 67.6778C99.0514 67.715 99.0514 67.8264 99.0514 67.8264C99.0514 67.9007 99.0514 67.975 99.0145 68.0493C98.8668 68.2721 98.7191 68.495 98.5715 68.6807C97.2424 70.5008 95.5442 72.1723 93.6614 73.4724C92.9599 73.9553 92.1477 74.401 91.2986 74.5496L95.6919 56.8687H110.533L114.852 74.2524C114.114 74.0667 113.486 73.6953 112.933 73.3238ZM90.0803 54.7143C89.8219 55.6429 89.4527 56.9802 89.0835 58.4288C89.0097 58.3545 88.9358 58.2802 88.862 58.1688C87.3114 56.2001 86.4254 52.9685 88.0867 50.777C88.9358 49.6998 90.3018 48.994 91.7047 48.9198L90.0803 54.7143ZM102.559 29.0473C102.854 29.0845 103.186 29.0845 103.482 29.0102L108.982 51.1113H97.0209L102.559 29.0473ZM142.762 73.5838C142.209 72.9895 141.581 72.6552 140.843 72.5066C140.843 72.4323 140.88 72.3581 140.88 72.2466C141.027 71.5409 141.175 70.3522 141.286 69.1265C140.954 69.2008 140.621 69.275 140.289 69.3493C140.215 70.0179 140.067 70.8351 139.846 71.4666C139.772 71.6895 139.698 71.9495 139.588 72.1723C139.588 72.2095 139.551 72.2838 139.551 72.3209V72.3581C139.034 72.3581 138.443 72.3952 137.963 72.1352C138.258 72.6181 138.222 73.2124 138.258 73.7324C138.074 73.8438 137.889 73.9553 137.705 74.0667C136.302 74.8839 134.751 75.4039 133.127 75.6268C129.066 76.1468 124.34 74.5125 121.756 71.318C120.316 69.5351 118.323 61.4004 117.769 59.506L117.732 59.3203C118.692 58.8745 119.578 58.2802 120.316 57.3516C121.682 55.6801 122.236 53.4885 122.162 51.3342C122.125 50.5913 122.051 49.8484 122.273 49.1426C122.347 48.9569 122.421 48.7712 122.568 48.6226C122.494 48.9197 122.531 49.2912 122.716 49.5512C123.085 50.0712 123.823 50.2198 124.34 49.8855C125.042 49.4398 124.968 48.7712 124.599 48.214C124.266 47.7683 123.75 47.434 123.233 47.434C122.716 47.3968 122.125 47.5454 121.645 47.8426C120.279 48.5483 119.135 49.9598 118.803 51.297C118.803 51.3342 118.766 51.4084 118.766 51.4456C118.618 51.1113 118.397 50.777 118.175 50.4798C117.326 49.4026 116.034 48.6597 114.668 48.4369L114.151 46.6168C116.145 46.3568 117.695 44.6481 117.695 42.6051C117.695 42.4194 117.695 42.2337 117.658 42.048C117.695 42.048 117.732 42.048 117.769 42.0851C118.95 42.3823 120.242 42.7166 121.498 42.9023C121.461 42.9395 121.387 43.0137 121.35 43.0509C121.128 43.3109 120.981 43.6081 120.87 43.9052C120.685 44.4252 120.759 44.9824 121.276 45.391C121.719 45.6882 122.31 45.7253 122.753 45.4282C123.417 44.9824 123.491 44.0538 122.937 43.4966L122.901 43.4595C122.827 43.3852 122.716 43.3109 122.642 43.2738C122.679 43.2366 122.753 43.1995 122.79 43.1995C122.864 43.1623 122.937 43.1252 123.011 43.1252C123.048 43.088 123.122 43.088 123.159 43.088C123.417 43.088 123.713 43.088 123.971 43.088C127.294 43.7566 130.395 45.3539 133.016 47.434C134.382 48.5112 136.043 50.2198 135.12 52.077C135.084 52.1142 135.047 52.1885 135.047 52.2256C134.973 52.3742 134.862 52.5228 134.751 52.6342C133.976 53.5257 132.61 53.8971 131.539 53.34C130.69 52.8942 130.432 51.6685 130.838 50.8513C130.949 50.6656 131.096 50.4427 131.318 50.4055C131.502 50.3684 131.724 50.4427 131.835 50.5913C131.798 50.6284 131.761 50.6656 131.724 50.7027C131.244 51.3342 131.318 52.2256 131.945 52.7085C132.721 53.3028 133.644 52.8571 134.013 52.077C134.493 51.037 134.271 49.5884 133.164 49.1055C132.758 48.9198 132.315 48.8455 131.872 48.9198C130.69 49.1055 129.767 50.1455 129.435 51.2599C128.918 53.1171 130.469 54.64 131.872 55.6058C133.976 57.0544 136.302 58.3545 137.852 60.4346C138.701 61.5861 139.366 62.849 139.809 64.1491C140.104 65.0034 140.289 65.8577 140.363 66.7492C140.363 66.8978 140.363 67.0464 140.4 67.1949C140.769 67.1207 141.138 67.0835 141.507 66.9349C141.655 63.8519 141.433 59.9146 140.289 56.2373C139.883 54.9372 139.403 53.7486 138.923 52.6714L138.886 52.6342C138.369 51.5942 137.779 50.517 137.04 49.5141C135.379 47.174 133.275 45.131 130.764 43.7566C129.546 43.088 128.254 42.6051 126.925 42.2337C128.291 41.4908 129.398 40.3393 130.1 38.965C130.727 37.702 131.059 36.1048 130.616 34.7305C130.506 34.3962 130.358 34.099 130.173 33.8019C129.62 32.9847 128.771 32.4646 127.811 32.1303C127.921 32.7247 128.032 33.3561 128.291 33.9133C128.549 34.099 128.807 34.3219 128.992 34.5819C129.324 35.0648 129.435 35.6219 129.398 36.1791C129.361 36.5506 129.324 36.922 129.214 37.2563C129.029 37.9621 128.697 38.6307 128.291 39.225C127.478 40.3393 126.26 41.1565 124.894 41.4908C124.562 41.5651 124.23 41.6022 123.897 41.6022C123.491 41.5651 123.122 41.4908 122.716 41.4537C122.494 41.4165 122.273 41.4165 122.051 41.3794C121.682 41.3422 121.35 41.3051 121.055 41.3051C120.538 41.1936 120.058 41.0822 119.578 40.9708C119.135 40.8594 118.692 40.7479 118.249 40.6365C117.99 40.5622 117.732 40.525 117.474 40.4508C117.732 40.525 117.99 40.5622 118.249 40.6365C118.655 39.5593 118.95 38.4821 119.356 37.4049C119.799 36.3648 120.353 35.3248 121.165 34.5448C122.088 33.6904 123.27 33.1704 124.525 33.0218C124.82 32.9847 125.153 32.9847 125.485 32.9847C125.411 32.5389 125.3 32.0561 125.189 31.6103C123.676 31.6103 122.199 32.0561 120.981 32.8732C120.981 32.8361 121.018 32.7989 121.018 32.7618C121.719 29.8645 121.387 26.6329 120.464 23.7728C120.242 23.067 119.984 22.3984 119.689 21.7298C119.172 20.4669 118.544 19.3154 117.843 18.2754C117.584 17.8668 117.326 17.4582 117.031 17.0496C114.779 13.818 111.604 11.1064 109.019 9.24921C108.65 9.39779 108.281 9.54636 107.949 9.76923C108.17 9.95496 108.576 10.2893 108.761 10.475C109.388 11.1064 109.979 11.775 110.459 12.5179C111.234 13.7066 111.825 15.0066 112.231 16.3438C112.933 18.8325 112.527 21.4327 112.342 23.9585C112.231 25.63 112.49 27.7844 114.262 28.5273C115.332 28.973 116.735 28.8988 117.621 28.1187C117.953 27.8216 118.175 27.4501 118.286 27.0044C118.581 25.8157 117.584 24.7385 116.44 24.4785C115.554 24.2557 114.631 24.7014 114.631 25.6672C114.631 26.4472 115.295 27.0787 116.071 27.0787C116.145 27.0787 116.181 27.0787 116.255 27.0787C116.329 27.2644 116.255 27.4873 116.108 27.5987C115.923 27.7473 115.665 27.7473 115.443 27.673C114.52 27.4873 113.708 26.5215 113.893 25.5929C114.114 24.4042 115.258 23.5871 116.44 23.5499C116.624 23.5499 116.772 23.5499 116.957 23.5871C118.913 23.8842 119.43 25.89 119.541 27.5615C119.689 29.8274 119.393 32.1675 118.803 34.3219C118.692 34.7676 118.544 35.2134 118.36 35.6591C118.323 35.6591 118.249 35.6962 118.212 35.7334C118.212 35.6219 118.212 35.5477 118.212 35.3991V35.3619C118.064 34.5819 117.289 34.099 116.514 34.3962C115.997 34.5819 115.665 35.0648 115.665 35.5848C115.665 36.2534 116.108 36.6249 116.661 36.7734C116.994 36.8849 117.326 36.8849 117.658 36.8849C117.732 36.8849 117.806 36.8477 117.88 36.8477V36.8849C117.695 37.2935 117.51 37.6649 117.289 38.0735C117.141 38.2964 116.698 38.965 116.329 39.4107C115.591 38.7792 114.631 38.3707 113.597 38.3707C113.043 38.3707 112.49 38.4821 111.973 38.705L110.164 32.2418C109.352 29.3445 108.539 26.4472 107.727 23.5499C107.912 21.4698 107.321 19.3154 106.546 17.3839C106.398 17.0124 106.214 16.6039 106.066 16.2324C105.586 15.1924 105.069 14.1523 104.441 13.1494C104.183 12.7037 103.814 12.3322 103.445 11.9608C103.039 11.5522 102.632 11.1807 102.189 10.7721C102.005 10.6236 101.82 10.475 101.636 10.3264C101.488 10.1778 101.303 9.9921 101.082 9.91781C100.897 9.76923 100.713 9.6578 100.528 9.50922C100.417 9.43493 100.344 9.36064 100.233 9.3235C100.196 9.28635 99.9744 9.13777 99.9375 9.13777C99.6052 9.28635 99.3098 9.43493 99.0514 9.6578C100.011 10.2521 100.934 10.9579 101.783 11.6636C102.632 12.3694 103.26 13.2237 103.814 14.1523C104.146 14.7466 104.478 15.3409 104.774 15.9353C105.143 16.6781 105.475 17.4582 105.771 18.2754C105.955 18.7954 106.14 19.3526 106.25 19.9097C106.287 20.244 106.324 20.5041 106.324 20.7641H104.811C104.331 18.684 102.153 13.558 102.116 13.5951C102.116 13.558 102.116 13.558 102.079 13.5208C102.005 13.7066 101.931 13.9294 101.82 14.1152C101.303 15.1924 100.75 16.3438 100.454 17.161C100.122 18.0525 99.7529 18.9811 99.4944 19.9097C99.3468 20.3555 99.236 20.8012 99.1622 21.2469C99.0514 21.767 99.0145 22.3613 98.9776 22.9185L98.6453 24.1442C98.6084 24.2557 98.5715 24.33 98.5715 24.4414L97.2055 29.2702C96.2456 32.6132 95.3227 35.9562 94.3628 39.2993C93.6244 38.705 92.7015 38.3335 91.7047 38.3335C90.8556 38.3335 90.0434 38.5935 89.3789 39.0393C89.2681 38.7792 89.0466 38.5192 88.8989 38.3335C88.862 38.2964 88.8251 38.2221 88.8251 38.1849C88.7882 38.1478 88.7512 38.1106 88.7512 38.0735C88.6036 37.7763 88.4559 37.4792 88.3082 37.182C88.2713 37.0706 88.1975 36.9592 88.1606 36.8849C88.2344 36.8849 88.2713 36.8849 88.3451 36.8849H88.3821C88.7143 36.922 89.0466 36.8849 89.3789 36.7734C89.9326 36.6249 90.3387 36.2534 90.3756 35.5848C90.3756 35.0648 90.0434 34.5448 89.5265 34.3962C89.3419 34.3219 89.1204 34.3219 88.9358 34.3219C88.3821 34.3962 87.9021 34.8048 87.8283 35.3619V35.3991C87.8283 35.5105 87.8283 35.6219 87.8283 35.7334C87.7914 35.6962 87.7175 35.6591 87.6806 35.6591C87.533 35.2134 87.3853 34.7676 87.2376 34.3219C87.1638 34.099 87.1268 33.8761 87.0899 33.6533C87.053 33.579 87.053 33.4676 87.0161 33.3933C86.61 31.6475 86.4254 29.8645 86.4254 28.0816C86.4254 26.3358 86.7208 24.0328 88.8251 23.5871C88.8989 23.5871 88.9358 23.5499 89.0097 23.5499C89.1943 23.5128 89.3419 23.5128 89.5265 23.5128C90.7079 23.5499 91.8524 24.3671 92.1108 25.5557C92.2954 26.4844 91.4832 27.4501 90.5602 27.6358C90.3387 27.673 90.0803 27.673 89.8957 27.5615C89.748 27.4501 89.6742 27.2272 89.748 27.0415C89.8219 27.0415 89.8588 27.0415 89.9326 27.0415C90.7448 27.0415 91.3724 26.4101 91.3724 25.63C91.3724 24.6643 90.4495 24.2185 89.5634 24.4414C88.4559 24.7014 87.4222 25.7786 87.7175 26.9672C87.8283 27.3758 88.0498 27.7844 88.3821 28.0816C89.2681 28.8616 90.671 28.9359 91.7416 28.4902C93.5137 27.7473 93.7721 25.5929 93.6614 23.9214C93.4768 21.0241 93.0338 18.0896 94.1413 15.3038C95.0643 13.0008 96.6517 10.9579 98.6822 9.50922C99.8267 8.69204 101.119 8.02343 102.448 7.61484C102.522 7.5777 102.559 7.5777 102.632 7.54055C102.891 7.80056 103.112 8.09772 103.223 8.43202C103.223 8.43202 103.223 8.43202 103.223 8.39488C103.223 8.39488 103.223 8.39488 103.223 8.43202C103.334 8.09772 103.555 7.80056 103.814 7.54055C103.888 7.5777 103.925 7.5777 103.998 7.61484C104.22 7.68913 104.478 7.76342 104.7 7.87485C105.18 8.06058 105.734 8.32059 106.177 8.5806C106.509 8.39488 106.804 8.17201 107.173 8.02343C106.177 7.39197 105.438 6.72337 104.811 6.38907C105.364 5.64617 105.512 5.05186 105.438 4.04895C105.291 2.48887 104.331 1.07737 103.297 -0.0741128C103.26 -0.111257 103.223 -0.148402 103.186 -0.185547C103.149 -0.148402 103.112 -0.111257 103.112 -0.0741128C102.079 1.07737 101.119 2.48887 100.971 4.04895C100.86 5.01471 101.045 5.64617 101.599 6.38907C101.488 6.42621 101.377 6.53764 101.266 6.61193C98.793 7.912 92.7753 11.4779 88.9358 17.0124C88.1606 18.1268 87.496 19.2411 86.9423 20.2812C86.9423 20.3183 86.9423 20.3183 86.9423 20.3555C86.4254 21.3955 85.9455 22.5099 85.6132 23.6985C84.7641 26.4101 84.4687 29.3073 84.9487 32.1303C84.9856 32.4275 85.0594 32.7247 85.1333 33.0218C84.8748 32.8361 84.6164 32.6504 84.358 32.4646C82.8813 31.6475 81.1461 31.3132 79.4479 31.6103C78.7464 31.7218 78.0819 31.9075 77.4543 32.2046C76.8267 32.5018 76.1991 32.9104 75.7561 33.4676C75.2392 34.1362 75.0915 34.9533 75.0915 35.7705C75.0915 36.2534 75.1285 36.6991 75.2023 37.1449C75.6453 36.7363 76.0514 36.3277 76.4206 35.882C76.3837 35.4362 76.4575 34.9533 76.6421 34.5448C77.0113 33.7647 77.8604 33.3933 78.6726 33.1333C80.1493 32.6875 81.8106 32.7618 83.2135 33.4304C83.5089 33.579 83.7673 33.7276 84.0257 33.9133C84.1734 33.9876 84.2842 34.099 84.4318 34.2104C84.5057 34.2476 84.801 34.4705 84.801 34.5448C86.0193 35.7334 86.6469 37.6649 87.2007 39.225C87.3484 39.6336 87.496 40.0793 87.6068 40.525C87.1638 40.6365 86.7208 40.7479 86.2777 40.8593C84.6533 41.2308 82.6598 41.7508 80.9984 41.3422C79.5217 40.9708 78.2296 40.0793 77.4174 38.8164C77.2697 38.5564 77.122 38.2964 77.0113 38.0364C76.679 38.4078 76.3468 38.7792 75.9776 39.1135C76.1622 39.4107 76.3468 39.745 76.5683 40.005C77.2328 40.8593 78.0819 41.5651 79.0787 42.0851C79.1525 42.1223 79.2633 42.1594 79.3371 42.1966C78.0081 42.568 76.7529 43.0509 75.5346 43.6823C72.9872 45.0938 70.8829 47.0997 69.2585 49.4398C68.557 50.4798 67.9294 51.5199 67.4126 52.5599L67.3756 52.5971C66.8588 53.6743 66.4158 54.8629 66.0097 56.163C64.8652 59.766 64.6806 63.5548 64.7914 66.6378C65.1606 66.6378 65.5297 66.6749 65.8989 66.7121C65.8989 66.7121 65.8989 66.6749 65.8989 66.6378C66.0097 65.7463 66.1943 64.892 66.4527 64.0376C66.8957 62.7004 67.5602 61.4375 68.4094 60.3232C69.9599 58.2431 72.2858 56.943 74.3901 55.4944C75.793 54.5286 77.3435 53.0057 76.8267 51.1484C76.5313 50.0341 75.5715 48.994 74.3901 48.8083C73.9471 48.734 73.5041 48.8083 73.098 48.994C71.9535 49.5141 71.732 50.9627 72.2488 51.9656C72.618 52.7828 73.541 53.1914 74.3163 52.5971C74.9439 52.1142 75.0546 51.2227 74.5378 50.5913C74.5008 50.5541 74.4639 50.517 74.427 50.4798C74.5008 50.3312 74.7224 50.2198 74.9439 50.2941C75.1654 50.3684 75.313 50.5541 75.4238 50.7398C75.8668 51.557 75.6084 52.7828 74.7224 53.2285C73.6517 53.7857 72.2858 53.4143 71.5105 52.5228C71.3997 52.3742 71.289 52.2628 71.2151 52.1142C71.1782 52.077 71.1413 52.0028 71.1413 51.9656C70.1814 50.1084 71.8427 48.3997 73.2456 47.3225C76.0514 45.131 79.3002 43.4595 82.8443 42.8652C82.8813 42.8652 82.8813 42.8652 82.9182 42.9023C82.992 42.9395 83.0659 42.9766 83.1397 42.9766C83.1766 42.9766 83.2504 43.0137 83.2874 43.0509C83.2135 43.088 83.1028 43.1623 83.0289 43.2366L82.992 43.2738C82.4382 43.8309 82.5121 44.7595 83.1766 45.2053C83.6196 45.5024 84.2103 45.5024 84.6533 45.1681C85.2071 44.7595 85.244 44.2024 85.0594 43.6823C84.9487 43.3852 84.7641 43.088 84.5795 42.828C84.5426 42.7537 84.4687 42.7166 84.4318 42.6794C85.5394 42.4937 86.6469 42.2337 87.7175 41.9737C87.7175 42.1223 87.6806 42.2708 87.6806 42.4194C87.6806 44.6481 89.5265 46.4682 91.8155 46.4682C92.037 46.4682 92.2585 46.4311 92.48 46.3939L91.9631 48.1769C90.3387 48.214 88.7143 48.994 87.7175 50.257C87.496 50.5541 87.2745 50.8884 87.1269 51.2227C87.1269 51.1856 87.1268 51.1113 87.0899 51.0741C86.7577 49.7369 85.6132 48.3254 84.2472 47.6197C83.7673 47.3225 83.1766 47.174 82.6598 47.2111C82.1429 47.2482 81.5891 47.5825 81.2938 47.9911C80.8877 48.5112 80.8508 49.1798 81.5522 49.6626C82.106 50.0341 82.8443 49.8855 83.1766 49.3283C83.3612 49.0312 83.3981 48.6969 83.3243 48.3997C83.435 48.5483 83.5458 48.734 83.6196 48.9198C83.8411 49.6255 83.7673 50.3684 83.7304 51.1113C83.6565 53.2657 84.2472 55.4572 85.5763 57.1287C86.4992 58.2802 87.6437 58.9488 88.862 59.3946C87.7175 63.7033 86.3885 68.7922 86.0193 69.6093C84.9856 71.838 82.3644 73.621 80.1493 74.5867C76.4944 76.1468 72.0642 76.1097 68.6309 74.0667C68.4094 73.9553 68.2248 73.8067 68.0402 73.6953C68.0771 73.1381 68.0402 72.4695 68.3724 71.9495C67.8925 72.1723 67.3018 72.1723 66.785 72.1723V72.1352C66.7111 71.9123 66.6004 71.6523 66.5265 71.4294C66.2681 70.6494 66.1204 69.8322 66.0466 69.015C65.7143 68.9779 65.3821 68.9407 65.0498 68.9036C65.1975 70.278 65.3451 71.4294 65.4928 72.2095C65.4928 72.2466 65.4928 72.2838 65.4928 72.2838C64.7545 72.4324 64.1268 72.7666 63.5731 73.361C62.5394 74.5496 62.1333 76.184 61.9856 77.7069C61.9856 77.744 61.9856 77.7812 61.9856 77.8183C62.0225 77.8183 62.0594 77.8183 62.1333 77.8183C63.6838 77.7812 65.3821 77.484 66.6373 76.5183C67.228 76.0725 67.5972 75.5154 67.8187 74.8839C68.557 75.1811 69.5907 75.5896 70.8459 75.9982C71.0305 76.8526 71.289 77.7069 71.6951 78.5241C72.4703 80.1956 73.5779 81.7185 74.87 82.9814C75.7561 83.8729 76.8636 84.653 78.0819 84.9873C79.854 85.5073 82.0691 85.3959 83.2874 83.8729C84.2472 82.6471 84.5426 80.7156 83.3981 79.4898C81.6999 77.7069 78.7095 79.007 78.7095 79.007C78.7464 79.007 82.0691 80.9756 79.8171 82.9443C77.8235 84.6901 75.2023 82.09 73.9471 80.6413C73.061 79.6013 72.618 78.5984 72.175 77.3354C72.0642 76.964 71.9535 76.6297 71.8427 76.2583C75.0177 77.224 79.3002 78.1155 83.6196 77.7812C84.0626 77.744 84.5057 77.7069 84.9487 77.6326C85.0594 77.6326 85.1333 77.6326 85.2071 77.6326C86.61 77.484 87.9021 77.224 89.0835 76.9269C89.785 76.7411 90.4864 76.5183 91.1878 76.2583C93.6983 75.3296 96.061 73.881 97.87 71.9866C97.7962 72.098 97.9439 72.6924 97.9439 72.8409C97.9808 73.1381 98.0546 73.3981 98.1285 73.6953C98.2761 74.2524 98.5346 74.7725 98.8299 75.2925C99.4206 76.2954 100.233 77.1497 101.23 77.7812C101.82 78.1526 102.485 78.3755 103.186 78.4498C103.851 78.5241 104.552 78.4126 105.143 78.1898C105.475 78.0783 105.771 77.9298 106.066 77.7069C106.14 77.6697 106.804 77.1126 106.657 77.0383C106.214 76.7783 105.143 76.5554 105.143 76.5554C105.143 76.5554 105.18 76.5183 105.032 76.6297C104.626 76.9269 104.109 77.0383 103.592 77.0754C103.039 77.1126 102.559 76.9269 102.116 76.6297C101.082 75.9982 100.233 75.0696 99.7529 73.9181C99.236 72.7295 99.1252 71.3551 99.4944 70.1294C99.7159 69.3493 100.233 68.6436 100.676 67.975C101.23 67.1949 101.82 66.4892 102.485 65.7834C102.632 65.6349 102.78 65.4491 102.928 65.3006C103.075 65.1148 103.26 64.9663 103.408 64.7805C103.555 64.9663 103.74 65.1148 103.888 65.3006C104.035 65.4491 104.183 65.5977 104.331 65.7834C104.958 66.4892 105.586 67.1949 106.14 67.975C106.472 68.4579 106.841 68.9779 107.1 69.5722C107.173 69.7579 107.284 69.9436 107.284 70.0922C107.764 71.8009 107.321 73.361 106.509 74.8468C106.546 74.7725 107.838 75.1811 107.986 75.2182C108.613 74.1781 108.945 72.9895 108.982 71.7637C110.791 73.6581 113.154 75.0696 115.665 75.9982C116.366 76.2583 117.067 76.4811 117.769 76.6668C118.987 76.964 120.242 77.224 121.645 77.3726C122.088 77.4097 122.531 77.4469 122.974 77.4469C122.494 77.4469 122.014 77.4097 121.535 77.3726C122.014 77.4469 122.494 77.484 123.011 77.5212C127.072 77.8183 131.059 77.0754 134.161 76.184C134.087 76.5554 133.976 76.8897 133.865 77.224C133.422 78.4869 132.979 79.4898 132.093 80.5299C130.875 81.9785 128.254 84.5787 126.223 82.8329C123.971 80.8642 127.294 78.8584 127.331 78.8955C127.331 78.8955 124.34 77.5955 122.642 79.3784C121.498 80.567 121.756 82.5357 122.753 83.7615C123.971 85.2844 126.186 85.3959 127.958 84.8758C129.177 84.5044 130.284 83.7243 131.17 82.87C132.462 81.5699 133.57 80.047 134.345 78.4126C134.714 77.5955 134.973 76.7783 135.157 75.924C136.634 75.4782 137.889 74.9953 138.738 74.6239C138.96 75.2925 139.329 75.8868 139.957 76.3697C141.212 77.3354 142.91 77.6326 144.461 77.6698C144.498 77.6698 144.535 77.6698 144.608 77.6698C144.608 77.6326 144.608 77.5955 144.608 77.5583C144.202 76.3697 143.796 74.7353 142.762 73.5838Z" fill="#005841"/>
<path fill-rule="evenodd" clip-rule="evenodd" d="M68.1509 24.7753C70.5875 24.4781 73.1718 24.7381 75.2761 25.9639C77.0113 26.9668 78.3773 28.7126 78.6726 30.6813C78.6726 30.8299 78.7095 30.9413 78.7095 31.0527C78.7095 31.127 78.7095 31.2385 78.7095 31.3127C79.1156 31.2013 79.5217 31.127 79.9278 31.0899C79.9278 31.0527 79.9278 31.0527 79.9278 31.0156C79.9278 28.9355 79.2264 27.0411 78.0819 25.481C78.0819 25.4067 78.045 25.3325 78.045 25.2582C77.9342 24.7381 77.8973 24.0695 78.2296 23.6238C78.7095 22.9923 79.7432 22.8438 80.4078 23.2152C80.8508 23.4381 81.183 23.8838 81.3307 24.3667C81.4046 24.5896 81.5891 25.6668 81.2938 25.7782C81.4415 25.741 81.5522 25.741 81.6261 25.6668C83.029 24.6267 84.4318 22.658 83.5089 20.8751C82.7336 19.3522 80.74 18.535 79.1156 18.4978C77.6389 18.4607 76.1253 19.0179 75.4977 20.4294C75.35 20.7637 75.2761 21.1351 75.2392 21.5065C75.2023 21.8037 75.2023 22.1009 75.1654 22.4352C74.8331 22.5466 74.6116 22.3237 74.427 22.1009C73.0241 20.3922 70.6983 20.3179 68.7047 20.9494C67.2649 21.3951 66.0466 22.2866 64.8283 23.1781C64.4222 23.4381 64.0161 23.7352 63.6469 24.0695C63.0562 24.5153 62.4286 24.961 61.801 25.3325C63.8684 25.741 66.0466 25.0353 68.1509 24.7753Z" fill="#005841"/>
<path fill-rule="evenodd" clip-rule="evenodd" d="M63.6098 38.7424C63.9052 38.8167 64.1636 38.891 64.2374 39.2624C63.9421 39.411 63.6836 39.5596 63.4252 39.7082C63.093 39.8939 62.7976 40.1168 62.5392 40.4139C61.5055 41.5654 61.6162 43.1626 62.2808 44.4627C63.0191 45.9113 64.6066 47.3228 66.3417 47.3971C68.3353 47.4714 69.5905 45.3913 69.9597 43.6827C69.9966 43.5712 69.9228 43.4598 69.9228 43.3484C69.9597 43.6455 68.8891 43.9055 68.6307 43.9798C68.1507 44.0541 67.597 43.9427 67.1909 43.6455C66.6002 43.1998 66.2679 42.1969 66.6371 41.5283C66.9324 41.0454 67.5231 40.7854 68.0769 40.6739C68.2984 40.6368 68.483 40.5996 68.7045 40.5625C69.1845 40.6368 69.6644 40.6739 70.1443 40.6739C70.7719 40.6739 71.3995 40.5996 72.0271 40.4882C73.6515 40.1911 75.1283 39.4853 76.3466 38.5195C77.8602 37.2938 78.9678 35.6594 79.5215 33.765C79.0047 33.8393 78.4878 33.9879 78.0817 34.285C78.0448 34.3222 78.0448 34.3965 78.0079 34.4336C77.8971 34.6565 77.8233 34.8422 77.7125 35.0651C76.6419 37.0709 74.7222 38.5567 72.4702 39.1881C70.7719 39.411 68.9629 38.9281 67.5601 37.9624C65.5296 36.588 64.2005 34.3965 63.4621 32.0935C63.056 30.7563 62.7976 29.3819 62.2808 28.0819C62.0962 27.599 61.8747 27.1161 61.6162 26.7075C61.5055 26.5218 61.3947 26.3732 61.284 26.1875C61.2101 26.8932 61.0625 27.6361 60.9148 28.3419C60.7671 28.8248 60.6564 29.3077 60.5825 29.7905C60.2503 31.2763 59.9549 32.725 60.1764 34.2108C60.3979 36.1423 61.4686 38.1852 63.6098 38.7424Z" fill="#005841"/>
<path fill-rule="evenodd" clip-rule="evenodd" d="M133.57 28.7505C134.53 28.1561 137.816 28.0076 140.141 28.0819C139.218 30.1991 137.742 33.0964 136.782 33.6907C135.416 34.5822 133.57 34.1736 132.684 32.7992C131.798 31.462 132.204 29.6419 133.57 28.7505ZM137.483 34.7308C139.292 33.5793 141.433 28.3419 141.655 27.7476L141.987 26.9675L141.101 26.9304C140.437 26.8932 134.677 26.6332 132.905 27.7476C130.949 28.9733 130.358 31.5735 131.613 33.505C132.868 35.3994 135.49 35.9937 137.483 34.7308Z" fill="#005841"/>
<path fill-rule="evenodd" clip-rule="evenodd" d="M124.23 25.6668C124.303 25.7411 124.414 25.7411 124.562 25.7782C124.267 25.6668 124.488 24.5896 124.525 24.3667C124.636 23.8838 124.968 23.4381 125.448 23.2152C126.112 22.8809 127.183 22.9924 127.626 23.6238C127.958 24.1067 127.921 24.7382 127.811 25.2582C127.811 25.3325 127.774 25.4068 127.774 25.4811C127.7 25.7411 127.515 25.9268 127.368 26.1497C127.22 26.3725 127.072 26.6326 126.925 26.8926C125.596 29.3813 125.559 32.39 126.777 34.953C127.22 35.8444 127.774 36.6988 128.475 37.4417L128.549 37.516C128.549 37.516 128.549 37.4788 128.586 37.4788C128.807 37.0702 128.881 36.5502 128.844 36.1045C128.844 35.9187 128.586 35.6959 128.475 35.5473C128.291 35.2501 128.143 34.953 127.995 34.6558C127.072 32.6871 126.925 30.3099 128.069 28.3784C128.66 27.3754 129.546 26.5211 130.58 25.9268C132.684 24.701 135.268 24.4039 137.705 24.7382C139.846 24.9982 141.987 25.7039 144.092 25.2953C143.464 24.9239 142.836 24.4782 142.246 24.0324C141.877 23.6981 141.47 23.401 141.064 23.141C139.846 22.2123 138.628 21.358 137.188 20.9123C135.194 20.2808 132.868 20.3922 131.466 22.0638C131.281 22.2866 131.059 22.5095 130.727 22.3981C130.69 22.0638 130.69 21.7666 130.653 21.4694C130.616 21.098 130.543 20.7265 130.395 20.3922C129.767 18.9807 128.254 18.4236 126.777 18.4607C125.153 18.535 123.159 19.3522 122.384 20.838C121.424 22.6581 122.827 24.6267 124.23 25.6668Z" fill="#005841"/>
<path fill-rule="evenodd" clip-rule="evenodd" d="M142.43 31.9813C141.692 34.2842 140.363 36.4758 138.332 37.8501C136.892 38.8159 135.12 39.2988 133.422 39.0759C132.573 38.9645 131.761 38.7045 131.023 38.2216C130.986 38.2216 130.986 38.1844 130.949 38.1844C130.875 38.5187 130.764 38.853 130.653 39.1873C131.392 39.5959 132.13 39.9674 132.942 40.1903C134.308 40.5617 135.748 40.2645 137.114 40.4503C137.336 40.4874 137.557 40.5246 137.742 40.5617C138.258 40.7103 138.886 40.9331 139.181 41.416C139.588 42.0846 139.255 43.0875 138.628 43.5333C138.222 43.8304 137.705 43.9419 137.188 43.8676C136.966 43.8304 135.859 43.5333 135.896 43.2361C135.896 43.3847 135.822 43.4961 135.859 43.5704C136.228 45.2791 137.446 47.3592 139.477 47.2849C141.212 47.2106 142.762 45.7991 143.538 44.3505C144.202 43.0504 144.313 41.4532 143.279 40.3017C143.021 40.0417 142.726 39.7817 142.393 39.5959C142.135 39.4474 141.876 39.2988 141.581 39.1502C141.618 38.8159 141.913 38.7045 142.209 38.6302C144.35 38.1101 145.421 36.03 145.679 34.0242C145.864 32.5384 145.605 31.0527 145.273 29.604C145.162 29.1211 145.051 28.6383 144.941 28.1554C144.793 27.4496 144.645 26.7067 144.571 26.001C144.461 26.1496 144.35 26.3353 144.239 26.521C143.981 26.9667 143.759 27.4125 143.575 27.8954C143.095 29.2697 142.836 30.6441 142.43 31.9813Z" fill="#005841"/>
<path fill-rule="evenodd" clip-rule="evenodd" d="M7.05147 99.9469C7.05147 100.133 7.05147 100.318 7.01455 100.43C7.01455 100.578 6.97763 100.653 6.94072 100.764C6.9038 100.838 6.86688 100.913 6.82996 100.95C6.79304 100.987 6.71921 100.987 6.64537 100.987H2.54746V111.053C2.54746 111.127 2.51054 111.165 2.47362 111.239C2.4367 111.276 2.36287 111.313 2.25211 111.35C2.14136 111.387 2.0306 111.425 1.88293 111.425C1.73526 111.425 1.51375 111.462 1.25532 111.462C0.996896 111.462 0.812305 111.462 0.627714 111.425C0.480042 111.425 0.332369 111.387 0.221615 111.35C0.11086 111.313 0.0739421 111.276 0.000105806 111.239C-0.0368123 111.202 -0.0737305 111.127 -0.0737305 111.053V99.6869C-0.0737305 99.4268 0.000105813 99.204 0.147778 99.0925C0.295451 98.944 0.480042 98.9068 0.70155 98.9068H6.60845C6.71921 98.9068 6.82996 98.9811 6.9038 99.1297C7.01455 99.2783 7.05147 99.5383 7.05147 99.9469ZM17.6839 111.016C17.6839 111.09 17.647 111.165 17.6101 111.202C17.5731 111.239 17.4993 111.276 17.3885 111.313C17.2778 111.35 17.167 111.387 16.9824 111.387C16.7979 111.387 16.6133 111.425 16.3548 111.425C16.0964 111.425 15.8749 111.425 15.6903 111.387C15.5057 111.387 15.395 111.35 15.2842 111.313C15.1735 111.276 15.0996 111.239 15.0627 111.165C15.0258 111.09 14.9889 111.016 14.952 110.942L13.9552 108.156C13.8075 107.747 13.6598 107.413 13.5121 107.153C13.3645 106.893 13.1799 106.67 12.9953 106.484C12.8107 106.299 12.5892 106.187 12.3677 106.113C12.1462 106.039 11.8508 106.001 11.5555 106.001H11.0017V111.016C11.0017 111.09 10.9648 111.127 10.9279 111.202C10.891 111.239 10.8171 111.276 10.7064 111.313C10.5956 111.35 10.4849 111.387 10.3372 111.387C10.1895 111.387 9.968 111.425 9.70958 111.425C9.45115 111.425 9.26656 111.425 9.08197 111.387C8.9343 111.387 8.78662 111.35 8.67587 111.313C8.56511 111.276 8.5282 111.239 8.45436 111.202C8.41744 111.165 8.38052 111.09 8.38052 111.016V99.204C8.38052 99.1297 8.41744 99.0554 8.45436 99.0182C8.49128 98.9811 8.56511 98.944 8.67587 98.9068C8.78662 98.8697 8.89738 98.8325 9.08197 98.8325C9.22964 98.8325 9.45115 98.7954 9.70958 98.7954C9.968 98.7954 10.1526 98.7954 10.3372 98.8325C10.4849 98.8325 10.6325 98.8697 10.7064 98.9068C10.8171 98.944 10.854 98.9811 10.9279 99.0182C10.9648 99.0554 11.0017 99.1297 11.0017 99.204V103.884H11.5555C11.8508 103.884 12.1093 103.847 12.3308 103.773C12.5523 103.698 12.7369 103.587 12.9215 103.401C13.106 103.216 13.2537 103.03 13.4014 102.733C13.5491 102.473 13.6967 102.138 13.8075 101.73L14.6566 99.2411C14.6935 99.1668 14.7304 99.0925 14.7674 99.0182C14.8043 98.944 14.8781 98.9068 14.9889 98.8697C15.0996 98.8325 15.2104 98.7954 15.395 98.7954C15.5426 98.7954 15.7642 98.7582 16.0595 98.7582C16.3179 98.7582 16.5025 98.7582 16.6871 98.7954C16.8348 98.7954 16.9824 98.8325 17.0563 98.8697C17.1301 98.9068 17.204 98.944 17.2409 98.9811C17.2778 99.0182 17.2778 99.0925 17.2778 99.1668C17.2778 99.2411 17.2778 99.3526 17.2409 99.464C17.204 99.5754 17.167 99.7611 17.0932 99.9469L16.2441 102.176C16.0964 102.584 15.9487 102.918 15.8011 103.216C15.6534 103.513 15.4688 103.736 15.3211 103.959C15.1365 104.144 14.9889 104.33 14.7674 104.441C14.5828 104.553 14.3613 104.664 14.1398 104.776C14.3982 104.887 14.6197 104.999 14.8412 105.147C15.0627 105.296 15.2473 105.481 15.4319 105.667C15.6165 105.89 15.8011 106.15 15.9487 106.447C16.1333 106.744 16.281 107.153 16.4656 107.599L17.4993 110.199C17.6101 110.459 17.647 110.645 17.6839 110.756C17.6839 110.905 17.6839 110.979 17.6839 111.016ZM31.6759 109.865C31.7128 109.939 31.7128 110.013 31.7128 110.05C31.7128 110.087 31.6759 110.162 31.602 110.199C31.5282 110.236 31.4174 110.273 31.2698 110.273C31.1221 110.31 30.9375 110.31 30.716 110.31C30.5314 110.31 30.3837 110.31 30.273 110.31C30.1622 110.31 30.0515 110.273 29.9776 110.273C29.9038 110.236 29.83 110.236 29.793 110.199C29.7561 110.162 29.7192 110.125 29.6823 110.05L27.541 106.707C27.4672 106.559 27.4303 106.447 27.4303 106.299C27.4303 106.15 27.5041 106.001 27.578 105.853L29.5346 102.696C29.5715 102.658 29.6085 102.584 29.6454 102.547C29.6823 102.51 29.7561 102.473 29.83 102.436C29.9038 102.398 30.0145 102.398 30.1253 102.398C30.2361 102.398 30.3837 102.398 30.5683 102.398C30.7898 102.398 30.9744 102.398 31.1221 102.436C31.2698 102.473 31.3805 102.473 31.4544 102.547C31.5282 102.584 31.5651 102.621 31.5651 102.696C31.5651 102.77 31.5651 102.844 31.5282 102.918L29.7192 106.336L31.6759 109.865ZM25.8059 106.299L27.7256 110.013C27.7625 110.087 27.7995 110.162 27.7995 110.236C27.7995 110.31 27.7625 110.347 27.6887 110.422C27.6149 110.459 27.5041 110.496 27.3934 110.533C27.2457 110.57 27.0611 110.57 26.8396 110.57C26.655 110.57 26.5073 110.57 26.3966 110.533C26.2858 110.533 26.1751 110.496 26.1012 110.496C26.0274 110.459 25.9536 110.422 25.9166 110.385C25.8797 110.347 25.8428 110.31 25.8059 110.236L23.6646 106.707C23.5908 106.559 23.5539 106.41 23.5539 106.299C23.5539 106.15 23.6277 106.001 23.7015 105.853L25.732 102.51C25.769 102.436 25.8059 102.398 25.8428 102.361C25.8797 102.324 25.9536 102.287 26.0274 102.25C26.1012 102.213 26.212 102.213 26.3227 102.213C26.4335 102.213 26.5812 102.176 26.8027 102.176C27.0242 102.176 27.2088 102.176 27.3564 102.213C27.5041 102.25 27.6149 102.287 27.6887 102.324C27.7625 102.361 27.7995 102.436 27.7995 102.51C27.7995 102.584 27.7995 102.658 27.7256 102.733L25.8059 106.299ZM44.7449 110.422C44.8187 110.645 44.8556 110.83 44.8926 110.979C44.8926 111.127 44.8926 111.202 44.8187 111.276C44.7449 111.35 44.6341 111.387 44.4495 111.387C44.2649 111.387 44.0065 111.425 43.7112 111.425C43.3789 111.425 43.1205 111.425 42.9359 111.425C42.7513 111.425 42.6036 111.387 42.5298 111.387C42.419 111.35 42.3821 111.313 42.3083 111.276C42.2714 111.239 42.2345 111.165 42.1975 111.09L41.3484 108.564H36.7337L35.9584 111.016C35.9215 111.09 35.8845 111.165 35.8476 111.239C35.8107 111.313 35.7369 111.35 35.663 111.387C35.5892 111.425 35.4415 111.462 35.2569 111.462C35.0723 111.462 34.8508 111.499 34.5924 111.499C34.2971 111.499 34.0755 111.499 33.891 111.462C33.7064 111.425 33.5956 111.387 33.5587 111.313C33.4849 111.239 33.4849 111.127 33.4849 111.016C33.5218 110.867 33.5587 110.682 33.6325 110.459L37.472 99.3897C37.5089 99.2783 37.5458 99.204 37.6197 99.1297C37.6566 99.0554 37.7674 99.0182 37.8781 98.9811C37.9889 98.944 38.1365 98.9068 38.358 98.9068C38.5426 98.9068 38.838 98.9068 39.1333 98.9068C39.5025 98.9068 39.7979 98.9068 40.0194 98.9068C40.2409 98.9068 40.4255 98.944 40.5362 98.9811C40.647 99.0182 40.7577 99.0554 40.7946 99.1297C40.8685 99.204 40.9054 99.2783 40.9423 99.4268L44.7449 110.422ZM39.0595 101.284L37.2874 106.596H40.7946L39.0595 101.284ZM54.2698 111.053C54.2698 111.127 54.2328 111.165 54.1959 111.239C54.159 111.276 54.0852 111.313 54.0113 111.35C53.9375 111.387 53.7898 111.425 53.6422 111.425C53.4945 111.425 53.3099 111.462 53.0515 111.462C52.83 111.462 52.6085 111.462 52.4608 111.425C52.3131 111.425 52.1654 111.387 52.0916 111.35C52.0178 111.313 51.9439 111.276 51.907 111.239C51.8701 111.202 51.8701 111.127 51.8701 111.053V104.107H50.1349C50.0242 105.11 49.9134 106.001 49.7658 106.781C49.6181 107.562 49.4335 108.193 49.2489 108.75C49.0643 109.307 48.8428 109.753 48.5844 110.125C48.3629 110.496 48.0675 110.793 47.8091 110.979C47.5137 111.202 47.2184 111.35 46.8861 111.425C46.5539 111.499 46.1847 111.573 45.8155 111.573C45.7417 111.573 45.6678 111.573 45.594 111.536C45.5202 111.499 45.4832 111.462 45.4463 111.387C45.4094 111.313 45.3725 111.202 45.3725 111.053C45.3725 110.905 45.3725 110.719 45.3725 110.496C45.3725 110.273 45.3725 110.05 45.3725 109.902C45.3725 109.753 45.4094 109.642 45.4094 109.567C45.4463 109.493 45.4832 109.419 45.5202 109.419C45.5571 109.382 45.6309 109.382 45.6678 109.382C45.8524 109.382 46.0001 109.344 46.1847 109.27C46.3324 109.196 46.517 109.084 46.6646 108.862C46.8123 108.676 46.96 108.416 47.0707 108.119C47.1815 107.822 47.3292 107.413 47.4399 106.93C47.5507 106.447 47.6614 105.89 47.7353 105.221C47.846 104.553 47.9198 103.81 48.0306 102.918C48.0306 102.658 48.1044 102.473 48.2152 102.324C48.3259 102.213 48.4736 102.138 48.6951 102.138H53.6422C53.8637 102.138 54.0483 102.213 54.1221 102.324C54.2328 102.436 54.2698 102.658 54.2698 102.918V111.053ZM64.7914 108.156C64.7914 108.676 64.6807 109.122 64.4961 109.567C64.3115 109.976 64.0162 110.347 63.6101 110.645C63.204 110.942 62.724 111.165 62.1333 111.35C61.5426 111.499 60.8412 111.61 60.029 111.61C59.8075 111.61 59.586 111.61 59.3645 111.61C59.143 111.61 58.9215 111.61 58.6999 111.573C58.4784 111.573 58.2569 111.536 58.0723 111.536C57.8508 111.536 57.6662 111.499 57.4816 111.499C57.1863 111.462 56.9648 111.387 56.8171 111.202C56.6694 111.053 56.5956 110.83 56.5956 110.496V102.436C56.5956 102.361 56.6325 102.324 56.6694 102.25C56.7064 102.213 56.7802 102.176 56.854 102.138C56.9279 102.101 57.0755 102.064 57.2232 102.064C57.3709 102.064 57.5555 102.027 57.8139 102.027C58.0354 102.027 58.2569 102.027 58.4046 102.064C58.5523 102.064 58.6999 102.101 58.7738 102.138C58.8476 102.176 58.9214 102.213 58.9584 102.25C58.9953 102.287 59.0322 102.361 59.0322 102.436V105.11C59.2537 105.073 59.4752 105.073 59.7337 105.073C59.9921 105.073 60.2505 105.036 60.5089 105.036C61.2473 105.036 61.8749 105.11 62.3918 105.259C62.9086 105.407 63.3516 105.593 63.6839 105.89C64.0162 106.15 64.2746 106.484 64.4592 106.856C64.7176 107.227 64.7914 107.673 64.7914 108.156ZM62.2441 108.267C62.2441 108.044 62.2072 107.859 62.1333 107.673C62.0595 107.487 61.9487 107.339 61.8011 107.227C61.6534 107.116 61.4319 107.004 61.2104 106.93C60.952 106.856 60.6566 106.819 60.3243 106.819C60.1028 106.819 59.8813 106.819 59.6598 106.819C59.4383 106.819 59.2537 106.856 59.106 106.856V109.642C59.2906 109.679 59.4752 109.679 59.6967 109.679C59.9182 109.679 60.1397 109.716 60.3613 109.716C61.0258 109.716 61.5057 109.605 61.8011 109.344C62.0964 109.084 62.2441 108.75 62.2441 108.267ZM77.8235 106.67C77.8235 107.376 77.7128 108.007 77.4913 108.602C77.2698 109.196 76.9744 109.679 76.5683 110.125C76.1622 110.533 75.6454 110.905 75.0547 111.165C74.464 111.425 73.7625 111.573 73.0242 111.61V114.47C73.0242 114.545 72.9873 114.582 72.9503 114.656C72.9134 114.693 72.8396 114.768 72.7658 114.805C72.6919 114.842 72.5442 114.879 72.3966 114.879C72.2489 114.916 72.0643 114.916 71.8059 114.916C71.5844 114.916 71.3629 114.916 71.2152 114.879C71.0675 114.842 70.9198 114.842 70.846 114.805C70.7722 114.768 70.6983 114.73 70.6614 114.656C70.6245 114.619 70.5876 114.545 70.5876 114.47V111.61C69.8123 111.573 69.1109 111.462 68.5202 111.239C67.9295 111.016 67.4126 110.682 67.0065 110.273C66.6004 109.865 66.3051 109.382 66.0836 108.787C65.8621 108.193 65.7513 107.562 65.7513 106.819C65.7513 106.113 65.8621 105.481 66.0836 104.887C66.3051 104.293 66.6004 103.81 67.0065 103.364C67.4126 102.918 67.9295 102.584 68.5202 102.324C69.1109 102.064 69.8123 101.916 70.5507 101.878V98.7582C70.5507 98.684 70.5876 98.6468 70.6245 98.5725C70.6614 98.5354 70.7353 98.4611 70.8091 98.4239C70.8829 98.3868 71.0306 98.3496 71.1783 98.3496C71.3259 98.3125 71.5105 98.3125 71.769 98.3125C71.9905 98.3125 72.212 98.3125 72.3596 98.3496C72.5073 98.3496 72.655 98.3868 72.7288 98.4239C72.8027 98.4611 72.8765 98.4982 72.9134 98.5725C72.9503 98.6468 72.9873 98.684 72.9873 98.7582V101.878C73.7625 101.916 74.464 102.027 75.0547 102.287C75.6454 102.51 76.1622 102.844 76.5683 103.253C76.9744 103.661 77.2698 104.144 77.4913 104.739C77.7128 105.296 77.8235 105.927 77.8235 106.67ZM75.35 106.781C75.35 105.927 75.1654 105.221 74.7962 104.701C74.4271 104.181 73.8364 103.884 73.0242 103.81V109.642C73.7625 109.567 74.3532 109.307 74.7593 108.824C75.1654 108.379 75.35 107.673 75.35 106.781ZM70.6245 103.81C69.8861 103.884 69.2954 104.144 68.8894 104.59C68.4833 105.073 68.2987 105.779 68.2987 106.707C68.2987 107.116 68.3356 107.524 68.4463 107.859C68.5202 108.193 68.6678 108.49 68.8524 108.75C69.037 109.01 69.2954 109.196 69.5908 109.344C69.8861 109.493 70.2553 109.604 70.6614 109.642V103.81H70.6245ZM86.9423 111.09C86.9423 111.165 86.9054 111.239 86.8316 111.313C86.7577 111.35 86.6839 111.387 86.5362 111.425C86.3885 111.462 86.204 111.462 85.9455 111.462C85.6502 111.462 85.4656 111.462 85.3179 111.425C85.1702 111.387 85.0964 111.35 85.0226 111.313C84.9857 111.276 84.9487 111.202 84.9487 111.09V110.422C84.6165 110.793 84.2104 111.09 83.7304 111.313C83.2874 111.536 82.7706 111.647 82.2168 111.647C81.7738 111.647 81.3308 111.573 80.9616 111.462C80.5924 111.35 80.2601 111.165 79.9648 110.942C79.6694 110.719 79.4849 110.422 79.3003 110.05C79.1526 109.716 79.0788 109.307 79.0788 108.824C79.0788 108.304 79.1895 107.896 79.3741 107.524C79.5587 107.153 79.854 106.856 80.2601 106.596C80.6293 106.373 81.1462 106.187 81.6999 106.076C82.2906 105.964 82.9552 105.89 83.6935 105.89H84.5426V105.37C84.5426 105.11 84.5057 104.85 84.4688 104.664C84.4319 104.441 84.3211 104.293 84.2104 104.144C84.0996 103.996 83.915 103.921 83.7304 103.847C83.5089 103.773 83.2505 103.736 82.9552 103.736C82.5491 103.736 82.1799 103.773 81.8845 103.884C81.5523 103.958 81.2938 104.07 81.0354 104.181C80.777 104.293 80.5924 104.404 80.4447 104.479C80.2971 104.553 80.1494 104.627 80.0386 104.627C79.9648 104.627 79.891 104.59 79.854 104.553C79.8171 104.516 79.7433 104.441 79.7064 104.367C79.6694 104.293 79.6325 104.181 79.6325 104.07C79.5956 103.958 79.5956 103.81 79.5956 103.661C79.5956 103.476 79.5956 103.29 79.6325 103.178C79.6694 103.067 79.7433 102.956 79.8171 102.881C79.891 102.77 80.0755 102.696 80.2971 102.584C80.5186 102.473 80.777 102.361 81.0723 102.287C81.3677 102.176 81.6999 102.101 82.0691 102.064C82.4383 101.99 82.8075 101.99 83.1767 101.99C83.8412 101.99 84.4319 102.064 84.9118 102.176C85.3918 102.324 85.7609 102.51 86.0932 102.77C86.3885 103.03 86.6101 103.401 86.7577 103.81C86.9054 104.256 86.9792 104.739 86.9792 105.333V111.09H86.9423ZM84.5796 107.376H83.6566C83.2505 107.376 82.9182 107.413 82.6598 107.45C82.4014 107.524 82.1799 107.599 81.9953 107.71C81.8107 107.822 81.6999 107.97 81.6261 108.119C81.5523 108.267 81.5154 108.453 81.5154 108.676C81.5154 109.047 81.6261 109.307 81.8476 109.53C82.0691 109.753 82.4014 109.827 82.8075 109.827C83.1397 109.827 83.472 109.753 83.7304 109.567C84.0258 109.382 84.3211 109.122 84.6165 108.787V107.376H84.5796ZM98.0916 109.493C98.0916 109.642 98.0916 109.79 98.0916 109.902C98.0916 110.013 98.0547 110.125 98.0547 110.199C98.0178 110.273 98.0178 110.347 97.9808 110.422C97.9439 110.496 97.907 110.533 97.8332 110.607C97.7593 110.682 97.6117 110.793 97.4271 110.905C97.2425 111.016 96.9841 111.127 96.6887 111.239C96.3934 111.35 96.0611 111.425 95.6919 111.499C95.3227 111.573 94.9166 111.61 94.4736 111.61C93.6245 111.61 92.8492 111.462 92.1847 111.202C91.4832 110.942 90.9295 110.533 90.4495 110.013C89.9696 109.493 89.6004 108.824 89.342 108.044C89.0836 107.264 88.9728 106.336 88.9728 105.296C88.9728 104.219 89.1205 103.29 89.3789 102.473C89.6743 101.656 90.0434 100.95 90.5603 100.393C91.0771 99.8354 91.6678 99.3897 92.3693 99.1297C93.0707 98.8325 93.846 98.6839 94.6951 98.6839C95.0274 98.6839 95.3597 98.7211 95.6919 98.7582C96.0242 98.8325 96.3195 98.9068 96.578 98.9811C96.8364 99.0554 97.0948 99.1668 97.3163 99.3154C97.5378 99.4268 97.6855 99.5383 97.7593 99.6126C97.8332 99.6869 97.907 99.7611 97.9439 99.8354C97.9808 99.9097 98.0178 99.984 98.0178 100.058C98.0547 100.133 98.0547 100.244 98.0547 100.393C98.0547 100.504 98.0547 100.653 98.0547 100.838C98.0547 101.024 98.0547 101.21 98.0547 101.321C98.0547 101.47 98.0178 101.581 97.9808 101.656C97.9439 101.73 97.907 101.804 97.8701 101.841C97.8332 101.878 97.7593 101.916 97.7224 101.916C97.6117 101.916 97.5009 101.841 97.3532 101.73C97.2056 101.618 97.021 101.507 96.7626 101.358C96.541 101.21 96.2457 101.098 95.9134 100.987C95.5812 100.875 95.212 100.801 94.769 100.801C94.289 100.801 93.846 100.913 93.4399 101.098C93.0338 101.284 92.7385 101.581 92.4431 101.953C92.1847 102.324 91.9632 102.77 91.8155 103.327C91.6678 103.847 91.594 104.479 91.594 105.147C91.594 105.89 91.6678 106.521 91.8155 107.042C91.9632 107.562 92.1847 108.007 92.4431 108.379C92.7385 108.713 93.0707 108.973 93.4399 109.159C93.846 109.344 94.289 109.419 94.769 109.419C95.212 109.419 95.6181 109.382 95.9134 109.27C96.2457 109.159 96.541 109.047 96.7626 108.899C96.9841 108.787 97.2056 108.639 97.3532 108.564C97.5009 108.453 97.6117 108.416 97.7224 108.416C97.7963 108.416 97.8332 108.416 97.8701 108.453C97.907 108.49 97.9439 108.527 97.9808 108.602C98.0178 108.676 98.0178 108.787 98.0547 108.936C98.0916 109.047 98.0916 109.233 98.0916 109.493ZM106.14 103.178C106.14 103.401 106.14 103.55 106.103 103.698C106.103 103.847 106.066 103.958 106.029 104.033C105.992 104.107 105.955 104.181 105.918 104.219C105.881 104.256 105.807 104.256 105.771 104.256H103.629V111.016C103.629 111.09 103.592 111.127 103.555 111.202C103.519 111.239 103.445 111.276 103.371 111.313C103.297 111.35 103.149 111.387 103.002 111.387C102.854 111.387 102.633 111.425 102.411 111.425C102.19 111.425 102.005 111.425 101.82 111.387C101.673 111.387 101.562 111.35 101.451 111.313C101.377 111.276 101.303 111.239 101.267 111.202C101.23 111.165 101.23 111.09 101.23 111.016V104.256H99.0884C99.0145 104.256 98.9776 104.219 98.9038 104.219C98.8669 104.181 98.83 104.107 98.793 104.033C98.7561 103.958 98.7192 103.847 98.7192 103.698C98.7192 103.55 98.6823 103.364 98.6823 103.141C98.6823 102.956 98.6823 102.77 98.7192 102.658C98.7561 102.51 98.7561 102.436 98.793 102.324C98.83 102.25 98.8669 102.176 98.9038 102.138C98.9407 102.101 99.0145 102.064 99.0515 102.064H105.771C105.844 102.064 105.881 102.101 105.918 102.138C105.955 102.176 105.992 102.213 106.029 102.324C106.066 102.398 106.103 102.51 106.103 102.658C106.103 102.807 106.14 102.993 106.14 103.178ZM116.034 106.633C116.034 107.413 115.96 108.082 115.775 108.713C115.628 109.344 115.369 109.865 115.074 110.273C114.742 110.719 114.372 111.053 113.893 111.276C113.413 111.499 112.896 111.61 112.305 111.61C112.047 111.61 111.825 111.573 111.604 111.536C111.382 111.499 111.198 111.425 111.013 111.313C110.828 111.202 110.644 111.09 110.422 110.942C110.238 110.793 110.016 110.607 109.832 110.422V114.47C109.832 114.545 109.832 114.582 109.758 114.656C109.721 114.693 109.647 114.768 109.573 114.805C109.462 114.842 109.352 114.879 109.204 114.879C109.056 114.916 108.872 114.916 108.613 114.916C108.392 114.916 108.17 114.916 108.023 114.879C107.875 114.842 107.727 114.842 107.653 114.805C107.543 114.768 107.506 114.73 107.469 114.656C107.432 114.619 107.395 114.545 107.395 114.47V102.436C107.395 102.361 107.395 102.324 107.432 102.25C107.469 102.213 107.506 102.176 107.616 102.138C107.69 102.101 107.801 102.064 107.949 102.064C108.096 102.064 108.244 102.027 108.429 102.027C108.613 102.027 108.798 102.027 108.909 102.064C109.056 102.064 109.13 102.101 109.241 102.138C109.315 102.176 109.389 102.213 109.425 102.25C109.462 102.287 109.462 102.361 109.462 102.436V103.438C109.721 103.178 109.942 102.956 110.201 102.77C110.459 102.584 110.681 102.398 110.939 102.287C111.198 102.138 111.456 102.064 111.714 101.99C111.973 101.916 112.268 101.878 112.564 101.878C113.191 101.878 113.708 101.99 114.151 102.25C114.594 102.51 114.963 102.844 115.222 103.253C115.517 103.698 115.702 104.181 115.812 104.776C115.96 105.37 116.034 105.964 116.034 106.633ZM113.523 106.781C113.523 106.41 113.486 106.076 113.45 105.741C113.413 105.407 113.302 105.11 113.154 104.85C113.007 104.59 112.859 104.367 112.637 104.219C112.416 104.07 112.157 103.996 111.825 103.996C111.677 103.996 111.493 104.033 111.345 104.07C111.198 104.107 111.013 104.181 110.865 104.293C110.718 104.404 110.533 104.553 110.348 104.701C110.164 104.887 109.979 105.073 109.795 105.333V108.156C110.127 108.602 110.459 108.936 110.755 109.159C111.05 109.382 111.382 109.493 111.714 109.493C112.047 109.493 112.305 109.419 112.527 109.27C112.748 109.122 112.933 108.899 113.08 108.639C113.228 108.379 113.339 108.082 113.413 107.747C113.486 107.45 113.523 107.116 113.523 106.781ZM126.629 106.633C126.629 107.376 126.519 108.044 126.334 108.639C126.149 109.233 125.854 109.753 125.448 110.199C125.042 110.645 124.562 110.979 123.971 111.202C123.381 111.425 122.679 111.573 121.904 111.573C121.129 111.573 120.464 111.462 119.91 111.239C119.356 111.016 118.877 110.719 118.507 110.31C118.138 109.902 117.88 109.419 117.695 108.824C117.511 108.23 117.437 107.562 117.437 106.781C117.437 106.039 117.547 105.37 117.732 104.776C117.917 104.181 118.212 103.661 118.618 103.216C119.024 102.77 119.504 102.436 120.095 102.213C120.685 101.99 121.35 101.841 122.162 101.841C122.938 101.841 123.602 101.953 124.156 102.138C124.71 102.361 125.19 102.658 125.559 103.067C125.928 103.476 126.186 103.958 126.371 104.553C126.519 105.221 126.629 105.89 126.629 106.633ZM124.156 106.744C124.156 106.336 124.119 105.927 124.045 105.556C123.971 105.184 123.86 104.887 123.713 104.627C123.565 104.367 123.344 104.144 123.085 103.996C122.827 103.847 122.494 103.773 122.088 103.773C121.719 103.773 121.424 103.847 121.165 103.959C120.907 104.107 120.685 104.293 120.501 104.553C120.316 104.813 120.206 105.11 120.095 105.481C120.021 105.853 119.984 106.261 119.984 106.707C119.984 107.116 120.021 107.524 120.095 107.896C120.169 108.267 120.279 108.564 120.427 108.824C120.575 109.084 120.796 109.307 121.055 109.419C121.313 109.567 121.645 109.642 122.051 109.642C122.421 109.642 122.716 109.567 123.011 109.456C123.27 109.307 123.491 109.122 123.676 108.899C123.86 108.639 123.971 108.342 124.045 107.97C124.082 107.599 124.156 107.19 124.156 106.744Z" fill="#185639"/>
<path fill-rule="evenodd" clip-rule="evenodd" d="M137.077 111.091C137.077 111.165 137.04 111.202 137.04 111.239C137.003 111.276 136.929 111.314 136.856 111.351C136.782 111.388 136.634 111.388 136.486 111.425C136.339 111.425 136.154 111.462 135.896 111.462C135.674 111.462 135.49 111.462 135.305 111.425C135.157 111.425 135.01 111.388 134.936 111.351C134.825 111.314 134.751 111.276 134.714 111.239C134.677 111.202 134.641 111.128 134.641 111.091V107.228C134.641 106.968 134.641 106.671 134.677 106.373C134.714 106.076 134.714 105.816 134.751 105.519C134.604 105.779 134.419 106.039 134.234 106.299C134.05 106.559 133.865 106.819 133.681 107.079L130.801 111.016C130.727 111.091 130.69 111.165 130.653 111.202C130.616 111.239 130.543 111.276 130.469 111.314C130.395 111.351 130.284 111.351 130.173 111.351C130.063 111.351 129.878 111.351 129.693 111.351C129.472 111.351 129.287 111.351 129.14 111.314C128.992 111.314 128.881 111.276 128.807 111.239C128.734 111.202 128.66 111.165 128.623 111.128C128.586 111.091 128.586 111.016 128.586 110.942V102.287C128.586 102.213 128.623 102.176 128.623 102.139C128.66 102.102 128.734 102.065 128.807 102.027C128.881 101.99 129.029 101.953 129.177 101.953C129.324 101.953 129.509 101.916 129.767 101.916C130.21 101.916 130.543 101.953 130.727 102.027C130.912 102.102 131.023 102.176 131.023 102.325V106.15C131.023 106.41 131.023 106.671 130.986 106.968C130.949 107.265 130.949 107.525 130.912 107.785C131.059 107.525 131.207 107.265 131.392 107.005C131.539 106.745 131.724 106.522 131.909 106.262L134.825 102.287C134.862 102.213 134.936 102.176 134.973 102.102C135.047 102.065 135.12 102.027 135.194 101.99C135.268 101.953 135.379 101.953 135.527 101.916C135.637 101.916 135.822 101.879 136.006 101.879C136.228 101.879 136.413 101.879 136.56 101.916C136.708 101.916 136.819 101.953 136.893 101.99C136.966 102.027 137.04 102.065 137.077 102.102C137.114 102.139 137.114 102.213 137.114 102.287V111.091H137.077ZM136.339 98.313C136.339 98.6844 136.265 99.0558 136.154 99.3901C136.043 99.7244 135.822 100.022 135.563 100.282C135.305 100.542 134.936 100.727 134.493 100.876C134.05 101.025 133.496 101.099 132.868 101.099C132.241 101.099 131.724 101.025 131.281 100.913C130.838 100.765 130.469 100.579 130.21 100.356C129.915 100.133 129.73 99.8359 129.62 99.4644C129.509 99.1301 129.435 98.7587 129.435 98.313C129.435 98.2015 129.435 98.1272 129.472 98.0901C129.509 98.0158 129.583 97.9787 129.657 97.9415C129.73 97.9044 129.841 97.8672 129.989 97.8672C130.137 97.8672 130.321 97.8301 130.543 97.8301C130.764 97.8301 130.912 97.8301 131.059 97.8672C131.207 97.9044 131.281 97.9044 131.355 97.9415C131.429 97.9787 131.466 98.0529 131.502 98.0901C131.539 98.1644 131.539 98.2387 131.539 98.313C131.539 98.4987 131.576 98.6473 131.613 98.7958C131.687 98.9444 131.761 99.0558 131.872 99.1673C131.982 99.2787 132.13 99.353 132.315 99.4273C132.499 99.5016 132.684 99.5016 132.905 99.5016C133.127 99.5016 133.311 99.4644 133.459 99.4273C133.644 99.353 133.754 99.2787 133.902 99.1673C134.013 99.0558 134.124 98.9444 134.161 98.7587C134.234 98.6101 134.234 98.4244 134.234 98.2758C134.234 98.2015 134.234 98.1272 134.271 98.0901C134.308 98.0158 134.345 97.9787 134.419 97.9415C134.493 97.9044 134.604 97.8672 134.714 97.8672C134.825 97.8672 135.01 97.8301 135.194 97.8301C135.416 97.8301 135.6 97.8301 135.785 97.8672C135.933 97.8672 136.043 97.9044 136.154 97.9415C136.228 97.9787 136.302 98.0158 136.339 98.0901C136.339 98.1644 136.339 98.2387 136.339 98.313ZM149.74 111.054C149.74 111.128 149.703 111.165 149.666 111.239C149.629 111.276 149.555 111.314 149.445 111.351C149.334 111.388 149.223 111.425 149.039 111.425C148.891 111.425 148.669 111.462 148.448 111.462C148.189 111.462 148.005 111.462 147.82 111.425C147.673 111.425 147.525 111.388 147.451 111.351C147.377 111.314 147.303 111.276 147.267 111.239C147.23 111.202 147.193 111.128 147.193 111.054V104.479C147.193 104.219 147.193 103.996 147.193 103.736C147.193 103.513 147.193 103.29 147.23 103.105H147.193C147.156 103.179 147.082 103.29 147.008 103.439C146.934 103.55 146.86 103.699 146.787 103.81C146.713 103.959 146.639 104.07 146.528 104.219C146.454 104.368 146.344 104.479 146.27 104.628L141.95 111.091C141.913 111.165 141.84 111.239 141.803 111.276C141.766 111.314 141.692 111.351 141.581 111.388C141.507 111.425 141.397 111.425 141.249 111.425C141.138 111.425 140.954 111.425 140.769 111.425C140.51 111.425 140.326 111.425 140.178 111.388C140.031 111.388 139.92 111.351 139.809 111.314C139.735 111.276 139.661 111.239 139.624 111.202C139.588 111.165 139.588 111.091 139.588 111.016V99.2044C139.588 99.1301 139.624 99.093 139.661 99.0187C139.698 98.9816 139.772 98.9444 139.883 98.9073C139.994 98.8701 140.104 98.833 140.252 98.833C140.4 98.833 140.621 98.7958 140.843 98.7958C141.101 98.7958 141.286 98.7958 141.47 98.833C141.618 98.833 141.766 98.8701 141.84 98.9073C141.95 98.9444 141.987 98.9816 142.061 99.0187C142.098 99.0558 142.135 99.1301 142.135 99.2044V105.816C142.135 106.039 142.135 106.225 142.135 106.485C142.135 106.708 142.135 106.931 142.098 107.153H142.135C142.246 106.968 142.393 106.745 142.541 106.448C142.726 106.188 142.873 105.928 143.058 105.668L147.377 99.2044C147.414 99.1301 147.488 99.093 147.525 99.0187C147.562 98.9816 147.636 98.9444 147.746 98.9073C147.82 98.8701 147.931 98.8701 148.079 98.833C148.189 98.833 148.374 98.7958 148.559 98.7958C148.817 98.7958 149.002 98.7958 149.149 98.833C149.297 98.833 149.408 98.8701 149.519 98.9073C149.592 98.9444 149.666 98.9816 149.703 99.0187C149.74 99.0558 149.74 99.1301 149.74 99.2044V111.054ZM160.557 111.054C160.557 111.128 160.557 111.165 160.483 111.239C160.446 111.276 160.372 111.314 160.299 111.351C160.225 111.388 160.077 111.425 159.929 111.425C159.782 111.425 159.597 111.462 159.339 111.462C159.117 111.462 158.896 111.462 158.748 111.425C158.6 111.425 158.453 111.388 158.379 111.351C158.305 111.314 158.231 111.276 158.194 111.239C158.157 111.202 158.12 111.128 158.12 111.054V107.673H154.687V111.054C154.687 111.128 154.687 111.165 154.613 111.239C154.576 111.276 154.502 111.314 154.429 111.351C154.318 111.388 154.207 111.425 154.059 111.425C153.912 111.425 153.727 111.462 153.469 111.462C153.247 111.462 153.026 111.462 152.878 111.425C152.73 111.425 152.583 111.388 152.509 111.351C152.398 111.314 152.361 111.276 152.324 111.239C152.287 111.202 152.25 111.128 152.25 111.054V102.436C152.25 102.362 152.287 102.325 152.324 102.25C152.361 102.213 152.435 102.176 152.509 102.139C152.583 102.102 152.73 102.065 152.878 102.065C153.026 102.065 153.21 102.027 153.469 102.027C153.69 102.027 153.912 102.027 154.059 102.065C154.207 102.065 154.318 102.102 154.429 102.139C154.502 102.176 154.576 102.213 154.613 102.25C154.65 102.287 154.687 102.362 154.687 102.436V105.668H158.157V102.436C158.157 102.362 158.194 102.325 158.231 102.25C158.268 102.213 158.342 102.176 158.416 102.139C158.49 102.102 158.637 102.065 158.785 102.065C158.933 102.065 159.154 102.027 159.376 102.027C159.597 102.027 159.819 102.027 159.966 102.065C160.114 102.065 160.262 102.102 160.336 102.139C160.409 102.176 160.483 102.213 160.52 102.25C160.557 102.287 160.594 102.362 160.594 102.436V111.054H160.557ZM170.857 108.528C170.857 109.011 170.783 109.456 170.599 109.828C170.414 110.199 170.156 110.496 169.787 110.756C169.417 111.016 168.937 111.202 168.384 111.314C167.83 111.425 167.165 111.499 166.427 111.499C166.169 111.499 165.947 111.499 165.726 111.499C165.504 111.499 165.319 111.499 165.098 111.499C164.913 111.499 164.692 111.499 164.507 111.462C164.323 111.462 164.101 111.425 163.843 111.388C163.547 111.351 163.326 111.276 163.215 111.128C163.104 110.979 163.031 110.756 163.031 110.422V102.993C163.031 102.696 163.104 102.473 163.215 102.325C163.326 102.176 163.511 102.102 163.769 102.065C163.917 102.065 164.101 102.027 164.323 102.027C164.544 102.027 164.766 101.99 164.987 101.99C165.246 101.99 165.467 101.953 165.726 101.953C165.984 101.953 166.242 101.953 166.538 101.953C167.239 101.953 167.83 101.99 168.31 102.102C168.79 102.213 169.196 102.362 169.528 102.547C169.86 102.733 170.082 102.993 170.267 103.29C170.414 103.587 170.488 103.922 170.488 104.293C170.488 104.813 170.34 105.259 170.082 105.593C169.787 105.928 169.417 106.188 168.901 106.299C169.528 106.41 170.045 106.671 170.377 107.042C170.71 107.413 170.857 107.896 170.857 108.528ZM168.236 104.702C168.236 104.516 168.199 104.368 168.162 104.219C168.088 104.07 168.015 103.959 167.867 103.885C167.719 103.81 167.535 103.736 167.35 103.662C167.128 103.625 166.87 103.588 166.538 103.588C166.279 103.588 166.058 103.587 165.836 103.625C165.615 103.625 165.43 103.662 165.283 103.662V105.816H166.575C167.128 105.816 167.535 105.705 167.83 105.519C168.088 105.37 168.236 105.073 168.236 104.702ZM168.458 108.491C168.458 108.268 168.421 108.119 168.347 107.933C168.273 107.785 168.162 107.636 168.015 107.562C167.867 107.451 167.645 107.376 167.387 107.339C167.128 107.302 166.833 107.265 166.464 107.265H165.209V109.754C165.319 109.754 165.43 109.791 165.541 109.791C165.652 109.791 165.763 109.791 165.873 109.828C165.984 109.828 166.095 109.828 166.206 109.828C166.316 109.828 166.427 109.828 166.501 109.828C166.833 109.828 167.128 109.791 167.387 109.754C167.645 109.679 167.83 109.605 167.978 109.494C168.125 109.382 168.236 109.233 168.31 109.085C168.421 108.899 168.458 108.713 168.458 108.491ZM180.641 106.485C180.641 106.782 180.567 107.005 180.456 107.153C180.308 107.302 180.161 107.376 179.902 107.376H174.697C174.697 107.748 174.734 108.082 174.807 108.379C174.881 108.676 175.029 108.936 175.214 109.159C175.398 109.382 175.657 109.531 175.952 109.642C176.247 109.754 176.616 109.791 177.023 109.791C177.429 109.791 177.798 109.754 178.13 109.716C178.462 109.642 178.721 109.605 178.979 109.494C179.201 109.419 179.422 109.345 179.57 109.308C179.718 109.233 179.865 109.233 179.939 109.233C180.013 109.233 180.05 109.233 180.087 109.271C180.124 109.308 180.161 109.345 180.198 109.382C180.234 109.456 180.234 109.531 180.234 109.642C180.234 109.754 180.234 109.865 180.234 110.051C180.234 110.199 180.234 110.311 180.234 110.422C180.234 110.534 180.234 110.608 180.198 110.682C180.198 110.756 180.161 110.794 180.124 110.868C180.087 110.905 180.05 110.979 180.013 111.016C179.976 111.054 179.865 111.128 179.681 111.202C179.496 111.276 179.275 111.351 178.979 111.425C178.684 111.499 178.352 111.574 177.982 111.611C177.613 111.685 177.207 111.685 176.801 111.685C176.026 111.685 175.361 111.574 174.807 111.388C174.254 111.202 173.774 110.905 173.368 110.496C172.998 110.088 172.703 109.605 172.519 109.011C172.334 108.416 172.223 107.711 172.223 106.893C172.223 106.113 172.334 105.445 172.519 104.813C172.703 104.182 172.998 103.662 173.368 103.253C173.737 102.807 174.217 102.51 174.734 102.287C175.287 102.065 175.878 101.953 176.543 101.953C177.244 101.953 177.872 102.065 178.389 102.287C178.905 102.51 179.311 102.807 179.644 103.179C179.976 103.55 180.198 103.996 180.382 104.516C180.53 105.036 180.604 105.593 180.604 106.188V106.485H180.641ZM178.278 105.779C178.315 105.11 178.167 104.553 177.872 104.182C177.576 103.81 177.133 103.588 176.506 103.588C176.21 103.588 175.915 103.662 175.693 103.773C175.472 103.885 175.287 104.033 175.14 104.256C174.992 104.442 174.881 104.702 174.807 104.962C174.734 105.222 174.697 105.519 174.66 105.816H178.278V105.779ZM189.095 109.679C189.095 109.865 189.095 109.976 189.095 110.088C189.095 110.199 189.058 110.311 189.058 110.385C189.058 110.459 189.021 110.534 188.984 110.571C188.947 110.608 188.91 110.682 188.836 110.756C188.763 110.831 188.615 110.905 188.43 111.016C188.246 111.128 188.024 111.202 187.803 111.314C187.581 111.388 187.323 111.462 187.027 111.499C186.732 111.536 186.474 111.574 186.178 111.574C185.514 111.574 184.923 111.462 184.443 111.276C183.926 111.054 183.52 110.756 183.151 110.348C182.819 109.939 182.56 109.456 182.376 108.862C182.191 108.268 182.117 107.636 182.117 106.893C182.117 106.039 182.228 105.296 182.45 104.665C182.671 104.033 182.966 103.513 183.336 103.105C183.705 102.696 184.185 102.399 184.702 102.176C185.218 101.99 185.809 101.879 186.437 101.879C186.695 101.879 186.954 101.916 187.175 101.953C187.433 101.99 187.655 102.065 187.876 102.139C188.098 102.213 188.283 102.287 188.467 102.399C188.652 102.51 188.763 102.585 188.836 102.659C188.91 102.733 188.947 102.807 188.984 102.845C189.021 102.882 189.021 102.956 189.058 103.03C189.058 103.105 189.095 103.216 189.095 103.327C189.095 103.439 189.095 103.587 189.095 103.736C189.095 104.108 189.058 104.368 188.984 104.516C188.91 104.665 188.836 104.739 188.726 104.739C188.615 104.739 188.504 104.702 188.393 104.59C188.283 104.516 188.135 104.405 187.95 104.293C187.766 104.182 187.581 104.07 187.36 103.996C187.138 103.922 186.843 103.848 186.547 103.848C185.92 103.848 185.44 104.07 185.108 104.59C184.775 105.073 184.628 105.779 184.628 106.745C184.628 107.191 184.665 107.599 184.738 107.971C184.812 108.305 184.96 108.602 185.108 108.862C185.255 109.085 185.477 109.271 185.735 109.382C185.994 109.493 186.252 109.568 186.584 109.568C186.917 109.568 187.212 109.531 187.433 109.419C187.655 109.308 187.876 109.196 188.061 109.085C188.246 108.973 188.393 108.862 188.504 108.751C188.615 108.639 188.726 108.602 188.799 108.602C188.873 108.602 188.91 108.602 188.947 108.639C188.984 108.676 189.021 108.713 189.021 108.825C189.058 108.899 189.058 109.011 189.058 109.159C189.095 109.271 189.095 109.456 189.095 109.679ZM197.18 103.179C197.18 103.402 197.18 103.55 197.143 103.699C197.143 103.848 197.106 103.959 197.069 104.033C197.032 104.108 196.995 104.182 196.958 104.219C196.921 104.256 196.848 104.256 196.811 104.256H194.669V111.016C194.669 111.091 194.632 111.128 194.596 111.202C194.559 111.239 194.485 111.276 194.411 111.314C194.337 111.351 194.189 111.388 194.042 111.388C193.894 111.388 193.673 111.425 193.451 111.425C193.23 111.425 193.045 111.425 192.86 111.388C192.676 111.351 192.602 111.351 192.491 111.314C192.417 111.276 192.344 111.239 192.307 111.202C192.27 111.165 192.27 111.091 192.27 111.016V104.256H190.128C190.055 104.256 190.018 104.219 189.944 104.219C189.907 104.182 189.87 104.108 189.833 104.033C189.796 103.959 189.759 103.848 189.759 103.699C189.759 103.55 189.722 103.365 189.722 103.142C189.722 102.956 189.722 102.77 189.759 102.659C189.796 102.51 189.796 102.436 189.833 102.325C189.87 102.25 189.907 102.176 189.944 102.139C189.981 102.102 190.055 102.065 190.092 102.065H196.811C196.884 102.065 196.921 102.102 196.958 102.139C196.995 102.176 197.032 102.213 197.069 102.325C197.106 102.399 197.143 102.51 197.143 102.659C197.18 102.807 197.18 102.993 197.18 103.179ZM204.785 110.236C204.748 110.311 204.711 110.348 204.674 110.385C204.637 110.422 204.563 110.459 204.49 110.496C204.416 110.534 204.305 110.534 204.194 110.534C204.084 110.534 203.936 110.571 203.751 110.571C203.53 110.571 203.308 110.571 203.198 110.534C203.05 110.496 202.939 110.459 202.865 110.422C202.791 110.385 202.754 110.311 202.754 110.236C202.754 110.162 202.754 110.088 202.791 110.014L204.674 106.41L202.754 102.696C202.718 102.622 202.681 102.547 202.681 102.473C202.681 102.399 202.718 102.362 202.791 102.287C202.865 102.25 202.976 102.213 203.087 102.176C203.234 102.139 203.419 102.139 203.677 102.139C203.862 102.139 204.01 102.139 204.12 102.176C204.231 102.176 204.342 102.213 204.416 102.213C204.49 102.25 204.563 102.287 204.6 102.325C204.637 102.362 204.674 102.399 204.711 102.473L206.852 106.002C206.926 106.15 206.963 106.262 206.963 106.41C206.963 106.559 206.889 106.708 206.815 106.893L204.785 110.236ZM200.909 110.014C200.872 110.088 200.835 110.125 200.798 110.162C200.761 110.199 200.687 110.236 200.613 110.236C200.539 110.274 200.429 110.274 200.318 110.274C200.207 110.274 200.059 110.274 199.875 110.274C199.653 110.274 199.432 110.274 199.321 110.236C199.173 110.199 199.063 110.199 198.989 110.162C198.915 110.125 198.878 110.051 198.878 110.014C198.878 109.939 198.878 109.865 198.952 109.791L200.761 106.373L198.804 102.807C198.767 102.733 198.73 102.659 198.73 102.622C198.73 102.585 198.767 102.51 198.841 102.473C198.915 102.436 199.026 102.399 199.173 102.399C199.321 102.362 199.506 102.362 199.727 102.362C199.912 102.362 200.059 102.362 200.17 102.362C200.281 102.362 200.392 102.399 200.466 102.399C200.539 102.436 200.613 102.436 200.65 102.473C200.687 102.51 200.724 102.547 200.761 102.585L202.865 105.928C202.939 106.039 202.976 106.188 202.976 106.336C202.976 106.485 202.902 106.633 202.828 106.782L200.909 110.014Z" fill="#185639"/>
</g>
<defs>
<clipPath id="clip0">
<rect width="207" height="115" fill="white"/>
</clipPath>
</defs>
</svg>
