<svg width="131" height="70" viewBox="0 0 131 70" fill="none" xmlns="http://www.w3.org/2000/svg">
<path d="M124.22 32.7402C122.254 32.7402 120.411 31.7521 119.12 29.9551C118.149 28.6038 117.551 27.1797 117.323 25.6031C116.911 26.2546 116.579 26.7462 116.386 27.0175C114.642 29.4393 111.82 31.5002 109.135 30.0254C106.832 28.7612 106.083 25.5377 107.355 22.3579L107.708 21.4715C107.8 21.239 108.064 21.1252 108.299 21.2196L110.07 21.9268C110.302 22.0188 110.416 22.2828 110.321 22.5177L109.968 23.4041C109.186 25.3634 109.629 27.0853 110.488 27.5575C111.377 28.0443 112.794 27.187 114.099 25.373C114.392 24.9662 114.949 24.1113 115.613 23.0166C111.67 21.7452 110.099 18.9407 110.35 16.4196C110.67 13.2276 113.959 9.95088 120.43 10.3117C121.394 10.365 122.171 10.8663 122.564 11.6873C122.987 12.5713 123.198 14.0874 121.488 17.9598L121.513 17.9695C119.122 23.8594 120.047 26.4217 121.406 28.3131C122.641 30.035 124.116 30.0157 124.886 29.8534C126.189 29.5773 127.235 28.5602 127.492 27.3202C127.841 25.6394 126.761 23.8085 124.453 22.169L124.121 21.9316C123.951 21.8105 123.886 21.5877 123.966 21.394L124.722 19.5776C124.833 19.3112 125.16 19.2168 125.395 19.3839L126.085 19.8731C129.313 22.1665 130.832 25.0897 130.253 27.8917C129.773 30.207 127.853 32.1033 125.475 32.6094C125.051 32.6966 124.634 32.7402 124.22 32.7402ZM119.519 13.1017C115.565 13.1017 113.337 14.8526 113.152 16.6981C113.01 18.1318 114.184 19.7714 117.066 20.5028C117.33 20.0232 117.594 19.5316 117.848 19.0376C119.81 15.228 120.04 13.6442 120.04 13.1114C119.863 13.1041 119.689 13.1017 119.519 13.1017Z" fill="white"/>
<path d="M5.97236 32.7039C4.83652 32.7039 3.96224 32.4206 3.43187 32.1833C1.24496 31.2073 -0.130634 28.9574 0.00983201 26.5889C0.164829 23.9588 2.08533 21.8179 5.14651 20.8612L6.0886 20.5682C6.31141 20.498 6.54633 20.6239 6.61656 20.8443L7.20506 22.7285C7.2753 22.9513 7.15178 23.1862 6.92898 23.2564L5.98689 23.5495C4.06154 24.1501 2.90875 25.3174 2.82399 26.7535C2.75376 27.962 3.46093 29.11 4.58465 29.6113C6.40586 30.425 8.83495 29.495 11.2543 27.0563C15.8219 22.4548 16.4976 15.7318 14.9573 13.1259C13.9741 11.4622 12.7365 10.6 11.4505 10.692C10.4091 10.7695 9.4065 11.5009 9.01416 12.4696C8.80104 13 8.69448 13.7968 9.40166 14.5936L10.0677 15.3395C10.2178 15.5066 10.2033 15.7657 10.0338 15.9159L8.53949 17.2455C8.37238 17.3956 8.11325 17.3811 7.96309 17.2116L7.29467 16.4681C6.03048 15.0465 5.69627 13.1599 6.3986 11.4161C7.18811 9.46173 9.13283 8.04254 11.235 7.88513C12.6227 7.78099 15.2721 8.13699 17.3743 11.6922C19.6847 15.601 18.5586 23.6875 13.2475 29.0397C10.3583 31.9556 7.81778 32.7039 5.97236 32.7039Z" fill="white"/>
<path d="M21.9444 30.4567C20.8788 30.4567 19.8422 30.1806 18.8977 29.6284C15.0446 27.381 13.2985 20.8106 17.6505 13.0607C20.84 7.37671 24.3493 7.24836 25.7055 7.45663C27.517 7.73272 28.9217 9.01628 29.2825 10.7237C29.6506 12.4698 28.8611 14.2014 27.1634 15.4172C26.9987 15.5358 26.7687 15.4947 26.6597 15.3251L25.5166 13.5354C25.4197 13.3828 25.4536 13.1818 25.5989 13.0728C26.3182 12.5352 26.6524 11.9031 26.5265 11.3073C26.4102 10.7576 25.921 10.341 25.2792 10.2417C24.0272 10.0504 22.0074 11.053 20.1038 14.4412C17.4761 19.1201 16.8392 25.1723 20.3145 27.1993C22.4578 28.449 25.192 27.0274 27.2797 23.5763L28.0086 22.3726L30.4159 23.8306L29.6869 25.0342C28.2193 27.456 26.4126 29.1561 24.4631 29.9481C23.6276 30.2896 22.7775 30.4567 21.9444 30.4567Z" fill="white"/>
<path d="M58.9254 29.9093C58.5452 29.9093 58.1625 29.8609 57.7799 29.7591C55.3096 29.1101 53.7136 26.3928 53.8977 23.1524C54.1786 18.1925 57.4989 14.2958 61.4538 14.2837C61.4586 14.2837 61.4635 14.2837 61.4683 14.2837C62.9602 14.2837 64.9267 15.0296 65.9681 16.6958C67.1717 18.6236 66.9707 21.2489 65.3699 24.5014C63.6625 27.9694 61.3157 29.9093 58.9254 29.9093ZM56.7094 23.3098C56.5908 25.4144 57.5183 26.7779 58.4967 27.0346C59.836 27.3882 61.541 25.9036 62.8439 23.2566C63.9531 21.0018 64.2147 19.2024 63.5801 18.1853C63.0207 17.2916 61.8703 17.0954 61.4683 17.0954C61.4659 17.0954 61.4659 17.0954 61.4635 17.0954C59.0368 17.1051 56.9032 19.8926 56.7094 23.3098Z" fill="white"/>
<path d="M42.5321 55.297C42.1519 55.297 41.7692 55.2485 41.3866 55.1468C38.9163 54.4978 37.3203 51.7805 37.5044 48.5401C37.7853 43.5802 41.1056 39.6835 45.0605 39.6714C45.0653 39.6714 45.0702 39.6714 45.075 39.6714C46.5668 39.6714 48.5309 40.4173 49.5747 42.0835C50.7784 44.0113 50.5774 46.6365 48.9766 49.889C47.2692 53.3595 44.9249 55.297 42.5321 55.297ZM40.3161 48.6999C40.1975 50.8045 41.125 52.168 42.1034 52.4247C43.4403 52.7783 45.1477 51.2937 46.4506 48.6466C47.5598 46.3919 47.8213 44.5925 47.1868 43.5754C46.6274 42.6817 45.477 42.4855 45.075 42.4855C45.0726 42.4855 45.0726 42.4855 45.0702 42.4855C42.6435 42.4952 40.5123 45.2827 40.3161 48.6999Z" fill="white"/>
<path d="M32.8086 30.1464C32.4671 30.1464 32.1208 30.1077 31.7769 30.0253C29.2921 29.4417 27.6234 26.768 27.7203 23.5227C27.8705 18.5556 31.0842 14.5741 35.0366 14.4579C35.0827 14.4554 35.1262 14.4554 35.1723 14.4554C36.6471 14.4554 38.5555 15.1529 39.6115 16.7489C40.866 18.6428 40.7352 21.2753 39.2215 24.5665C37.582 28.1387 35.2401 30.1464 32.8086 30.1464ZM35.1626 17.272C35.148 17.272 35.1335 17.272 35.1214 17.272C32.6947 17.3447 30.6386 20.1855 30.5345 23.6075C30.4715 25.7169 31.4354 27.0537 32.4186 27.2838C33.7628 27.5987 35.4314 26.0729 36.6641 23.3919C37.7127 21.1106 37.9259 19.3015 37.2647 18.3037C36.7028 17.4512 35.5961 17.272 35.1626 17.272ZM29.1274 23.5663H29.1298H29.1274Z" fill="white"/>
<path d="M45.2712 29.9987C43.5226 29.9987 41.9533 28.9888 40.8828 27.0707L42.6556 24.4697L43.341 25.6975C44.1886 27.216 45.1864 27.5527 46.5789 26.7898C49.2454 25.3294 51.6115 20.6117 50.2843 18.1439C50.0688 17.7419 49.5723 17.0516 48.6932 16.9475C47.5234 16.8095 46.0292 17.6886 44.4865 19.4202L43.5492 20.4712L42.3819 17.5505C45.1646 14.4264 47.5283 13.9808 49.0201 14.1551C50.5895 14.3392 51.953 15.3079 52.7618 16.8143C53.7717 18.6912 53.6942 21.268 52.5463 23.8787C51.5122 26.2328 49.7879 28.2453 47.9303 29.2625C47.027 29.7565 46.1261 29.9987 45.2712 29.9987Z" fill="white"/>
<path d="M40.3404 36.8598L38.2407 35.9855C38.1099 35.9322 38.0397 35.7894 38.0784 35.6537L38.2915 34.8788C38.3206 34.7722 41.1105 24.5594 43.6849 10.4426C38.3521 12.0264 35.4532 11.9489 34.327 10.2125C33.8717 9.51017 33.4091 7.98685 35.4289 5.69581C37.4294 3.42656 41.7644 0.731072 44.7118 2.15026C46.3175 2.92282 46.8939 4.54302 46.9859 6.27704C57.4191 2.31979 83.2744 -6.94852 109.396 9.07182L109.706 9.26315C109.987 9.4351 110.103 9.78626 109.98 10.0914L109.423 11.4694C109.265 11.8569 108.8 12.0095 108.444 11.7915L107.924 11.4718C82.3953 -4.18523 56.9032 5.51417 47.3056 9.16627C47.1094 9.24135 46.9181 9.31401 46.734 9.38424C44.0627 24.4334 41.0355 35.5133 41.004 35.6247L40.7158 36.6757C40.6746 36.838 40.4954 36.9228 40.3404 36.8598ZM36.79 8.66496C37.272 8.79574 38.9236 8.97495 43.5057 7.55334C43.7019 7.4928 43.9247 7.41772 44.1717 7.33053C44.3025 5.45847 43.806 4.90387 43.6244 4.76583C43.1328 4.39529 41.9848 4.55997 40.6988 5.1848C38.5967 6.20923 37.0491 7.90935 36.79 8.66496Z" fill="white"/>
<path d="M32.7479 55.9125C32.3701 55.9125 32.0262 55.8229 31.7065 55.6461C30.5562 55.014 30.4157 53.5997 30.6724 52.4784C31.1374 50.2067 31.5951 48.09 31.9972 46.2228C32.7407 42.7887 33.5035 39.2552 33.6174 37.6544C31.043 38.3882 24.9739 43.0066 22.5666 53.3405C22.4358 53.9436 22.2905 54.7403 22.2009 55.2441C22.1549 55.4959 21.8909 55.6413 21.6536 55.5444L20.8519 55.215C20.8519 55.2102 20.2102 54.951 19.7888 54.7791C19.5756 54.6919 19.4545 54.4691 19.4933 54.2439C19.5974 53.6384 19.6507 53.4592 19.8202 52.7326C20.0455 51.7034 20.3046 50.5845 20.571 49.4341C21.1958 46.7435 21.903 43.6944 22.2808 41.1999C22.707 38.3882 22.5545 37.2887 22.4358 36.8939C22.2881 36.9496 22.0556 37.061 21.7214 37.2863C19.13 39.0276 18.5221 42.1856 18.5173 42.2171L18.4761 42.4351C18.4325 42.6651 18.1855 42.7959 17.9724 42.7015L16.064 41.8635C15.8751 41.7812 15.7734 41.5777 15.8218 41.3767C16.0834 40.299 17.103 36.9981 20.1544 34.9492C21.702 33.9103 23.0049 33.7407 24.0269 34.4455C25.4171 35.4021 25.6253 37.6132 25.1652 40.9868C25.5745 40.4516 25.9765 39.9721 26.3592 39.5434C28.5654 37.0853 31.1035 35.3803 33.162 34.8863C33.7627 34.7409 36.2547 35.9882 36.3177 36.1868C36.681 37.3129 36.2208 40.0254 34.7508 46.8186C34.3681 48.5938 33.9346 50.5942 33.4963 52.7326C34.2131 52.2846 35.5112 51.282 37.7151 49.0297L38.6983 48.0222L39.7276 50.9962C36.3976 54.4037 34.2906 55.9125 32.7479 55.9125Z" fill="white"/>
<path d="M56.1306 55.6412C55.593 55.6412 55.111 55.4959 54.6727 55.2126C52.9387 54.0913 52.8369 51.202 54.3385 45.8522C54.5734 45.0143 54.8277 44.1933 55.0771 43.4304L49.5723 47.315L47.9497 45.0143L55.7601 39.5022C56.0289 39.3133 56.3752 39.2746 56.6804 39.3981L58.6202 40.1973C58.9109 40.3184 59.0562 40.6477 58.9424 40.9408C58.5888 41.8659 57.838 43.9002 57.1768 46.1719C55.794 50.9284 56.0894 52.442 56.2202 52.8028C56.6465 52.7423 58.4047 52.1756 63.103 47.2908L64.079 46.276L65.1325 49.2428C60.904 53.636 58.1262 55.6412 56.1306 55.6412Z" fill="white"/>
<path d="M69.9157 29.9986C69.6663 29.9986 69.4217 29.9744 69.1819 29.9236C67.6271 29.5966 66.6801 28.2816 66.6511 26.4071C66.6051 23.4936 68.8622 16.79 69.1213 16.0369L69.458 15.0487C69.5209 14.8623 69.7292 14.7678 69.9109 14.8453L71.8822 15.6808C72.0469 15.7511 72.1292 15.9351 72.0711 16.1022L71.7829 16.945C71.1266 18.868 69.4313 24.3074 69.4628 26.3611C69.4652 26.5863 69.5016 27.1118 69.7607 27.1675C70.5793 27.3371 72.9091 26.0898 74.6043 22.4159L75.1929 21.1372L76.302 21.6482L77.1594 23.5929C75.3866 27.4485 72.4441 29.9986 69.9157 29.9986Z" fill="white"/>
<path d="M77.2612 29.999C77.0117 29.999 76.7671 29.9748 76.5273 29.9239C74.9725 29.597 74.0256 28.2819 73.9965 26.4074C73.9505 23.494 76.2077 16.7904 76.4668 16.0372L76.8034 15.0467C76.8664 14.8602 77.0747 14.7682 77.2539 14.8432L79.2301 15.6642C79.3948 15.7321 79.4795 15.9185 79.4214 16.0881L79.1284 16.9478C78.4721 18.8707 76.7768 24.3101 76.8083 26.3638C76.8107 26.5891 76.847 27.1146 77.1062 27.1703C77.9223 27.3398 80.2545 26.0926 81.9498 22.4187L82.5383 21.14L84.5048 23.5981C82.732 27.4488 79.792 29.999 77.2612 29.999Z" fill="white"/>
<path d="M84.6452 29.9987C84.3957 29.9987 84.1511 29.9745 83.9114 29.9236C82.3566 29.5967 81.4096 28.2816 81.3806 26.4072C81.3346 23.4937 83.5917 16.7901 83.8508 16.0369L84.1875 15.0488C84.2504 14.8623 84.4587 14.7703 84.6403 14.8454L86.6141 15.6736C86.7788 15.7439 86.8612 15.9279 86.803 16.0975L86.5124 16.9475C85.8561 18.8704 84.1608 24.3099 84.1947 26.3636C84.1972 26.5888 84.2335 27.1143 84.4926 27.17C85.3088 27.342 87.641 26.0923 89.3363 22.4184L89.9248 21.1397L90.7336 21.5127L91.8937 23.5978C90.1161 27.4461 87.176 29.9987 84.6452 29.9987Z" fill="white"/>
<path d="M93.7682 30.328C92.8358 30.328 91.7121 29.9889 90.6102 28.8119C88.9149 27.0028 88.554 24.0821 89.6487 21.004C90.7361 17.9428 93.3541 14.6467 96.7471 14.1866C97.9628 14.0219 99.5975 14.1866 101.254 15.5113C101.254 15.5113 102.521 15.8649 103.322 16.0877C103.678 16.187 103.887 16.5551 103.79 16.9111C103.681 17.3156 103.581 17.7055 103.489 18.0808L103.238 19.1392C101.646 26.1649 102.964 27.2813 102.981 27.2862C103.608 27.4945 106.047 25.6151 107.355 22.3529L107.711 21.4666C107.805 21.2341 108.069 21.1202 108.302 21.2147L110.072 21.9243C110.304 22.0187 110.418 22.2827 110.324 22.5152L109.968 23.4016C109.222 25.2615 108.035 27.0489 106.713 28.3034C105.1 29.8315 103.456 30.4176 102.08 29.9526C100.637 29.4634 99.83 28.0999 99.6605 25.8283C98.2462 27.9885 96.5678 29.7564 94.7321 30.2093C94.4439 30.2796 94.1194 30.328 93.7682 30.328ZM97.5051 16.9499C97.3792 16.9499 97.2532 16.9595 97.1249 16.9765C95.2649 17.2284 93.2354 19.3208 92.3006 21.9485C91.5668 24.0167 91.7024 25.8622 92.6639 26.889C93.2887 27.555 93.7174 27.5623 94.0564 27.4775C96.0447 26.9883 98.6555 22.4668 100.249 18.4465C99.3844 17.4512 98.4641 16.9499 97.5051 16.9499Z" fill="white"/>
<path d="M104.863 56.8059C104.032 56.8059 103.24 56.4983 102.584 55.9026C101.479 54.8999 100.864 53.1804 100.741 50.8458C99.3046 53.0811 97.5851 54.9338 95.7009 55.3964C94.6571 55.6507 93.0998 55.6192 91.5814 53.999C89.8861 52.1899 89.5252 49.2692 90.6199 46.191C91.7073 43.1299 94.3253 39.8338 97.7183 39.3736C98.9364 39.2089 100.569 39.3736 102.223 40.6984L104.117 41.4733C104.533 41.6429 104.761 42.0933 104.65 42.5293C104.584 42.7811 104.516 43.0548 104.463 43.2776L104.228 44.3141C102.928 50.3638 103.707 53.1223 104.475 53.8198C104.65 53.9772 104.834 54.0571 105.173 53.9263C106.088 53.5728 107.127 52.0858 107.343 49.9207L107.425 49.0972C107.454 48.809 107.752 48.6274 108.021 48.7388L109.9 49.5041C110.079 49.5768 110.188 49.7584 110.169 49.9497L110.145 50.1992C109.847 53.2022 108.256 55.7572 106.185 56.554C105.744 56.7211 105.299 56.8059 104.863 56.8059ZM98.4787 42.1369C98.3528 42.1369 98.2268 42.1466 98.0985 42.1636C96.2385 42.4154 94.209 44.5079 93.2742 47.1356C92.5404 49.2038 92.676 51.0492 93.6375 52.0761C94.2623 52.7421 94.691 52.7493 95.03 52.6646C97.0184 52.1754 99.6291 47.6538 101.223 43.6336C100.358 42.6382 99.4378 42.1369 98.4787 42.1369Z" fill="white"/>
<path d="M79.3365 69.9998C75.6917 69.9998 72.8775 65.2869 72.1534 63.5626C71.5722 62.1773 70.9401 60.189 72.1558 58.8909C73.8123 57.1206 77.152 58.2661 82.6835 60.1672C82.9475 60.2568 83.2139 60.3488 83.4851 60.4433C83.9283 58.8497 84.2359 57.3724 84.3933 56.5417C85.0351 53.1851 87.67 40.4633 87.6966 40.3349L87.8105 39.7827C87.8928 39.3904 88.3094 39.1676 88.6799 39.3202L90.1233 39.9135C90.4042 40.0298 90.5665 40.3277 90.5084 40.628L90.4551 40.9065C90.4285 41.0348 87.7984 53.7349 87.1614 57.0697C86.8611 58.639 86.5318 60.0655 86.1733 61.3442C92.7825 63.4948 100.569 65.3983 105.64 62.1434C108.735 60.1575 110.634 56.285 111.29 50.6301C111.324 50.3395 111.624 50.1627 111.893 50.2765L113.768 51.0854C113.94 51.1605 114.046 51.3373 114.029 51.5262C113.472 57.789 111.055 62.0126 107.161 64.512C101.055 68.4305 92.4701 66.3574 85.2966 64.0203C83.8581 67.779 82.032 69.7407 79.7797 69.978C79.6271 69.9925 79.4818 69.9998 79.3365 69.9998ZM74.2749 60.8332C74.2798 61.0463 74.3524 61.5307 74.7472 62.4728C75.4761 64.2116 77.7502 67.3624 79.4818 67.176C80.7533 67.0428 81.8068 65.2458 82.6157 63.1194C82.3299 63.0201 82.0465 62.9232 81.7656 62.8288C79.0411 61.8915 75.3575 60.6274 74.2749 60.8332Z" fill="white"/>
<path d="M80.5861 55.4928C79.6634 55.4928 78.5688 55.1513 77.4935 54.0009C75.7982 52.1918 75.4373 49.2711 76.532 46.193C77.6194 43.1318 80.2374 39.8357 83.6304 39.3756C84.7371 39.2254 86.1902 39.3489 87.6893 40.3709C87.6918 40.3661 87.6918 40.3588 87.6918 40.354L87.8056 39.8042C87.8879 39.4022 88.3166 39.1746 88.6968 39.332L90.1087 39.9132C90.3969 40.0319 90.5616 40.3395 90.5035 40.6446L90.4551 40.894C90.3582 41.3929 90.2008 42.0178 89.9876 42.7298L88.4764 43.7712L89.2393 44.9482C88.7816 46.1785 88.2173 47.508 87.5682 48.7989C85.672 52.5624 83.6933 54.7638 81.6832 55.3426C81.3611 55.4274 80.9906 55.4928 80.5861 55.4928ZM84.3884 42.1364C84.2625 42.1364 84.1365 42.1461 84.0082 42.1631C82.1482 42.415 80.1187 44.5074 79.1839 47.1351C78.4501 49.2033 78.5857 51.0487 79.5472 52.0756C80.2447 52.8191 80.6903 52.6907 80.9034 52.6302C82.9498 52.0417 85.4758 47.1763 86.8393 43.3183C86.0595 42.5312 85.2409 42.1364 84.3884 42.1364Z" fill="white"/>
<path d="M67.4115 55.6168C67.0288 55.6168 66.6486 55.5683 66.266 55.4666C63.7957 54.8176 62.1997 52.1003 62.3838 48.8599C62.6647 43.9 65.9826 40.0033 69.9399 39.9912C69.9447 39.9912 69.9496 39.9912 69.9544 39.9912C71.4462 39.9912 73.4128 40.7371 74.4541 42.4057C75.6578 44.3335 75.4568 46.9588 73.856 50.2113C72.1486 53.6769 69.8018 55.6168 67.4115 55.6168ZM69.952 42.8077H69.9496C67.5229 42.815 65.3893 45.6025 65.1955 49.0197C65.0769 51.1243 66.0044 52.4878 66.9828 52.7445C68.3221 53.0981 70.0271 51.6135 71.33 48.9664C72.4392 46.7141 72.7007 44.9123 72.0662 43.8951C71.5068 43.0015 70.354 42.8077 69.952 42.8077ZM63.7909 48.9398H63.7933H63.7909Z" fill="#FFCA05"/>
<path d="M64.5658 39.5139L62.2021 35.5639C62.1198 35.4259 62.1658 35.2491 62.3014 35.1667L64.2195 34.0188C64.3576 33.9365 64.5343 33.9825 64.6167 34.1181L66.9804 38.0681C67.0627 38.2061 67.0167 38.3829 66.8811 38.4653L64.963 39.6132C64.8274 39.6955 64.6482 39.652 64.5658 39.5139Z" fill="#FFCA05"/>
<path d="M71.812 38.1337L69.6057 37.7729C69.4483 37.7462 69.3418 37.5985 69.366 37.4411L70.2935 31.7474C70.3202 31.59 70.4679 31.4834 70.6253 31.5076L72.8316 31.8685C72.989 31.8951 73.0956 32.0428 73.0714 32.2003L72.1438 37.894C72.1196 38.0514 71.9694 38.1579 71.812 38.1337Z" fill="#FFCA05"/>
<path d="M66.3509 64.7497L64.1665 64.2775C64.009 64.2436 63.9097 64.0886 63.9436 63.9336L65.2417 57.9323C65.2757 57.7749 65.4306 57.6756 65.5856 57.7095L67.7701 58.1817C67.9275 58.2156 68.0268 58.3706 67.9929 58.5256L66.6948 64.5269C66.6634 64.6843 66.5084 64.7836 66.3509 64.7497Z" fill="#FFCA05"/>
<path d="M76.4959 40.6474L74.8563 39.1265C74.7401 39.0175 74.7328 38.8334 74.8418 38.7172L78.4915 34.7866C78.6005 34.6703 78.7845 34.663 78.9008 34.772L80.5403 36.2929C80.6566 36.4019 80.6639 36.586 80.5549 36.7022L76.9052 40.6328C76.7962 40.7491 76.6146 40.7563 76.4959 40.6474Z" fill="#FFCA05"/>
<path d="M59.9475 60.6758L58.2813 59.1839C58.1626 59.0774 58.153 58.8933 58.2595 58.7746L61.4902 55.1661C61.5968 55.0475 61.7808 55.0378 61.8995 55.1443L63.5657 56.6362C63.6844 56.7427 63.6941 56.9268 63.5875 57.0455L60.3568 60.654C60.2503 60.7726 60.0662 60.7823 59.9475 60.6758Z" fill="#FFCA05"/>
</svg>
