<svg width="211" height="217" viewBox="0 0 211 217" fill="none" xmlns="http://www.w3.org/2000/svg">
<g filter="url(#filter0_d)">
<path fill-rule="evenodd" clip-rule="evenodd" d="M113.146 130.36C134.634 126.724 151 108.023 151 85.5C151 60.371 130.629 40 105.5 40C80.371 40 60 60.371 60 85.5C60 107.57 75.713 125.97 96.5621 130.122L105 137L113.146 130.36Z" fill="white"/>
</g>
<circle cx="105.5" cy="85.5" r="33.5" fill="#61BDB5"/>
<path d="M129.498 85.2352C128.699 85.2352 127.95 84.8335 127.425 84.103C127.03 83.5537 126.787 82.9748 126.695 82.3338C126.527 82.5987 126.392 82.7985 126.314 82.9088C125.605 83.8933 124.458 84.7312 123.366 84.1316C122.43 83.6177 122.125 82.3073 122.642 81.0146L122.786 80.6542C122.823 80.5597 122.931 80.5135 123.026 80.5519L123.746 80.8393C123.84 80.8767 123.887 80.9841 123.848 81.0796L123.705 81.4399C123.387 82.2364 123.567 82.9364 123.916 83.1284C124.278 83.3262 124.853 82.9777 125.384 82.2403C125.503 82.0749 125.73 81.7274 125.999 81.2824C124.397 80.7655 123.758 79.6254 123.86 78.6005C123.99 77.3029 125.327 75.9709 127.958 76.1176C128.35 76.1392 128.666 76.343 128.825 76.6768C128.997 77.0361 129.083 77.6524 128.388 79.2267L128.398 79.2306C127.426 81.625 127.802 82.6666 128.354 83.4355C128.857 84.1355 129.456 84.1276 129.769 84.0617C130.299 83.9494 130.724 83.5359 130.829 83.0319C130.97 82.3486 130.531 81.6043 129.593 80.9378L129.458 80.8413C129.389 80.7921 129.363 80.7015 129.395 80.6227L129.702 79.8843C129.748 79.776 129.88 79.7376 129.976 79.8056L130.257 80.0045C131.569 80.9368 132.186 82.1251 131.951 83.2642C131.756 84.2054 130.975 84.9763 130.008 85.1821C129.836 85.2175 129.667 85.2352 129.498 85.2352ZM127.588 77.2517C125.98 77.2517 125.074 77.9635 124.999 78.7137C124.941 79.2966 125.419 79.9631 126.59 80.2604C126.697 80.0655 126.805 79.8656 126.908 79.6648C127.706 78.1161 127.799 77.4723 127.799 77.2557C127.727 77.2527 127.656 77.2517 127.588 77.2517Z" fill="white"/>
<path d="M81.4279 85.2205C80.9662 85.2205 80.6107 85.1053 80.3951 85.0088C79.5061 84.612 78.9469 83.6974 79.004 82.7346C79.067 81.6654 79.8477 80.795 81.0922 80.4062L81.4752 80.287C81.5657 80.2585 81.6612 80.3097 81.6898 80.3993L81.929 81.1652C81.9576 81.2558 81.9074 81.3513 81.8168 81.3799L81.4338 81.499C80.6511 81.7431 80.1825 82.2177 80.148 82.8015C80.1195 83.2928 80.4069 83.7594 80.8638 83.9632C81.6041 84.294 82.5916 83.916 83.5751 82.9246C85.432 81.054 85.7066 78.3209 85.0805 77.2616C84.6808 76.5852 84.1777 76.2347 83.6549 76.2721C83.2315 76.3036 82.824 76.601 82.6645 76.9948C82.5778 77.2104 82.5345 77.5343 82.822 77.8582L83.0927 78.1614C83.1538 78.2294 83.1479 78.3347 83.0789 78.3958L82.4715 78.9363C82.4036 78.9973 82.2982 78.9914 82.2372 78.9225L81.9654 78.6202C81.4515 78.0423 81.3157 77.2754 81.6012 76.5665C81.9221 75.772 82.7127 75.1951 83.5673 75.1311C84.1314 75.0887 85.2085 75.2335 86.063 76.6787C87.0023 78.2678 86.5445 81.5551 84.3854 83.7309C83.2109 84.9163 82.1781 85.2205 81.4279 85.2205Z" fill="white"/>
<path d="M87.9208 84.3073C87.4876 84.3073 87.0662 84.1951 86.6823 83.9706C85.1159 83.057 84.406 80.3859 86.1752 77.2355C87.4719 74.9248 88.8984 74.8726 89.4498 74.9573C90.1862 75.0695 90.7572 75.5913 90.9039 76.2854C91.0536 76.9952 90.7326 77.6992 90.0425 78.1934C89.9755 78.2417 89.882 78.2249 89.8377 78.156L89.373 77.4284C89.3336 77.3664 89.3474 77.2847 89.4064 77.2404C89.6989 77.0218 89.8347 76.7649 89.7835 76.5227C89.7363 76.2992 89.5374 76.1298 89.2765 76.0895C88.7675 76.0117 87.9464 76.4193 87.1726 77.7966C86.1044 79.6987 85.8454 82.1591 87.2582 82.9831C88.1295 83.4911 89.241 82.9132 90.0897 81.5103L90.3861 81.021L91.3647 81.6136L91.0683 82.103C90.4717 83.0875 89.7372 83.7786 88.9447 84.1006C88.605 84.2394 88.2595 84.3073 87.9208 84.3073Z" fill="white"/>
<path d="M102.954 84.0846C102.8 84.0846 102.644 84.0649 102.489 84.0235C101.484 83.7597 100.836 82.655 100.91 81.3378C101.025 79.3214 102.374 77.7373 103.982 77.7324C103.984 77.7324 103.986 77.7324 103.988 77.7324C104.594 77.7324 105.394 78.0357 105.817 78.713C106.307 79.4967 106.225 80.5639 105.574 81.8861C104.88 83.296 103.926 84.0846 102.954 84.0846ZM102.053 81.4017C102.005 82.2573 102.382 82.8116 102.78 82.9159C103.324 83.0597 104.018 82.4562 104.547 81.3801C104.998 80.4635 105.104 79.732 104.847 79.3185C104.619 78.9552 104.151 78.8755 103.988 78.8755C103.987 78.8755 103.987 78.8755 103.986 78.8755C103 78.8794 102.132 80.0126 102.053 81.4017Z" fill="white"/>
<path d="M96.2902 94.4049C96.1356 94.4049 95.9801 94.3852 95.8245 94.3438C94.8203 94.08 94.1715 92.9754 94.2463 91.6581C94.3605 89.6418 95.7103 88.0577 97.3181 88.0527C97.32 88.0527 97.322 88.0527 97.324 88.0527C97.9304 88.0527 98.7289 88.356 99.1532 89.0333C99.6425 89.817 99.5608 90.8842 98.91 92.2064C98.2159 93.6173 97.2629 94.4049 96.2902 94.4049ZM95.3894 91.723C95.3411 92.5786 95.7182 93.1329 96.1159 93.2372C96.6594 93.381 97.3535 92.7775 97.8832 91.7014C98.3341 90.7848 98.4404 90.0533 98.1825 89.6398C97.955 89.2765 97.4874 89.1968 97.324 89.1968C97.323 89.1968 97.323 89.1968 97.322 89.1968C96.3355 89.2007 95.4691 90.3339 95.3894 91.723Z" fill="white"/>
<path d="M92.3374 84.1815C92.1986 84.1815 92.0578 84.1657 91.918 84.1322C90.9079 83.895 90.2296 82.8081 90.269 81.4888C90.33 79.4695 91.6365 77.851 93.2432 77.8037C93.2619 77.8027 93.2796 77.8027 93.2983 77.8027C93.8979 77.8027 94.6737 78.0863 95.103 78.7351C95.613 79.505 95.5598 80.5752 94.9445 81.9131C94.2779 83.3653 93.3259 84.1815 92.3374 84.1815ZM93.2944 78.9477C93.2885 78.9477 93.2826 78.9477 93.2777 78.9477C92.2912 78.9773 91.4553 80.1321 91.413 81.5233C91.3874 82.3808 91.7792 82.9242 92.1789 83.0178C92.7254 83.1457 93.4037 82.5255 93.9048 81.4356C94.3311 80.5082 94.4177 79.7728 94.149 79.3671C93.9206 79.0206 93.4706 78.9477 93.2944 78.9477ZM90.841 81.5065H90.842H90.841Z" fill="white"/>
<path d="M97.404 84.1209C96.6931 84.1209 96.0552 83.7104 95.62 82.9307L96.3407 81.8733L96.6193 82.3724C96.9639 82.9897 97.3695 83.1266 97.9356 82.8164C99.0196 82.2228 99.9814 80.3049 99.4419 79.3017C99.3543 79.1383 99.1525 78.8577 98.7951 78.8153C98.3196 78.7592 97.7121 79.1166 97.085 79.8205L96.704 80.2478L96.2294 79.0605C97.3606 77.7904 98.3215 77.6093 98.928 77.6802C99.566 77.755 100.12 78.1488 100.449 78.7612C100.86 79.5242 100.828 80.5717 100.361 81.633C99.9411 82.59 99.2401 83.4081 98.485 83.8216C98.1177 84.0225 97.7515 84.1209 97.404 84.1209Z" fill="white"/>
<path d="M95.3989 86.9101L94.5454 86.5547C94.4922 86.533 94.4636 86.475 94.4794 86.4198L94.566 86.1048C94.5779 86.0615 95.712 81.9097 96.7586 76.1709C94.5907 76.8148 93.4122 76.7833 92.9544 76.0774C92.7693 75.7919 92.5812 75.1726 93.4023 74.2413C94.2155 73.3188 95.9778 72.223 97.176 72.7999C97.8288 73.114 98.0631 73.7726 98.1005 74.4775C102.342 72.8688 112.853 69.1011 123.472 75.6137L123.598 75.6915C123.712 75.7614 123.759 75.9041 123.709 76.0282L123.483 76.5884C123.419 76.7459 123.229 76.8079 123.085 76.7193L122.873 76.5893C112.495 70.2244 102.132 74.1674 98.2304 75.6521C98.1507 75.6826 98.0729 75.7121 97.9981 75.7407C96.9122 81.8585 95.6815 86.3627 95.6687 86.408L95.5515 86.8353C95.5348 86.9013 95.462 86.9357 95.3989 86.9101ZM93.9556 75.4483C94.1516 75.5014 94.823 75.5743 96.6857 74.9964C96.7655 74.9718 96.856 74.9413 96.9565 74.9058C97.0096 74.1448 96.8078 73.9193 96.734 73.8632C96.5341 73.7126 96.0674 73.7795 95.5447 74.0335C94.6901 74.45 94.061 75.1411 93.9556 75.4483Z" fill="white"/>
<path d="M92.3126 94.655C92.159 94.655 92.0192 94.6186 91.8893 94.5467C91.4216 94.2898 91.3645 93.7148 91.4689 93.259C91.6579 92.3355 91.844 91.475 92.0074 90.716C92.3096 89.3199 92.6198 87.8835 92.666 87.2327C91.6195 87.531 89.1523 89.4085 88.1737 93.6095C88.1205 93.8546 88.0614 94.1785 88.025 94.3833C88.0063 94.4857 87.899 94.5448 87.8025 94.5054L87.4766 94.3715C87.4766 94.3695 87.2157 94.2642 87.0444 94.1943C86.9578 94.1588 86.9085 94.0683 86.9243 93.9767C86.9666 93.7306 86.9883 93.6577 87.0572 93.3624C87.1488 92.9439 87.2541 92.4891 87.3624 92.0214C87.6164 90.9276 87.9039 89.6881 88.0575 88.6741C88.2308 87.531 88.1687 87.0841 88.1205 86.9236C88.0604 86.9462 87.9659 86.9915 87.8301 87.0831C86.7766 87.7909 86.5295 89.0748 86.5275 89.0876L86.5108 89.1762C86.4931 89.2697 86.3927 89.3229 86.306 89.2845L85.5302 88.9438C85.4534 88.9103 85.4121 88.8276 85.4318 88.7459C85.5381 88.3078 85.9526 86.9659 87.1931 86.133C87.8222 85.7106 88.3519 85.6417 88.7673 85.9282C89.3324 86.3171 89.4171 87.216 89.2301 88.5874C89.3964 88.3698 89.5599 88.1749 89.7154 88.0006C90.6123 87.0014 91.6441 86.3082 92.481 86.1074C92.7251 86.0483 93.7382 86.5554 93.7638 86.6361C93.9115 87.0939 93.7244 88.1966 93.1268 90.9582C92.9712 91.6798 92.795 92.493 92.6168 93.3624C92.9082 93.1802 93.4359 92.7726 94.3319 91.857L94.7316 91.4475L95.15 92.6565C93.7963 94.0417 92.9397 94.655 92.3126 94.655Z" fill="white"/>
<path d="M101.818 94.5452C101.6 94.5452 101.404 94.4862 101.226 94.371C100.521 93.9151 100.479 92.7406 101.09 90.5658C101.185 90.2251 101.289 89.8914 101.39 89.5813L99.1522 91.1604L98.4926 90.2251L101.668 87.9844C101.777 87.9076 101.918 87.8918 102.042 87.942L102.83 88.2669C102.949 88.3161 103.008 88.45 102.961 88.5692C102.818 88.9453 102.512 89.7723 102.244 90.6957C101.681 92.6294 101.802 93.2447 101.855 93.3914C102.028 93.3668 102.743 93.1364 104.653 91.1506L105.049 90.7381L105.478 91.9441C103.759 93.73 102.63 94.5452 101.818 94.5452Z" fill="white"/>
<path d="M107.423 84.1214C107.321 84.1214 107.222 84.1116 107.124 84.0909C106.492 83.958 106.107 83.4234 106.095 82.6614C106.077 81.477 106.994 78.7518 107.1 78.4456L107.237 78.0439C107.262 77.9681 107.347 77.9297 107.421 77.9612L108.222 78.3009C108.289 78.3295 108.322 78.4043 108.299 78.4722L108.182 78.8148C107.915 79.5965 107.226 81.8078 107.239 82.6427C107.24 82.7342 107.254 82.9479 107.36 82.9705C107.692 83.0394 108.64 82.5324 109.329 81.0389L109.568 80.519L110.019 80.7268L110.367 81.5174C109.647 83.0847 108.45 84.1214 107.423 84.1214Z" fill="white"/>
<path d="M110.409 84.121C110.307 84.121 110.208 84.1112 110.11 84.0905C109.478 83.9576 109.093 83.423 109.082 82.661C109.063 81.4766 109.98 78.7514 110.086 78.4452L110.223 78.0426C110.248 77.9668 110.333 77.9293 110.406 77.9599L111.209 78.2936C111.276 78.3212 111.311 78.397 111.287 78.4659L111.168 78.8154C110.901 79.5971 110.212 81.8084 110.225 82.6432C110.226 82.7348 110.24 82.9485 110.346 82.9711C110.677 83.04 111.626 82.533 112.315 81.0395L112.554 80.5196L113.353 81.5189C112.633 83.0843 111.438 84.121 110.409 84.121Z" fill="white"/>
<path d="M113.41 84.121C113.309 84.121 113.209 84.1112 113.112 84.0905C112.48 83.9576 112.095 83.423 112.083 82.661C112.064 81.4766 112.982 78.7514 113.087 78.4452L113.224 78.0435C113.25 77.9677 113.334 77.9303 113.408 77.9608L114.21 78.2975C114.277 78.3261 114.311 78.4009 114.287 78.4698L114.169 78.8154C113.902 79.5971 113.213 81.8084 113.227 82.6432C113.228 82.7348 113.243 82.9484 113.348 82.9711C113.68 83.041 114.628 82.533 115.317 81.0394L115.556 80.5196L115.885 80.6712L116.357 81.5189C115.634 83.0833 114.439 84.121 113.41 84.121Z" fill="white"/>
<path d="M117.119 84.2551C116.74 84.2551 116.283 84.1173 115.835 83.6388C115.146 82.9034 114.999 81.716 115.444 80.4647C115.887 79.2203 116.951 77.8803 118.33 77.6933C118.824 77.6263 119.489 77.6933 120.162 78.2318C120.162 78.2318 120.677 78.3756 121.003 78.4661C121.148 78.5065 121.233 78.6561 121.193 78.8009C121.149 78.9653 121.108 79.1238 121.071 79.2764L120.969 79.7066C120.322 82.5627 120.857 83.0166 120.864 83.0186C121.119 83.1032 122.111 82.3392 122.642 81.0131L122.787 80.6528C122.825 80.5582 122.933 80.512 123.027 80.5504L123.747 80.8388C123.841 80.8772 123.888 80.9845 123.849 81.0791L123.705 81.4394C123.401 82.1955 122.919 82.9221 122.381 83.4321C121.726 84.0533 121.057 84.2916 120.498 84.1025C119.911 83.9037 119.583 83.3494 119.515 82.4259C118.94 83.3041 118.257 84.0228 117.511 84.2069C117.394 84.2354 117.262 84.2551 117.119 84.2551ZM118.638 78.8166C118.587 78.8166 118.536 78.8206 118.484 78.8274C117.728 78.9298 116.903 79.7805 116.523 80.8487C116.224 81.6895 116.279 82.4397 116.67 82.8571C116.924 83.1279 117.098 83.1308 117.236 83.0963C118.045 82.8975 119.106 81.0594 119.754 79.4251C119.402 79.0204 119.028 78.8166 118.638 78.8166Z" fill="white"/>
<path d="M121.629 95.0182C121.291 95.0182 120.969 94.8931 120.703 94.6509C120.254 94.2433 120.004 93.5443 119.953 92.5952C119.37 93.504 118.671 94.2571 117.905 94.4452C117.48 94.5485 116.847 94.5357 116.23 93.8771C115.541 93.1417 115.394 91.9543 115.839 90.703C116.281 89.4586 117.345 88.1186 118.725 87.9316C119.22 87.8646 119.883 87.9316 120.556 88.4701L121.326 88.7851C121.495 88.8541 121.588 89.0372 121.542 89.2144C121.516 89.3168 121.488 89.428 121.467 89.5186L121.371 89.94C120.842 92.3993 121.159 93.5207 121.471 93.8042C121.542 93.8682 121.617 93.9007 121.755 93.8476C122.127 93.7038 122.55 93.0993 122.637 92.2192L122.671 91.8844C122.682 91.7673 122.804 91.6934 122.913 91.7387L123.677 92.0498C123.75 92.0794 123.794 92.1532 123.786 92.231L123.776 92.3324C123.655 93.5532 123.008 94.5919 122.167 94.9158C121.987 94.9837 121.806 95.0182 121.629 95.0182ZM119.034 89.0549C118.983 89.0549 118.931 89.0588 118.879 89.0657C118.123 89.1681 117.298 90.0187 116.918 91.087C116.62 91.9277 116.675 92.6779 117.066 93.0954C117.32 93.3661 117.494 93.3691 117.632 93.3346C118.44 93.1358 119.501 91.2976 120.149 89.6633C119.798 89.2587 119.424 89.0549 119.034 89.0549Z" fill="white"/>
<path d="M111.252 100.382C109.771 100.382 108.627 98.4664 108.332 97.7654C108.096 97.2022 107.839 96.3939 108.333 95.8662C109.007 95.1466 110.364 95.6122 112.613 96.3851C112.72 96.4215 112.829 96.4589 112.939 96.4973C113.119 95.8495 113.244 95.2489 113.308 94.9113C113.569 93.5467 114.64 88.375 114.651 88.3228L114.697 88.0983C114.731 87.9389 114.9 87.8483 115.051 87.9103L115.637 88.1515C115.752 88.1988 115.818 88.3199 115.794 88.4419L115.772 88.5552C115.762 88.6073 114.692 93.7702 114.433 95.1259C114.311 95.7639 114.177 96.3437 114.032 96.8636C116.718 97.7378 119.884 98.5117 121.945 97.1885C123.204 96.3812 123.975 94.8069 124.242 92.508C124.256 92.3899 124.378 92.318 124.487 92.3643L125.249 92.6931C125.319 92.7236 125.363 92.7955 125.356 92.8723C125.129 95.4183 124.147 97.1353 122.564 98.1513C120.082 99.7443 116.591 98.9015 113.675 97.9515C113.091 99.4795 112.348 100.277 111.433 100.373C111.371 100.379 111.311 100.382 111.252 100.382ZM109.195 96.6558C109.197 96.7425 109.226 96.9394 109.387 97.3224C109.683 98.0292 110.608 99.3101 111.311 99.2343C111.828 99.1802 112.257 98.4496 112.585 97.5852C112.469 97.5449 112.354 97.5055 112.24 97.4671C111.132 97.0861 109.635 96.5721 109.195 96.6558Z" fill="white"/>
<path d="M111.761 94.4857C111.386 94.4857 110.941 94.3468 110.503 93.8792C109.814 93.1438 109.668 91.9564 110.113 90.7051C110.555 89.4606 111.619 88.1207 112.998 87.9337C113.448 87.8726 114.039 87.9228 114.648 88.3383C114.649 88.3363 114.649 88.3334 114.649 88.3314L114.696 88.1079C114.729 87.9445 114.903 87.8519 115.058 87.9159L115.632 88.1522C115.749 88.2005 115.816 88.3255 115.792 88.4495L115.773 88.5509C115.733 88.7538 115.669 89.0078 115.583 89.2972L114.968 89.7206L115.278 90.199C115.092 90.6992 114.863 91.2397 114.599 91.7644C113.828 93.2944 113.024 94.1893 112.207 94.4246C112.076 94.4591 111.925 94.4857 111.761 94.4857ZM113.306 89.056C113.255 89.056 113.204 89.0599 113.152 89.0668C112.396 89.1692 111.571 90.0199 111.191 91.0881C110.892 91.9289 110.947 92.6791 111.338 93.0965C111.622 93.3987 111.803 93.3466 111.89 93.322C112.722 93.0827 113.748 91.1048 114.303 89.5365C113.986 89.2165 113.653 89.056 113.306 89.056Z" fill="white"/>
<path d="M106.404 94.5357C106.249 94.5357 106.094 94.5161 105.938 94.4747C104.934 94.2109 104.285 93.1062 104.36 91.7889C104.474 89.7726 105.823 88.1885 107.432 88.1836C107.434 88.1836 107.436 88.1836 107.438 88.1836C108.044 88.1836 108.844 88.4868 109.267 89.1652C109.756 89.9488 109.675 91.0161 109.024 92.3383C108.33 93.7471 107.376 94.5357 106.404 94.5357ZM107.437 89.3286H107.436C106.449 89.3315 105.582 90.4647 105.503 91.8539C105.455 92.7095 105.832 93.2637 106.23 93.3681C106.774 93.5118 107.467 92.9083 107.997 91.8322C108.448 90.9166 108.554 90.1841 108.296 89.7706C108.069 89.4074 107.6 89.3286 107.437 89.3286ZM104.932 91.8214H104.933H104.932Z" fill="#FFCA05"/>
<path d="M105.247 87.9898L104.287 86.3841C104.253 86.3279 104.272 86.2561 104.327 86.2226L105.107 85.7559C105.163 85.7225 105.235 85.7412 105.268 85.7963L106.229 87.4021C106.263 87.4582 106.244 87.53 106.189 87.5635L105.409 88.0302C105.354 88.0637 105.281 88.0459 105.247 87.9898Z" fill="#FFCA05"/>
<path d="M108.193 87.4285L107.296 87.2818C107.232 87.2709 107.189 87.2109 107.199 87.1469L107.576 84.8323C107.587 84.7683 107.647 84.7249 107.711 84.7348L108.608 84.8815C108.672 84.8923 108.715 84.9524 108.705 85.0164L108.328 87.331C108.318 87.395 108.257 87.4383 108.193 87.4285Z" fill="#FFCA05"/>
<path d="M105.973 98.2485L105.085 98.0565C105.021 98.0427 104.981 97.9797 104.995 97.9167L105.522 95.4771C105.536 95.4131 105.599 95.3727 105.662 95.3865L106.55 95.5785C106.614 95.5923 106.655 95.6553 106.641 95.7183L106.113 98.1579C106.1 98.2219 106.037 98.2623 105.973 98.2485Z" fill="#FFCA05"/>
<path d="M110.097 88.4502L109.431 87.8319C109.384 87.7876 109.381 87.7128 109.425 87.6655L110.909 86.0676C110.953 86.0204 111.028 86.0174 111.075 86.0617L111.741 86.68C111.789 86.7243 111.792 86.7991 111.747 86.8464L110.264 88.4443C110.219 88.4915 110.146 88.4945 110.097 88.4502Z" fill="#FFCA05"/>
<path d="M103.37 96.5922L102.693 95.9857C102.644 95.9424 102.641 95.8676 102.684 95.8194L103.997 94.3524C104.041 94.3042 104.115 94.3002 104.164 94.3435L104.841 94.95C104.889 94.9933 104.893 95.0682 104.85 95.1164L103.536 96.5833C103.493 96.6316 103.418 96.6355 103.37 96.5922Z" fill="#FFCA05"/>
<defs>
<filter id="filter0_d" x="0" y="0" width="211" height="217" filterUnits="userSpaceOnUse" color-interpolation-filters="sRGB">
<feFlood flood-opacity="0" result="BackgroundImageFix"/>
<feColorMatrix in="SourceAlpha" type="matrix" values="0 0 0 0 0 0 0 0 0 0 0 0 0 0 0 0 0 0 127 0"/>
<feOffset dy="20"/>
<feGaussianBlur stdDeviation="30"/>
<feColorMatrix type="matrix" values="0 0 0 0 0.391667 0 0 0 0 0.391667 0 0 0 0 0.391667 0 0 0 0.18 0"/>
<feBlend mode="normal" in2="BackgroundImageFix" result="effect1_dropShadow"/>
<feBlend mode="normal" in="SourceGraphic" in2="effect1_dropShadow" result="shape"/>
</filter>
</defs>
</svg>
