<svg width="366" height="211" viewBox="0 0 366 211" fill="none" xmlns="http://www.w3.org/2000/svg">
    <g filter="url(#filter0_d)">
        <path fill-rule="evenodd" clip-rule="evenodd"
              d="M81.5 40C69.902 40 60.5 49.402 60.5 61V103C60.5 114.598 69.902 124 81.5 124H174.412L183 131L191.588 124H285C296.598 124 306 114.598 306 103V61C306 49.402 296.598 40 285 40H81.5Z"
              fill="white"/>
    </g>
    <g clip-path="url(#clip0)">
        <path d="M104.897 91.5728C104.809 91.4654 104.677 91.4028 104.54 91.4028H102.788C102.356 90.2625 101.792 89.1453 101.152 88.7235C98.9376 87.2666 93.0635 87.2666 90.849 88.7235C90.2083 89.1457 89.6474 90.2643 89.2128 91.4028H87.461C87.3218 91.4028 87.1909 91.4654 87.1038 91.5728C87.0162 91.6798 86.9812 91.8212 87.0098 91.9572L87.2692 93.2146C87.3135 93.4289 87.5024 93.5819 87.7204 93.5819H88.2394C87.7384 94.1599 87.4955 94.8876 87.4923 95.6158C87.4891 96.5155 87.8306 97.3285 88.4551 97.9037C88.462 97.9097 88.4689 97.9139 88.4754 97.9199V99.6791C88.4754 100.06 88.7851 100.37 89.1667 100.37H90.7826C91.1642 100.37 91.4739 100.06 91.4739 99.6791V98.9721H100.526V99.6791C100.526 100.06 100.836 100.37 101.218 100.37H102.833C103.214 100.37 103.525 100.06 103.525 99.6791V97.9544C104.188 97.3474 104.504 96.5123 104.508 95.6785C104.511 94.9254 104.257 94.1709 103.727 93.581H104.28C104.499 93.581 104.688 93.4279 104.731 93.2132L104.991 91.9563C105.018 91.8212 104.984 91.6807 104.897 91.5728ZM91.608 89.8781C93.3732 88.7162 98.6269 88.7162 100.391 89.8781C100.734 90.103 101.175 91.0124 101.579 92.1259H90.4208C90.8241 91.0128 91.2651 90.1039 91.608 89.8781ZM89.5405 95.7891C89.5405 95.0379 90.1498 94.4295 90.9006 94.4295C91.6523 94.4295 92.2607 95.0379 92.2607 95.7891C92.2607 96.5404 91.6523 97.1493 90.9006 97.1493C90.1498 97.1493 89.5405 96.5404 89.5405 95.7891ZM101.118 97.1493C100.367 97.1493 99.7575 96.5404 99.7575 95.7891C99.7575 95.0379 100.367 94.4295 101.118 94.4295C101.869 94.4295 102.478 95.0379 102.478 95.7891C102.478 96.5404 101.868 97.1493 101.118 97.1493Z"
              fill="#7C7781"/>
    </g>
    <path d="M87.855 69.198C87.855 67.222 88.5073 65.5753 89.812 64.258C91.1167 62.9407 92.776 62.282 94.79 62.282C96.842 62.282 98.5013 62.8963 99.768 64.125L98.59 65.949C98.096 65.531 97.5133 65.189 96.842 64.923C96.1833 64.657 95.5373 64.524 94.904 64.524C93.4853 64.524 92.377 64.9673 91.579 65.854C90.781 66.7407 90.382 67.8427 90.382 69.16C90.382 70.49 90.7873 71.63 91.598 72.58C92.4087 73.5173 93.517 73.986 94.923 73.986C96.367 73.986 97.6717 73.416 98.837 72.276L100.129 74.043C98.6977 75.4997 96.9307 76.228 94.828 76.228C92.738 76.228 91.0533 75.563 89.774 74.233C88.4947 72.903 87.855 71.2247 87.855 69.198ZM101.8 76V66.31H110.635V76H108.222V68.362H104.213V76H101.8ZM114.161 74.803C113.135 73.8403 112.622 72.6243 112.622 71.155C112.622 69.6857 113.135 68.476 114.161 67.526C115.187 66.5633 116.441 66.082 117.923 66.082C119.418 66.082 120.678 66.5633 121.704 67.526C122.743 68.476 123.262 69.6857 123.262 71.155C123.262 72.6243 122.749 73.8403 121.723 74.803C120.697 75.753 119.437 76.228 117.942 76.228C116.447 76.228 115.187 75.753 114.161 74.803ZM115.073 71.155C115.073 72.0417 115.345 72.77 115.89 73.34C116.447 73.8973 117.131 74.176 117.942 74.176C118.753 74.176 119.437 73.8973 119.994 73.34C120.551 72.77 120.83 72.0417 120.83 71.155C120.83 70.281 120.545 69.559 119.975 68.989C119.418 68.419 118.74 68.134 117.942 68.134C117.144 68.134 116.466 68.419 115.909 68.989C115.352 69.559 115.073 70.281 115.073 71.155ZM125.253 79.8V66.31H127.457V67.032L127.419 67.716H127.457C127.774 67.1967 128.204 66.7977 128.749 66.519C129.306 66.2277 129.914 66.082 130.573 66.082C131.878 66.082 132.916 66.5507 133.689 67.488C134.474 68.4253 134.867 69.6477 134.867 71.155C134.867 72.675 134.449 73.9037 133.613 74.841C132.79 75.7657 131.732 76.228 130.44 76.228C129.287 76.228 128.356 75.772 127.647 74.86H127.609C127.647 75.088 127.666 75.3667 127.666 75.696V79.8H125.253ZM127.59 71.212C127.59 72.0227 127.805 72.7257 128.236 73.321C128.667 73.9037 129.256 74.195 130.003 74.195C130.7 74.195 131.276 73.929 131.732 73.397C132.201 72.8523 132.435 72.1177 132.435 71.193C132.435 70.281 132.213 69.5463 131.77 68.989C131.327 68.4317 130.75 68.153 130.041 68.153C129.344 68.153 128.762 68.4127 128.293 68.932C127.824 69.4387 127.59 70.1987 127.59 71.212ZM139.036 76V68.362H135.844V66.31H144.641V68.362H141.43V76H139.036ZM145.401 74.803L146.427 73.264C147.187 73.9987 148.004 74.366 148.878 74.366C149.398 74.366 149.803 74.252 150.094 74.024C150.398 73.7833 150.55 73.4603 150.55 73.055C150.55 72.257 150.012 71.858 148.935 71.858H147.757V70.186H148.745C149.746 70.186 150.246 69.8123 150.246 69.065C150.246 68.2923 149.765 67.906 148.802 67.906C148.042 67.906 147.263 68.172 146.465 68.704L145.686 67.165C146.662 66.443 147.852 66.082 149.258 66.082C150.246 66.082 151.057 66.3227 151.69 66.804C152.336 67.2727 152.659 67.9187 152.659 68.742C152.659 69.7807 152.216 70.509 151.329 70.927V70.965C152.419 71.3703 152.963 72.1113 152.963 73.188C152.963 74.1507 152.602 74.898 151.88 75.43C151.158 75.962 150.246 76.228 149.144 76.228C147.662 76.228 146.415 75.753 145.401 74.803ZM154.237 73.321C154.237 72.637 154.42 72.0543 154.788 71.573C155.168 71.0917 155.662 70.7433 156.27 70.528C156.89 70.3 157.486 70.1417 158.056 70.053C158.638 69.9643 159.246 69.92 159.88 69.92H160.298V69.787C160.298 68.647 159.69 68.077 158.474 68.077C157.587 68.077 156.688 68.3873 155.776 69.008L154.883 67.279C155.301 66.9497 155.864 66.671 156.574 66.443C157.283 66.2023 157.986 66.082 158.683 66.082C159.949 66.082 160.937 66.424 161.647 67.108C162.356 67.7793 162.711 68.723 162.711 69.939V76H160.469V75.183L160.526 74.48H160.488C160.184 74.9993 159.759 75.4237 159.215 75.753C158.67 76.0697 158.075 76.228 157.429 76.228C156.529 76.228 155.769 75.962 155.149 75.43C154.541 74.8853 154.237 74.1823 154.237 73.321ZM156.631 73.112C156.631 73.454 156.757 73.7517 157.011 74.005C157.277 74.2583 157.638 74.385 158.094 74.385C158.74 74.385 159.272 74.119 159.69 73.587C160.108 73.055 160.317 72.4723 160.317 71.839V71.573H159.899C157.72 71.573 156.631 72.086 156.631 73.112ZM164.252 76.095V73.967C164.911 73.8783 165.411 73.492 165.753 72.808C166.108 72.1113 166.285 70.9587 166.285 69.35V66.31H173.353V76H170.94V68.267H168.584V69.35C168.584 71.554 168.248 73.2197 167.577 74.347C166.906 75.4617 165.797 76.0443 164.252 76.095ZM181.036 76V62.51H188.788V64.619H183.487V68.438H187.952V70.547H183.487V76H181.036ZM190.64 64.657V62.51H193.053V64.657H190.64ZM190.64 76V66.31H193.053V76H190.64ZM196.106 72.447V68.362H194.852V66.443H196.163V63.669H198.519V66.443H200.723V68.362H198.519V72.143C198.519 72.8397 198.715 73.321 199.108 73.587C199.513 73.8403 199.957 73.967 200.438 73.967C200.603 73.967 200.748 73.9543 200.875 73.929V76.038C200.495 76.076 200.248 76.095 200.134 76.095C199.805 76.095 199.488 76.0697 199.184 76.019C198.88 75.981 198.532 75.886 198.139 75.734C197.746 75.582 197.404 75.3857 197.113 75.145C196.834 74.8917 196.594 74.537 196.391 74.081C196.201 73.6123 196.106 73.0677 196.106 72.447ZM202.719 76V66.31H205.037V67.45L204.999 68.134H205.037C205.29 67.6147 205.708 67.146 206.291 66.728C206.873 66.2973 207.602 66.082 208.476 66.082C210.73 66.082 211.858 67.3107 211.858 69.768V76H209.445V70.262C209.445 69.616 209.331 69.1283 209.103 68.799C208.887 68.457 208.495 68.286 207.925 68.286C207.089 68.286 206.411 68.59 205.892 69.198C205.385 69.806 205.132 70.5597 205.132 71.459V76H202.719ZM213.764 71.155C213.764 69.6603 214.22 68.4443 215.132 67.507C216.056 66.557 217.247 66.082 218.704 66.082C220.046 66.082 221.098 66.519 221.858 67.393C222.618 68.2543 222.998 69.35 222.998 70.68C222.998 70.8953 222.972 71.2057 222.922 71.611H216.253C216.329 72.4217 216.639 73.055 217.184 73.511C217.728 73.9543 218.387 74.176 219.16 74.176C220.122 74.176 221.047 73.8213 221.934 73.112L222.884 74.841C222.402 75.2717 221.807 75.6137 221.098 75.867C220.401 76.1077 219.698 76.228 218.989 76.228C217.431 76.228 216.17 75.7403 215.208 74.765C214.245 73.777 213.764 72.5737 213.764 71.155ZM216.31 69.958H220.585C220.572 69.3247 220.382 68.8243 220.015 68.457C219.66 68.0897 219.204 67.906 218.647 67.906C218.039 67.906 217.526 68.096 217.108 68.476C216.69 68.8433 216.424 69.3373 216.31 69.958ZM224.224 74.803L225.307 73.207C226.08 73.9163 226.998 74.271 228.062 74.271C228.493 74.271 228.822 74.1887 229.05 74.024C229.291 73.8467 229.411 73.606 229.411 73.302C229.411 73.0233 229.246 72.7827 228.917 72.58C228.588 72.3773 228.189 72.1937 227.72 72.029C227.251 71.8643 226.776 71.6743 226.295 71.459C225.826 71.231 225.427 70.908 225.098 70.49C224.769 70.072 224.604 69.5717 224.604 68.989C224.604 68.077 224.952 67.3677 225.649 66.861C226.358 66.3417 227.245 66.082 228.309 66.082C229.652 66.082 230.741 66.4493 231.577 67.184L230.684 68.875C230.405 68.6343 230.032 68.438 229.563 68.286C229.107 68.1213 228.664 68.039 228.233 68.039C227.334 68.039 226.884 68.3493 226.884 68.97C226.884 69.2487 227.049 69.4893 227.378 69.692C227.707 69.8947 228.106 70.0783 228.575 70.243C229.056 70.4077 229.531 70.5977 230 70.813C230.469 71.0157 230.868 71.326 231.197 71.744C231.526 72.162 231.691 72.6623 231.691 73.245C231.691 74.1063 231.355 74.822 230.684 75.392C230.013 75.9493 229.126 76.228 228.024 76.228C226.479 76.228 225.212 75.753 224.224 74.803ZM232.908 74.803L233.991 73.207C234.763 73.9163 235.682 74.271 236.746 74.271C237.176 74.271 237.506 74.1887 237.734 74.024C237.974 73.8467 238.095 73.606 238.095 73.302C238.095 73.0233 237.93 72.7827 237.601 72.58C237.271 72.3773 236.872 72.1937 236.404 72.029C235.935 71.8643 235.46 71.6743 234.979 71.459C234.51 71.231 234.111 70.908 233.782 70.49C233.452 70.072 233.288 69.5717 233.288 68.989C233.288 68.077 233.636 67.3677 234.333 66.861C235.042 66.3417 235.929 66.082 236.993 66.082C238.335 66.082 239.425 66.4493 240.261 67.184L239.368 68.875C239.089 68.6343 238.715 68.438 238.247 68.286C237.791 68.1213 237.347 68.039 236.917 68.039C236.017 68.039 235.568 68.3493 235.568 68.97C235.568 69.2487 235.732 69.4893 236.062 69.692C236.391 69.8947 236.79 70.0783 237.259 70.243C237.74 70.4077 238.215 70.5977 238.684 70.813C239.152 71.0157 239.551 71.326 239.881 71.744C240.21 72.162 240.375 72.6623 240.375 73.245C240.375 74.1063 240.039 74.822 239.368 75.392C238.696 75.9493 237.81 76.228 236.708 76.228C235.162 76.228 233.896 75.753 232.908 74.803ZM247.462 76V62.51H249.913V73.891H255.746V76H247.462ZM257.307 64.657V62.51H259.72V64.657H257.307ZM257.307 76V66.31H259.72V76H257.307ZM262.849 76V68.362H261.652V66.443H262.849V66.025C262.849 65.417 262.944 64.8913 263.134 64.448C263.337 63.992 263.577 63.6437 263.856 63.403C264.135 63.1497 264.464 62.947 264.844 62.795C265.237 62.643 265.585 62.548 265.889 62.51C266.193 62.4593 266.503 62.434 266.82 62.434C267.175 62.434 267.447 62.453 267.637 62.491V64.543C267.536 64.5177 267.371 64.505 267.143 64.505C265.889 64.505 265.262 65.0307 265.262 66.082V66.443H267.352V68.362H265.262V76H262.849ZM268.314 71.155C268.314 69.6603 268.77 68.4443 269.682 67.507C270.607 66.557 271.798 66.082 273.254 66.082C274.597 66.082 275.648 66.519 276.408 67.393C277.168 68.2543 277.548 69.35 277.548 70.68C277.548 70.8953 277.523 71.2057 277.472 71.611H270.803C270.879 72.4217 271.19 73.055 271.734 73.511C272.279 73.9543 272.938 74.176 273.71 74.176C274.673 74.176 275.598 73.8213 276.484 73.112L277.434 74.841C276.953 75.2717 276.358 75.6137 275.648 75.867C274.952 76.1077 274.249 76.228 273.539 76.228C271.981 76.228 270.721 75.7403 269.758 74.765C268.796 73.777 268.314 72.5737 268.314 71.155ZM270.86 69.958H275.135C275.123 69.3247 274.933 68.8243 274.565 68.457C274.211 68.0897 273.755 67.906 273.197 67.906C272.589 67.906 272.076 68.096 271.658 68.476C271.24 68.8433 270.974 69.3373 270.86 69.958Z"
          fill="#413949"/>
    <path d="M112.969 100H119.888V98.538H117.253V87.998H115.757L112.884 90.786L113.904 91.84L115.026 90.752C115.468 90.31 115.604 90.055 115.604 90.055H115.638C115.638 90.055 115.621 90.412 115.621 90.786V98.538H112.969V100ZM125.687 100.204C128.9 100.204 129.937 97.45 129.937 93.982C129.937 90.531 128.9 87.794 125.687 87.794C122.491 87.794 121.437 90.531 121.437 93.982C121.437 97.45 122.491 100.204 125.687 100.204ZM125.687 98.657C123.732 98.657 123.171 96.617 123.171 93.982C123.171 91.381 123.732 89.341 125.687 89.341C127.659 89.341 128.203 91.381 128.203 93.982C128.203 96.617 127.659 98.657 125.687 98.657ZM136.144 100H137.742L138.116 94.883C138.15 94.373 138.099 93.404 138.099 93.404H138.133C138.133 93.404 138.405 94.05 138.677 94.679L140.717 98.963H142.128L144.168 94.662C144.491 93.999 144.712 93.404 144.712 93.404H144.746C144.746 93.404 144.712 94.373 144.729 94.883L145.103 100H146.701L145.953 91.398H144.151L141.907 96.26C141.686 96.787 141.431 97.416 141.431 97.416H141.397C141.397 97.416 141.159 96.77 140.921 96.26L138.728 91.398H136.892L136.144 100ZM148.919 100H150.5L154.223 94.866C154.495 94.458 154.92 93.88 154.971 93.727H155.005C155.005 93.863 154.954 94.458 154.954 94.866V100H156.552V91.398H154.954L151.248 96.532C150.959 96.94 150.551 97.535 150.483 97.688H150.449C150.466 97.603 150.5 96.991 150.5 96.532V91.398H148.919V100ZM159.079 100H160.728V96.311H165.08V100H166.729V91.398H165.08V94.9H160.728V91.398H159.079V100ZM168.847 101.785L168.269 103.043C168.269 103.043 168.966 103.57 169.918 103.57C171.125 103.57 172.196 102.89 172.706 101.547L176.752 91.398H174.967L172.876 97.042C172.723 97.484 172.587 98.062 172.587 98.062H172.553C172.553 98.062 172.4 97.45 172.23 97.025L170.071 91.398H168.218L171.822 99.898L171.397 100.884C171.074 101.666 170.513 102.159 169.833 102.159C169.323 102.159 168.847 101.785 168.847 101.785ZM180.444 100H182.076V92.809H185.085V91.398H177.452V92.809H180.444V100Z"
          fill="#7C7781"/>
    <defs>
        <filter id="filter0_d" x="0.5" y="0" width="365.5" height="211" filterUnits="userSpaceOnUse"
                color-interpolation-filters="sRGB">
            <feFlood flood-opacity="0" result="BackgroundImageFix"/>
            <feColorMatrix in="SourceAlpha" type="matrix" values="0 0 0 0 0 0 0 0 0 0 0 0 0 0 0 0 0 0 127 0"/>
            <feOffset dy="20"/>
            <feGaussianBlur stdDeviation="30"/>
            <feColorMatrix type="matrix" values="0 0 0 0 0.391667 0 0 0 0 0.391667 0 0 0 0 0.391667 0 0 0 0.18 0"/>
            <feBlend mode="normal" in2="BackgroundImageFix" result="effect1_dropShadow"/>
            <feBlend mode="normal" in="SourceGraphic" in2="effect1_dropShadow" result="shape"/>
        </filter>
        <clipPath id="clip0">
            <rect width="18" height="18" fill="white" transform="translate(87 85)"/>
        </clipPath>
    </defs>
</svg>
