<svg width="355" height="211" viewBox="0 0 355 211" fill="none" xmlns="http://www.w3.org/2000/svg">
    <g filter="url(#filter0_d)">
        <path fill-rule="evenodd" clip-rule="evenodd"
              d="M81.5 40C69.902 40 60.5 49.402 60.5 61V82V103C60.5 114.598 69.902 124 81.5 124H162.912L171.5 131L180.088 124H273.5C285.098 124 294.5 114.598 294.5 103V61C294.5 49.402 285.098 40 273.5 40H81.5Z"
              fill="white"/>
    </g>
    <g clip-path="url(#clip0)">
        <path d="M104.897 91.5728C104.809 91.4654 104.677 91.4028 104.54 91.4028H102.788C102.356 90.2625 101.792 89.1453 101.152 88.7235C98.9376 87.2666 93.0635 87.2666 90.849 88.7235C90.2083 89.1457 89.6474 90.2643 89.2128 91.4028H87.461C87.3218 91.4028 87.1909 91.4654 87.1038 91.5728C87.0162 91.6798 86.9812 91.8212 87.0098 91.9572L87.2692 93.2146C87.3135 93.4289 87.5024 93.5819 87.7204 93.5819H88.2394C87.7384 94.1599 87.4955 94.8876 87.4923 95.6158C87.4891 96.5155 87.8306 97.3285 88.4551 97.9037C88.462 97.9097 88.4689 97.9139 88.4754 97.9199V99.6791C88.4754 100.06 88.7851 100.37 89.1667 100.37H90.7826C91.1642 100.37 91.4739 100.06 91.4739 99.6791V98.9721H100.526V99.6791C100.526 100.06 100.836 100.37 101.218 100.37H102.833C103.214 100.37 103.525 100.06 103.525 99.6791V97.9544C104.188 97.3474 104.504 96.5123 104.508 95.6785C104.511 94.9254 104.257 94.1709 103.727 93.581H104.28C104.499 93.581 104.688 93.4279 104.731 93.2132L104.991 91.9563C105.018 91.8212 104.984 91.6807 104.897 91.5728ZM91.608 89.8781C93.3732 88.7162 98.6269 88.7162 100.391 89.8781C100.734 90.103 101.175 91.0124 101.579 92.1259H90.4208C90.8241 91.0128 91.2651 90.1039 91.608 89.8781ZM89.5405 95.7891C89.5405 95.0379 90.1498 94.4295 90.9006 94.4295C91.6523 94.4295 92.2607 95.0379 92.2607 95.7891C92.2607 96.5404 91.6523 97.1493 90.9006 97.1493C90.1498 97.1493 89.5405 96.5404 89.5405 95.7891ZM101.118 97.1493C100.367 97.1493 99.7575 96.5404 99.7575 95.7891C99.7575 95.0379 100.367 94.4295 101.118 94.4295C101.869 94.4295 102.478 95.0379 102.478 95.7891C102.478 96.5404 101.868 97.1493 101.118 97.1493Z"
              fill="#7C7781"/>
    </g>
    <path d="M87.627 68.818C87.627 67.1713 88.197 65.8287 89.337 64.79C90.4897 63.7513 91.978 63.232 93.802 63.232V61.75H96.253V63.232C98.077 63.232 99.559 63.7513 100.699 64.79C101.852 65.8287 102.428 67.1713 102.428 68.818C102.428 70.5027 101.858 71.877 100.718 72.941C99.578 73.9923 98.0897 74.518 96.253 74.518V76.228H93.802V74.518C91.978 74.518 90.4897 73.986 89.337 72.922C88.197 71.858 87.627 70.49 87.627 68.818ZM96.253 72.466C97.3423 72.466 98.229 72.1303 98.913 71.459C99.597 70.775 99.939 69.8947 99.939 68.818C99.939 67.7667 99.597 66.918 98.913 66.272C98.229 65.6133 97.3423 65.284 96.253 65.284V72.466ZM90.135 68.818C90.135 69.8947 90.4707 70.775 91.142 71.459C91.826 72.1303 92.7127 72.466 93.802 72.466V65.284C92.7127 65.284 91.826 65.6133 91.142 66.272C90.4707 66.918 90.135 67.7667 90.135 68.818ZM105.292 74.803C104.266 73.8403 103.753 72.6243 103.753 71.155C103.753 69.6857 104.266 68.476 105.292 67.526C106.318 66.5633 107.572 66.082 109.054 66.082C110.548 66.082 111.809 66.5633 112.835 67.526C113.873 68.476 114.393 69.6857 114.393 71.155C114.393 72.6243 113.88 73.8403 112.854 74.803C111.828 75.753 110.567 76.228 109.073 76.228C107.578 76.228 106.318 75.753 105.292 74.803ZM106.204 71.155C106.204 72.0417 106.476 72.77 107.021 73.34C107.578 73.8973 108.262 74.176 109.073 74.176C109.883 74.176 110.567 73.8973 111.125 73.34C111.682 72.77 111.961 72.0417 111.961 71.155C111.961 70.281 111.676 69.559 111.106 68.989C110.548 68.419 109.871 68.134 109.073 68.134C108.275 68.134 107.597 68.419 107.04 68.989C106.482 69.559 106.204 70.281 106.204 71.155ZM116.384 76V66.31H118.797V70.053H122.939V66.31H125.352V76H122.939V72.086H118.797V76H116.384ZM130.204 76V68.362H127.012V66.31H135.809V68.362H132.598V76H130.204ZM136.591 73.321C136.591 72.637 136.775 72.0543 137.142 71.573C137.522 71.0917 138.016 70.7433 138.624 70.528C139.245 70.3 139.84 70.1417 140.41 70.053C140.993 69.9643 141.601 69.92 142.234 69.92H142.652V69.787C142.652 68.647 142.044 68.077 140.828 68.077C139.941 68.077 139.042 68.3873 138.13 69.008L137.237 67.279C137.655 66.9497 138.219 66.671 138.928 66.443C139.637 66.2023 140.34 66.082 141.037 66.082C142.304 66.082 143.292 66.424 144.001 67.108C144.71 67.7793 145.065 68.723 145.065 69.939V76H142.823V75.183L142.88 74.48H142.842C142.538 74.9993 142.114 75.4237 141.569 75.753C141.024 76.0697 140.429 76.228 139.783 76.228C138.884 76.228 138.124 75.962 137.503 75.43C136.895 74.8853 136.591 74.1823 136.591 73.321ZM138.985 73.112C138.985 73.454 139.112 73.7517 139.365 74.005C139.631 74.2583 139.992 74.385 140.448 74.385C141.094 74.385 141.626 74.119 142.044 73.587C142.462 73.055 142.671 72.4723 142.671 71.839V71.573H142.253C140.074 71.573 138.985 72.086 138.985 73.112ZM147.519 76V66.31H149.932V70.053H154.074V66.31H156.487V76H154.074V72.086H149.932V76H147.519ZM168.198 76V66.31H170.611V76H168.198ZM159.078 76V66.31H161.491V69.635H163.22C164.373 69.635 165.266 69.9137 165.899 70.471C166.545 71.0157 166.868 71.8073 166.868 72.846C166.868 73.8213 166.564 74.594 165.956 75.164C165.348 75.7213 164.43 76 163.201 76H159.078ZM161.491 74.347H162.821C163.353 74.347 163.752 74.2077 164.018 73.929C164.297 73.6503 164.436 73.283 164.436 72.827C164.436 72.3583 164.297 71.9847 164.018 71.706C163.739 71.4147 163.328 71.269 162.783 71.269H161.491V74.347ZM181.691 70.642L184.807 66.728H187.106L183.99 70.642L187.106 74.537H184.807L181.691 70.642ZM180.532 74.537L177.416 70.642L180.532 66.728H182.831L179.715 70.642L182.831 74.537H180.532ZM188.164 76L192.895 62.51H195.479L200.21 76H197.702L196.543 72.542H191.812L190.672 76H188.164ZM192.42 70.547H195.935L194.738 66.937L194.206 64.847H194.168C193.965 65.7337 193.788 66.4303 193.636 66.937L192.42 70.547ZM201.661 76V66.31H206.164C207.165 66.31 207.956 66.5317 208.539 66.975C209.134 67.4057 209.432 68.02 209.432 68.818C209.432 69.274 209.318 69.6983 209.09 70.091C208.875 70.471 208.564 70.756 208.159 70.946V70.965C208.716 71.1043 209.141 71.383 209.432 71.801C209.723 72.2063 209.869 72.6687 209.869 73.188C209.869 74.1127 209.533 74.8157 208.862 75.297C208.203 75.7657 207.336 76 206.259 76H201.661ZM204.074 70.3H205.651C206.094 70.3 206.43 70.186 206.658 69.958C206.886 69.7173 207 69.407 207 69.027C207 68.267 206.538 67.887 205.613 67.887H204.074V70.3ZM204.074 74.404H205.841C206.36 74.404 206.753 74.29 207.019 74.062C207.298 73.8213 207.437 73.5047 207.437 73.112C207.437 72.7067 207.298 72.39 207.019 72.162C206.74 71.9213 206.348 71.801 205.841 71.801H204.074V74.404ZM211.885 79.8V66.31H214.089V67.032L214.051 67.716H214.089C214.405 67.1967 214.836 66.7977 215.381 66.519C215.938 66.2277 216.546 66.082 217.205 66.082C218.509 66.082 219.548 66.5507 220.321 67.488C221.106 68.4253 221.499 69.6477 221.499 71.155C221.499 72.675 221.081 73.9037 220.245 74.841C219.421 75.7657 218.364 76.228 217.072 76.228C215.919 76.228 214.988 75.772 214.279 74.86H214.241C214.279 75.088 214.298 75.3667 214.298 75.696V79.8H211.885ZM214.222 71.212C214.222 72.0227 214.437 72.7257 214.868 73.321C215.298 73.9037 215.887 74.195 216.635 74.195C217.331 74.195 217.908 73.929 218.364 73.397C218.832 72.8523 219.067 72.1177 219.067 71.193C219.067 70.281 218.845 69.5463 218.402 68.989C217.958 68.4317 217.382 68.153 216.673 68.153C215.976 68.153 215.393 68.4127 214.925 68.932C214.456 69.4387 214.222 70.1987 214.222 71.212ZM224.506 74.803C223.48 73.8403 222.967 72.6243 222.967 71.155C222.967 69.6857 223.48 68.476 224.506 67.526C225.532 66.5633 226.786 66.082 228.268 66.082C229.762 66.082 231.023 66.5633 232.049 67.526C233.087 68.476 233.607 69.6857 233.607 71.155C233.607 72.6243 233.094 73.8403 232.068 74.803C231.042 75.753 229.781 76.228 228.287 76.228C226.792 76.228 225.532 75.753 224.506 74.803ZM225.418 71.155C225.418 72.0417 225.69 72.77 226.235 73.34C226.792 73.8973 227.476 74.176 228.287 74.176C229.097 74.176 229.781 73.8973 230.339 73.34C230.896 72.77 231.175 72.0417 231.175 71.155C231.175 70.281 230.89 69.559 230.32 68.989C229.762 68.419 229.085 68.134 228.287 68.134C227.489 68.134 226.811 68.419 226.254 68.989C225.696 69.559 225.418 70.281 225.418 71.155ZM235.598 79.8V66.31H237.802V67.032L237.764 67.716H237.802C238.118 67.1967 238.549 66.7977 239.094 66.519C239.651 66.2277 240.259 66.082 240.918 66.082C242.222 66.082 243.261 66.5507 244.034 67.488C244.819 68.4253 245.212 69.6477 245.212 71.155C245.212 72.675 244.794 73.9037 243.958 74.841C243.134 75.7657 242.077 76.228 240.785 76.228C239.632 76.228 238.701 75.772 237.992 74.86H237.954C237.992 75.088 238.011 75.3667 238.011 75.696V79.8H235.598ZM237.935 71.212C237.935 72.0227 238.15 72.7257 238.581 73.321C239.011 73.9037 239.6 74.195 240.348 74.195C241.044 74.195 241.621 73.929 242.077 73.397C242.545 72.8523 242.78 72.1177 242.78 71.193C242.78 70.281 242.558 69.5463 242.115 68.989C241.671 68.4317 241.095 68.153 240.386 68.153C239.689 68.153 239.106 68.4127 238.638 68.932C238.169 69.4387 237.935 70.1987 237.935 71.212ZM246.528 73.321C246.528 72.637 246.711 72.0543 247.079 71.573C247.459 71.0917 247.953 70.7433 248.561 70.528C249.181 70.3 249.777 70.1417 250.347 70.053C250.929 69.9643 251.537 69.92 252.171 69.92H252.589V69.787C252.589 68.647 251.981 68.077 250.765 68.077C249.878 68.077 248.979 68.3873 248.067 69.008L247.174 67.279C247.592 66.9497 248.155 66.671 248.865 66.443C249.574 66.2023 250.277 66.082 250.974 66.082C252.24 66.082 253.228 66.424 253.938 67.108C254.647 67.7793 255.002 68.723 255.002 69.939V76H252.76V75.183L252.817 74.48H252.779C252.475 74.9993 252.05 75.4237 251.506 75.753C250.961 76.0697 250.366 76.228 249.72 76.228C248.82 76.228 248.06 75.962 247.44 75.43C246.832 74.8853 246.528 74.1823 246.528 73.321ZM248.922 73.112C248.922 73.454 249.048 73.7517 249.302 74.005C249.568 74.2583 249.929 74.385 250.385 74.385C251.031 74.385 251.563 74.119 251.981 73.587C252.399 73.055 252.608 72.4723 252.608 71.839V71.573H252.19C250.011 71.573 248.922 72.086 248.922 73.112ZM261.331 74.537L264.447 70.642L261.331 66.728H263.63L266.746 70.642L263.63 74.537H261.331ZM257.075 74.537L260.191 70.642L257.075 66.728H259.374L262.49 70.642L259.374 74.537H257.075Z"
          fill="#413949"/>
    <path d="M113.02 100H120.755V98.538H114.771C114.839 95.801 120.568 95.189 120.568 91.245C120.568 89.171 118.987 87.794 116.794 87.794C115.026 87.794 113.666 88.814 112.986 90.072L114.227 90.905C114.737 90.038 115.655 89.375 116.658 89.375C117.933 89.375 118.834 90.191 118.834 91.364C118.834 94.186 112.935 94.815 112.935 99.082C112.935 99.371 112.969 99.677 113.02 100ZM127.032 100.204C130.245 100.204 131.282 97.45 131.282 93.982C131.282 90.531 130.245 87.794 127.032 87.794C123.836 87.794 122.782 90.531 122.782 93.982C122.782 97.45 123.836 100.204 127.032 100.204ZM127.032 98.657C125.077 98.657 124.516 96.617 124.516 93.982C124.516 91.381 125.077 89.341 127.032 89.341C129.004 89.341 129.548 91.381 129.548 93.982C129.548 96.617 129.004 98.657 127.032 98.657ZM137.488 100H139.086L139.46 94.883C139.494 94.373 139.443 93.404 139.443 93.404H139.477C139.477 93.404 139.749 94.05 140.021 94.679L142.061 98.963H143.472L145.512 94.662C145.835 93.999 146.056 93.404 146.056 93.404H146.09C146.09 93.404 146.056 94.373 146.073 94.883L146.447 100H148.045L147.297 91.398H145.495L143.251 96.26C143.03 96.787 142.775 97.416 142.775 97.416H142.741C142.741 97.416 142.503 96.77 142.265 96.26L140.072 91.398H138.236L137.488 100ZM150.263 100H151.844L155.567 94.866C155.839 94.458 156.264 93.88 156.315 93.727H156.349C156.349 93.863 156.298 94.458 156.298 94.866V100H157.896V91.398H156.298L152.592 96.532C152.303 96.94 151.895 97.535 151.827 97.688H151.793C151.81 97.603 151.844 96.991 151.844 96.532V91.398H150.263V100ZM160.423 100H162.072V96.311H166.424V100H168.073V91.398H166.424V94.9H162.072V91.398H160.423V100ZM170.192 101.785L169.614 103.043C169.614 103.043 170.311 103.57 171.263 103.57C172.47 103.57 173.541 102.89 174.051 101.547L178.097 91.398H176.312L174.221 97.042C174.068 97.484 173.932 98.062 173.932 98.062H173.898C173.898 98.062 173.745 97.45 173.575 97.025L171.416 91.398H169.563L173.167 99.898L172.742 100.884C172.419 101.666 171.858 102.159 171.178 102.159C170.668 102.159 170.192 101.785 170.192 101.785ZM181.788 100H183.42V92.809H186.429V91.398H178.796V92.809H181.788V100Z"
          fill="#7C7781"/>
    <defs>
        <filter id="filter0_d" x="0.5" y="0" width="354" height="211" filterUnits="userSpaceOnUse"
                color-interpolation-filters="sRGB">
            <feFlood flood-opacity="0" result="BackgroundImageFix"/>
            <feColorMatrix in="SourceAlpha" type="matrix" values="0 0 0 0 0 0 0 0 0 0 0 0 0 0 0 0 0 0 127 0"/>
            <feOffset dy="20"/>
            <feGaussianBlur stdDeviation="30"/>
            <feColorMatrix type="matrix" values="0 0 0 0 0.391667 0 0 0 0 0.391667 0 0 0 0 0.391667 0 0 0 0.18 0"/>
            <feBlend mode="normal" in2="BackgroundImageFix" result="effect1_dropShadow"/>
            <feBlend mode="normal" in="SourceGraphic" in2="effect1_dropShadow" result="shape"/>
        </filter>
        <clipPath id="clip0">
            <rect width="18" height="18" fill="white" transform="translate(87 85)"/>
        </clipPath>
    </defs>
</svg>
