<svg width="288" height="211" viewBox="0 0 288 211" fill="none" xmlns="http://www.w3.org/2000/svg">
    <g filter="url(#filter0_d)">
        <path fill-rule="evenodd" clip-rule="evenodd"
              d="M81 40C69.402 40 60 49.402 60 61V103C60 114.598 69.402 124 81 124H135.412L144 131L152.588 124H207C218.598 124 228 114.598 228 103V61C228 49.402 218.598 40 207 40H81Z"
              fill="white"/>
    </g>
    <path d="M88.634 75V61.51H91.085V72.891H95.436V61.51H97.887V72.891H102.238V61.51H104.67V75H88.634ZM107.496 75V65.31H109.909V69.015H111.087L113.443 65.31H116.122L113.044 69.927V69.965L116.502 75H113.709L111.163 71.067H109.909V75H107.496ZM118.466 73.803C117.44 72.8403 116.927 71.6243 116.927 70.155C116.927 68.6857 117.44 67.476 118.466 66.526C119.492 65.5633 120.746 65.082 122.228 65.082C123.722 65.082 124.983 65.5633 126.009 66.526C127.047 67.476 127.567 68.6857 127.567 70.155C127.567 71.6243 127.054 72.8403 126.028 73.803C125.002 74.753 123.741 75.228 122.247 75.228C120.752 75.228 119.492 74.753 118.466 73.803ZM119.378 70.155C119.378 71.0417 119.65 71.77 120.195 72.34C120.752 72.8973 121.436 73.176 122.247 73.176C123.057 73.176 123.741 72.8973 124.299 72.34C124.856 71.77 125.135 71.0417 125.135 70.155C125.135 69.281 124.85 68.559 124.28 67.989C123.722 67.419 123.045 67.134 122.247 67.134C121.449 67.134 120.771 67.419 120.214 67.989C119.656 68.559 119.378 69.281 119.378 70.155ZM128.386 75.095V72.967C129.045 72.8783 129.545 72.492 129.887 71.808C130.242 71.1113 130.419 69.9587 130.419 68.35V65.31H137.487V75H135.074V67.267H132.718V68.35C132.718 70.554 132.382 72.2197 131.711 73.347C131.04 74.4617 129.931 75.0443 128.386 75.095ZM139.337 72.321C139.337 71.637 139.521 71.0543 139.888 70.573C140.268 70.0917 140.762 69.7433 141.37 69.528C141.991 69.3 142.586 69.1417 143.156 69.053C143.739 68.9643 144.347 68.92 144.98 68.92H145.398V68.787C145.398 67.647 144.79 67.077 143.574 67.077C142.687 67.077 141.788 67.3873 140.876 68.008L139.983 66.279C140.401 65.9497 140.965 65.671 141.674 65.443C142.383 65.2023 143.086 65.082 143.783 65.082C145.05 65.082 146.038 65.424 146.747 66.108C147.456 66.7793 147.811 67.723 147.811 68.939V75H145.569V74.183L145.626 73.48H145.588C145.284 73.9993 144.86 74.4237 144.315 74.753C143.77 75.0697 143.175 75.228 142.529 75.228C141.63 75.228 140.87 74.962 140.249 74.43C139.641 73.8853 139.337 73.1823 139.337 72.321ZM141.731 72.112C141.731 72.454 141.858 72.7517 142.111 73.005C142.377 73.2583 142.738 73.385 143.194 73.385C143.84 73.385 144.372 73.119 144.79 72.587C145.208 72.055 145.417 71.4723 145.417 70.839V70.573H144.999C142.82 70.573 141.731 71.086 141.731 72.112ZM155.281 75V61.51H157.732L162.824 69.3C162.976 69.5407 163.14 69.8383 163.318 70.193C163.508 70.535 163.66 70.82 163.774 71.048L163.945 71.39H163.983C163.894 70.5287 163.85 69.832 163.85 69.3V61.51H166.301V75H163.869L158.739 67.229C158.587 66.9883 158.416 66.697 158.226 66.355C158.048 66.0003 157.903 65.709 157.789 65.481L157.618 65.139H157.58C157.668 66.0003 157.713 66.697 157.713 67.229V75H155.281ZM168.467 68.236C167.909 67.6787 167.631 66.9947 167.631 66.184C167.631 65.3733 167.909 64.6893 168.467 64.132C169.024 63.5747 169.721 63.296 170.557 63.296C171.367 63.296 172.051 63.581 172.609 64.151C173.179 64.7083 173.464 65.386 173.464 66.184C173.464 66.9947 173.185 67.6787 172.628 68.236C172.07 68.7807 171.38 69.053 170.557 69.053C169.721 69.053 169.024 68.7807 168.467 68.236ZM169.398 66.165C169.398 66.507 169.505 66.7983 169.721 67.039C169.949 67.267 170.227 67.381 170.557 67.381C170.886 67.381 171.158 67.267 171.374 67.039C171.602 66.7983 171.716 66.507 171.716 66.165C171.716 65.8357 171.602 65.557 171.374 65.329C171.158 65.101 170.886 64.987 170.557 64.987C170.227 64.987 169.949 65.101 169.721 65.329C169.505 65.557 169.398 65.8357 169.398 66.165ZM167.802 71.751V70.079H173.236V71.751H167.802ZM180.075 68.844C180.075 68.122 180.151 67.4063 180.303 66.697C180.468 65.9877 180.721 65.31 181.063 64.664C181.405 64.0053 181.81 63.429 182.279 62.935C182.76 62.4283 183.343 62.0293 184.027 61.738C184.724 61.434 185.477 61.282 186.288 61.282C187.339 61.282 188.264 61.472 189.062 61.852L188.34 63.961C187.833 63.6823 187.194 63.543 186.421 63.543C185.433 63.543 184.635 63.8913 184.027 64.588C183.419 65.2847 183.026 66.1397 182.849 67.153H182.887C183.115 66.8743 183.47 66.6463 183.951 66.469C184.432 66.2917 184.92 66.203 185.414 66.203C186.706 66.203 187.745 66.64 188.53 67.514C189.328 68.388 189.727 69.4583 189.727 70.725C189.727 71.9917 189.315 73.062 188.492 73.936C187.669 74.7973 186.605 75.228 185.3 75.228C183.831 75.228 182.589 74.6517 181.576 73.499C180.575 72.3463 180.075 70.7947 180.075 68.844ZM185.319 72.986C185.914 72.986 186.396 72.7707 186.763 72.34C187.13 71.9093 187.314 71.371 187.314 70.725C187.314 70.003 187.092 69.4077 186.649 68.939C186.218 68.4577 185.617 68.217 184.844 68.217C184.223 68.217 183.698 68.3563 183.267 68.635C182.836 68.901 182.621 69.2683 182.621 69.737C182.621 70.5223 182.887 71.2633 183.419 71.96C183.951 72.644 184.584 72.986 185.319 72.986ZM191.542 68.844C191.542 68.122 191.618 67.4063 191.77 66.697C191.934 65.9877 192.188 65.31 192.53 64.664C192.872 64.0053 193.277 63.429 193.746 62.935C194.227 62.4283 194.81 62.0293 195.494 61.738C196.19 61.434 196.944 61.282 197.755 61.282C198.806 61.282 199.731 61.472 200.529 61.852L199.807 63.961C199.3 63.6823 198.66 63.543 197.888 63.543C196.9 63.543 196.102 63.8913 195.494 64.588C194.886 65.2847 194.493 66.1397 194.316 67.153H194.354C194.582 66.8743 194.936 66.6463 195.418 66.469C195.899 66.2917 196.387 66.203 196.881 66.203C198.173 66.203 199.211 66.64 199.997 67.514C200.795 68.388 201.194 69.4583 201.194 70.725C201.194 71.9917 200.782 73.062 199.959 73.936C199.135 74.7973 198.071 75.228 196.767 75.228C195.297 75.228 194.056 74.6517 193.043 73.499C192.042 72.3463 191.542 70.7947 191.542 68.844ZM196.786 72.986C197.381 72.986 197.862 72.7707 198.23 72.34C198.597 71.9093 198.781 71.371 198.781 70.725C198.781 70.003 198.559 69.4077 198.116 68.939C197.685 68.4577 197.083 68.217 196.311 68.217C195.69 68.217 195.164 68.3563 194.734 68.635C194.303 68.901 194.088 69.2683 194.088 69.737C194.088 70.5223 194.354 71.2633 194.886 71.96C195.418 72.644 196.051 72.986 196.786 72.986Z"
          fill="#413949"/>
    <path d="M94.9031 93.9736L93.401 92.3166C93.3075 92.2134 93.2214 92.0009 93.2171 91.8615L93.1619 90.1422V90.0923C93.1619 89.8274 92.9463 89.6118 92.6813 89.6118H91.2109H90.6266C90.3898 89.6118 90.1257 89.7795 90.0249 89.9937L88.0455 94.1983C87.9907 94.315 87.9852 94.4452 88.0301 94.5655C88.0749 94.6856 88.1646 94.7804 88.2824 94.8323L88.574 94.9609C88.6362 94.9883 88.7025 95.0023 88.7712 95.0023C88.9598 95.0023 89.1353 94.8951 89.2188 94.7293L90.146 92.8846V94.7388C90.1422 94.7495 90.1366 94.7593 90.1331 94.7702L88.566 99.6777C88.5008 99.8821 88.5207 100.097 88.6221 100.283C88.7235 100.469 88.8933 100.603 89.1005 100.659L89.2053 100.687C89.2739 100.706 89.345 100.715 89.4164 100.715C89.777 100.715 90.1045 100.478 90.2131 100.138L91.6773 95.5523L92.1966 96.8243C92.3233 97.1346 92.4601 97.6779 92.4954 98.0111L92.7438 100.353C92.7837 100.728 93.0802 101 93.4489 101C93.5093 101 93.5706 100.993 93.631 100.978L93.7366 100.953C94.1569 100.851 94.4538 100.419 94.3986 99.9902L94.0307 97.1346C93.9839 96.7718 93.8274 96.2036 93.6818 95.868L93.1849 94.7237C93.1785 94.7088 93.1694 94.6954 93.162 94.681V93.9055L94.0574 94.8403C94.1465 94.9334 94.2656 94.9847 94.3928 94.9847C94.5214 94.9847 94.6416 94.9324 94.731 94.8376L94.8966 94.6617C95.0737 94.4735 95.0768 94.165 94.9031 93.9736Z"
          fill="#7C7781"/>
    <path d="M91.7875 89.2044C92.671 89.2044 93.3897 88.4856 93.3897 87.6021C93.3897 86.7187 92.671 86 91.7875 86C90.9041 86 90.1855 86.7187 90.1855 87.6021C90.1854 88.4856 90.9041 89.2044 91.7875 89.2044Z"
          fill="#7C7781"/>
    <path d="M104.02 100H111.755V98.538H105.771C105.839 95.801 111.568 95.189 111.568 91.245C111.568 89.171 109.987 87.794 107.794 87.794C106.026 87.794 104.666 88.814 103.986 90.072L105.227 90.905C105.737 90.038 106.655 89.375 107.658 89.375C108.933 89.375 109.834 90.191 109.834 91.364C109.834 94.186 103.935 94.815 103.935 99.082C103.935 99.371 103.969 99.677 104.02 100ZM118.032 100.204C121.245 100.204 122.282 97.45 122.282 93.982C122.282 90.531 121.245 87.794 118.032 87.794C114.836 87.794 113.782 90.531 113.782 93.982C113.782 97.45 114.836 100.204 118.032 100.204ZM118.032 98.657C116.077 98.657 115.516 96.617 115.516 93.982C115.516 91.381 116.077 89.341 118.032 89.341C120.004 89.341 120.548 91.381 120.548 93.982C120.548 96.617 120.004 98.657 118.032 98.657ZM128.488 100H130.086L130.46 94.883C130.494 94.373 130.443 93.404 130.443 93.404H130.477C130.477 93.404 130.749 94.05 131.021 94.679L133.061 98.963H134.472L136.512 94.662C136.835 93.999 137.056 93.404 137.056 93.404H137.09C137.09 93.404 137.056 94.373 137.073 94.883L137.447 100H139.045L138.297 91.398H136.495L134.251 96.26C134.03 96.787 133.775 97.416 133.775 97.416H133.741C133.741 97.416 133.503 96.77 133.265 96.26L131.072 91.398H129.236L128.488 100ZM141.263 100H142.844L146.567 94.866C146.839 94.458 147.264 93.88 147.315 93.727H147.349C147.349 93.863 147.298 94.458 147.298 94.866V100H148.896V91.398H147.298L143.592 96.532C143.303 96.94 142.895 97.535 142.827 97.688H142.793C142.81 97.603 142.844 96.991 142.844 96.532V91.398H141.263V100ZM151.423 100H153.072V96.311H157.424V100H159.073V91.398H157.424V94.9H153.072V91.398H151.423V100ZM161.192 101.785L160.614 103.043C160.614 103.043 161.311 103.57 162.263 103.57C163.47 103.57 164.541 102.89 165.051 101.547L169.097 91.398H167.312L165.221 97.042C165.068 97.484 164.932 98.062 164.932 98.062H164.898C164.898 98.062 164.745 97.45 164.575 97.025L162.416 91.398H160.563L164.167 99.898L163.742 100.884C163.419 101.666 162.858 102.159 162.178 102.159C161.668 102.159 161.192 101.785 161.192 101.785ZM172.788 100H174.42V92.809H177.429V91.398H169.796V92.809H172.788V100Z"
          fill="#7C7781"/>
    <defs>
        <filter id="filter0_d" x="0" y="0" width="288" height="211" filterUnits="userSpaceOnUse"
                color-interpolation-filters="sRGB">
            <feFlood flood-opacity="0" result="BackgroundImageFix"/>
            <feColorMatrix in="SourceAlpha" type="matrix" values="0 0 0 0 0 0 0 0 0 0 0 0 0 0 0 0 0 0 127 0"/>
            <feOffset dy="20"/>
            <feGaussianBlur stdDeviation="30"/>
            <feColorMatrix type="matrix" values="0 0 0 0 0.391667 0 0 0 0 0.391667 0 0 0 0 0.391667 0 0 0 0.18 0"/>
            <feBlend mode="normal" in2="BackgroundImageFix" result="effect1_dropShadow"/>
            <feBlend mode="normal" in="SourceGraphic" in2="effect1_dropShadow" result="shape"/>
        </filter>
    </defs>
</svg>
