<svg width="8" height="15" viewBox="0 0 8 15" fill="none" xmlns="http://www.w3.org/2000/svg">
<path d="M6.90314 7.97361L5.401 6.31658C5.30745 6.21342 5.22144 6.00087 5.21711 5.86151L5.16185 4.14216V4.09235C5.16185 3.82742 4.94625 3.61182 4.68132 3.61182H3.21089H2.62656C2.38982 3.61182 2.12568 3.77952 2.02493 3.99368L0.0454579 8.19834C-0.00932286 8.31495 -0.014769 8.44518 0.0300807 8.56547C0.0749305 8.6856 0.16463 8.78043 0.28236 8.83233L0.574044 8.96095C0.636193 8.98834 0.702506 9.00228 0.771222 9.00228C0.959751 9.00228 1.13531 8.89512 1.21876 8.72933L2.14603 6.88457V8.73878C2.14218 8.74952 2.13658 8.75929 2.13305 8.77018L0.566035 13.6777C0.500843 13.8821 0.520705 14.0972 0.622097 14.2833C0.72349 14.4695 0.893278 14.6027 1.10055 14.6586L1.2053 14.687C1.27386 14.7056 1.34498 14.715 1.41642 14.715C1.77698 14.715 2.10454 14.4778 2.21314 14.1379L3.67733 9.55233L4.19662 10.8243C4.32332 11.1346 4.46011 11.6779 4.49535 12.0111L4.74379 14.353C4.78367 14.728 5.08016 15.0001 5.44889 15.0001C5.50928 15.0001 5.57062 14.9928 5.63101 14.9782L5.73657 14.9526C6.15687 14.8508 6.45384 14.419 6.39858 13.9902L6.03065 11.1346C5.98388 10.7718 5.82739 10.2036 5.68179 9.86804L5.18492 8.72373C5.17851 8.70883 5.16938 8.69537 5.16201 8.68096V7.90554L6.0574 8.84034C6.14646 8.9334 6.26564 8.98466 6.39282 8.98466C6.52144 8.98466 6.64157 8.93244 6.73095 8.83761L6.89657 8.66174C7.07373 8.47353 7.07678 8.16503 6.90314 7.97361Z" fill="#7C7781"/>
<path d="M3.78748 3.20435C4.67102 3.20435 5.38974 2.48564 5.38974 1.6021C5.38974 0.718717 4.67102 0 3.78748 0C2.9041 0 2.18555 0.718717 2.18555 1.6021C2.18539 2.48564 2.9041 3.20435 3.78748 3.20435Z" fill="#7C7781"/>
</svg>
