<svg width="18" height="18" viewBox="0 0 18 18" fill="none" xmlns="http://www.w3.org/2000/svg">
<g clip-path="url(#clip0)">
<path d="M17.8968 6.57282C17.8088 6.46543 17.6775 6.40275 17.5396 6.40275H15.7878C15.3555 5.26248 14.7923 4.14526 14.1521 3.72354C11.9376 2.26663 6.06353 2.26663 3.84896 3.72354C3.20832 4.14572 2.64742 5.26433 2.2128 6.40275H0.460968C0.321779 6.40275 0.190887 6.46543 0.103779 6.57282C0.0162102 6.67975 -0.0188173 6.82125 0.00975777 6.95721L0.269238 8.21455C0.313483 8.42887 0.502447 8.58189 0.720448 8.58189H1.23941C0.738422 9.15986 0.495534 9.88762 0.492308 10.6158C0.489082 11.5155 0.8306 12.3285 1.4551 12.9037C1.46202 12.9097 1.46893 12.9139 1.47538 12.9199V14.6791C1.47538 15.0603 1.7851 15.3705 2.16672 15.3705H3.78259C4.16421 15.3705 4.47392 15.0603 4.47392 14.6791V13.9721H13.5262V14.6791C13.5262 15.0603 13.8359 15.3705 14.2176 15.3705H15.8334C16.2141 15.3705 16.5248 15.0603 16.5248 14.6791V12.9544C17.1875 12.3474 17.5042 11.5123 17.5083 10.6785C17.5111 9.92541 17.2571 9.17092 16.7266 8.58097H17.2802C17.4991 8.58097 17.6881 8.42795 17.7314 8.21317L17.9913 6.95629C18.0181 6.82125 17.9844 6.68067 17.8968 6.57282ZM4.60804 4.87809C6.37324 3.71616 11.6269 3.71616 13.3912 4.87809C13.7341 5.10301 14.1752 6.01237 14.5794 7.1259H3.42079C3.82407 6.01283 4.26514 5.10393 4.60804 4.87809ZM2.5405 10.7891C2.5405 10.0379 3.14979 9.42948 3.90058 9.42948C4.65229 9.42948 5.26066 10.0379 5.26066 10.7891C5.26066 11.5404 4.65229 12.1493 3.90058 12.1493C3.14979 12.1493 2.5405 11.5404 2.5405 10.7891ZM14.1176 12.1493C13.3668 12.1493 12.7575 11.5404 12.7575 10.7891C12.7575 10.0379 13.3668 9.42948 14.1176 9.42948C14.8693 9.42948 15.4776 10.0379 15.4776 10.7891C15.4776 11.5404 14.8683 12.1493 14.1176 12.1493Z" fill="#7C7781"/>
</g>
<defs>
<clipPath id="clip0">
<rect width="18" height="18" fill="white"/>
</clipPath>
</defs>
</svg>
