    <svg width="376" height="211" viewBox="0 0 376 211" fill="none" xmlns="http://www.w3.org/2000/svg">
    <g filter="url(#filter0_d)">
        <path fill-rule="evenodd" clip-rule="evenodd"
              d="M81 40C69.402 40 60 49.402 60 61V103C60 114.598 69.402 124 81 124H179.412L188 131L196.588 124H294.5C306.098 124 315.5 114.598 315.5 103V61C315.5 49.402 306.098 40 294.5 40H81Z"
              fill="white"/>
    </g>
    <g clip-path="url(#clip0)">
        <path d="M104.897 91.5728C104.809 91.4654 104.677 91.4028 104.54 91.4028H102.788C102.355 90.2625 101.792 89.1453 101.152 88.7235C98.9374 87.2666 93.0634 87.2666 90.8488 88.7235C90.2082 89.1457 89.6473 90.2643 89.2127 91.4028H87.4608C87.3217 91.4028 87.1908 91.4654 87.1037 91.5728C87.0161 91.6798 86.9811 91.8212 87.0096 91.9572L87.2691 93.2146C87.3134 93.4289 87.5023 93.5819 87.7203 93.5819H88.2393C87.7383 94.1599 87.4954 94.8876 87.4922 95.6158C87.489 96.5155 87.8305 97.3285 88.455 97.9037C88.4619 97.9097 88.4688 97.9139 88.4753 97.9199V99.6791C88.4753 100.06 88.785 100.37 89.1666 100.37H90.7825C91.1641 100.37 91.4738 100.06 91.4738 99.6791V98.9721H100.526V99.6791C100.526 100.06 100.836 100.37 101.217 100.37H102.833C103.214 100.37 103.525 100.06 103.525 99.6791V97.9544C104.187 97.3474 104.504 96.5123 104.508 95.6785C104.511 94.9254 104.257 94.1709 103.727 93.581H104.28C104.499 93.581 104.688 93.4279 104.731 93.2132L104.991 91.9563C105.018 91.8212 104.984 91.6807 104.897 91.5728ZM91.6079 89.8781C93.3731 88.7162 98.6268 88.7162 100.391 89.8781C100.734 90.103 101.175 91.0124 101.579 92.1259H90.4207C90.8239 91.0128 91.265 90.1039 91.6079 89.8781ZM89.5404 95.7891C89.5404 95.0379 90.1497 94.4295 90.9005 94.4295C91.6522 94.4295 92.2605 95.0379 92.2605 95.7891C92.2605 96.5404 91.6522 97.1493 90.9005 97.1493C90.1497 97.1493 89.5404 96.5404 89.5404 95.7891ZM101.117 97.1493C100.367 97.1493 99.7573 96.5404 99.7573 95.7891C99.7573 95.0379 100.367 94.4295 101.117 94.4295C101.869 94.4295 102.478 95.0379 102.478 95.7891C102.478 96.5404 101.868 97.1493 101.117 97.1493Z"
              fill="#7C7781"/>
    </g>
    <path d="M88.634 75V61.51H96.386V63.619H91.085V75H88.634ZM96.252 75V65.31H98.551V70.497C98.551 70.9657 98.532 71.352 98.494 71.656H98.532C98.5826 71.542 98.8233 71.1557 99.254 70.497L102.845 65.31H105.182V75H102.883V69.832C102.883 69.5533 102.902 69.167 102.94 68.673H102.902C102.864 68.7617 102.623 69.148 102.18 69.832L98.589 75H96.252ZM107.774 75V65.31H116.609V75H114.196V67.362H110.187V75H107.774ZM118.597 70.155C118.597 68.6603 119.053 67.4443 119.965 66.507C120.889 65.557 122.08 65.082 123.537 65.082C124.879 65.082 125.931 65.519 126.691 66.393C127.451 67.2543 127.831 68.35 127.831 69.68C127.831 69.8953 127.805 70.2057 127.755 70.611H121.086C121.162 71.4217 121.472 72.055 122.017 72.511C122.561 72.9543 123.22 73.176 123.993 73.176C124.955 73.176 125.88 72.8213 126.767 72.112L127.717 73.841C127.235 74.2717 126.64 74.6137 125.931 74.867C125.234 75.1077 124.531 75.228 123.822 75.228C122.264 75.228 121.003 74.7403 120.041 73.765C119.078 72.777 118.597 71.5737 118.597 70.155ZM121.143 68.958H125.418C125.405 68.3247 125.215 67.8243 124.848 67.457C124.493 67.0897 124.037 66.906 123.48 66.906C122.872 66.906 122.359 67.096 121.941 67.476C121.523 67.8433 121.257 68.3373 121.143 68.958ZM129.836 78.8V65.31H132.04V66.032L132.002 66.716H132.04C132.357 66.1967 132.787 65.7977 133.332 65.519C133.889 65.2277 134.497 65.082 135.156 65.082C136.461 65.082 137.499 65.5507 138.272 66.488C139.057 67.4253 139.45 68.6477 139.45 70.155C139.45 71.675 139.032 72.9037 138.196 73.841C137.373 74.7657 136.315 75.228 135.023 75.228C133.87 75.228 132.939 74.772 132.23 73.86H132.192C132.23 74.088 132.249 74.3667 132.249 74.696V78.8H129.836ZM132.173 70.212C132.173 71.0227 132.388 71.7257 132.819 72.321C133.25 72.9037 133.839 73.195 134.586 73.195C135.283 73.195 135.859 72.929 136.315 72.397C136.784 71.8523 137.018 71.1177 137.018 70.193C137.018 69.281 136.796 68.5463 136.353 67.989C135.91 67.4317 135.333 67.153 134.624 67.153C133.927 67.153 133.345 67.4127 132.876 67.932C132.407 68.4387 132.173 69.1987 132.173 70.212ZM141.108 75L141.982 65.31H144.718L146.77 70.307L147.245 71.542H147.283C147.46 71.086 147.619 70.6743 147.758 70.307L149.848 65.31H152.546L153.42 75H151.102L150.76 69.756L150.779 68.103H150.741C150.564 68.5843 150.374 69.053 150.171 69.509L148.271 73.784H146.276L144.376 69.528L143.787 68.103H143.749L143.768 69.756L143.426 75H141.108ZM154.886 72.321C154.886 71.637 155.07 71.0543 155.437 70.573C155.817 70.0917 156.311 69.7433 156.919 69.528C157.54 69.3 158.135 69.1417 158.705 69.053C159.288 68.9643 159.896 68.92 160.529 68.92H160.947V68.787C160.947 67.647 160.339 67.077 159.123 67.077C158.236 67.077 157.337 67.3873 156.425 68.008L155.532 66.279C155.95 65.9497 156.514 65.671 157.223 65.443C157.932 65.2023 158.635 65.082 159.332 65.082C160.599 65.082 161.587 65.424 162.296 66.108C163.005 66.7793 163.36 67.723 163.36 68.939V75H161.118V74.183L161.175 73.48H161.137C160.833 73.9993 160.409 74.4237 159.864 74.753C159.319 75.0697 158.724 75.228 158.078 75.228C157.179 75.228 156.419 74.962 155.798 74.43C155.19 73.8853 154.886 73.1823 154.886 72.321ZM157.28 72.112C157.28 72.454 157.407 72.7517 157.66 73.005C157.926 73.2583 158.287 73.385 158.743 73.385C159.389 73.385 159.921 73.119 160.339 72.587C160.757 72.055 160.966 71.4723 160.966 70.839V70.573H160.548C158.369 70.573 157.28 71.086 157.28 72.112ZM165.813 78.8V65.31H168.017V66.032L167.979 66.716H168.017C168.334 66.1967 168.765 65.7977 169.309 65.519C169.867 65.2277 170.475 65.082 171.133 65.082C172.438 65.082 173.477 65.5507 174.249 66.488C175.035 67.4253 175.427 68.6477 175.427 70.155C175.427 71.675 175.009 72.9037 174.173 73.841C173.35 74.7657 172.292 75.228 171 75.228C169.848 75.228 168.917 74.772 168.207 73.86H168.169C168.207 74.088 168.226 74.3667 168.226 74.696V78.8H165.813ZM168.15 70.212C168.15 71.0227 168.366 71.7257 168.796 72.321C169.227 72.9037 169.816 73.195 170.563 73.195C171.26 73.195 171.836 72.929 172.292 72.397C172.761 71.8523 172.995 71.1177 172.995 70.193C172.995 69.281 172.774 68.5463 172.33 67.989C171.887 67.4317 171.311 67.153 170.601 67.153C169.905 67.153 169.322 67.4127 168.853 67.932C168.385 68.4387 168.15 69.1987 168.15 70.212ZM177.484 75V65.31H179.897V69.015H181.075L183.431 65.31H186.11L183.032 69.927V69.965L186.49 75H183.697L181.151 71.067H179.897V75H177.484ZM186.915 70.155C186.915 68.6603 187.371 67.4443 188.283 66.507C189.208 65.557 190.398 65.082 191.855 65.082C193.198 65.082 194.249 65.519 195.009 66.393C195.769 67.2543 196.149 68.35 196.149 69.68C196.149 69.8953 196.124 70.2057 196.073 70.611H189.404C189.48 71.4217 189.79 72.055 190.335 72.511C190.88 72.9543 191.538 73.176 192.311 73.176C193.274 73.176 194.198 72.8213 195.085 72.112L196.035 73.841C195.554 74.2717 194.958 74.6137 194.249 74.867C193.552 75.1077 192.849 75.228 192.14 75.228C190.582 75.228 189.322 74.7403 188.359 73.765C187.396 72.777 186.915 71.5737 186.915 70.155ZM189.461 68.958H193.736C193.723 68.3247 193.533 67.8243 193.166 67.457C192.811 67.0897 192.355 66.906 191.798 66.906C191.19 66.906 190.677 67.096 190.259 67.476C189.841 67.8433 189.575 68.3373 189.461 68.958ZM200.323 75V67.362H197.131V65.31H205.928V67.362H202.717V75H200.323ZM216.055 69.642L219.171 65.728H221.47L218.354 69.642L221.47 73.537H219.171L216.055 69.642ZM214.896 73.537L211.78 69.642L214.896 65.728H217.195L214.079 69.642L217.195 73.537H214.896ZM222.641 72.91C223.654 72.7707 224.389 72.0993 224.845 70.896C225.314 69.68 225.548 67.78 225.548 65.196V61.51H233.889V75H231.438V63.619H227.885V65.234C227.885 68.5527 227.473 71.0227 226.65 72.644C225.827 74.2527 224.49 75.0887 222.641 75.152V72.91ZM236.029 70.155C236.029 68.6603 236.485 67.4443 237.397 66.507C238.322 65.557 239.513 65.082 240.969 65.082C242.312 65.082 243.363 65.519 244.123 66.393C244.883 67.2543 245.263 68.35 245.263 69.68C245.263 69.8953 245.238 70.2057 245.187 70.611H238.518C238.594 71.4217 238.905 72.055 239.449 72.511C239.994 72.9543 240.653 73.176 241.425 73.176C242.388 73.176 243.313 72.8213 244.199 72.112L245.149 73.841C244.668 74.2717 244.073 74.6137 243.363 74.867C242.667 75.1077 241.964 75.228 241.254 75.228C239.696 75.228 238.436 74.7403 237.473 73.765C236.511 72.777 236.029 71.5737 236.029 70.155ZM238.575 68.958H242.85C242.838 68.3247 242.648 67.8243 242.28 67.457C241.926 67.0897 241.47 66.906 240.912 66.906C240.304 66.906 239.791 67.096 239.373 67.476C238.955 67.8433 238.689 68.3373 238.575 68.958ZM247.269 75V65.31H249.682V69.053H253.824V65.31H256.237V75H253.824V71.086H249.682V75H247.269ZM261.089 75V67.362H257.897V65.31H266.694V67.362H263.483V75H261.089ZM267.476 72.321C267.476 71.637 267.659 71.0543 268.027 70.573C268.407 70.0917 268.901 69.7433 269.509 69.528C270.129 69.3 270.725 69.1417 271.295 69.053C271.877 68.9643 272.485 68.92 273.119 68.92H273.537V68.787C273.537 67.647 272.929 67.077 271.713 67.077C270.826 67.077 269.927 67.3873 269.015 68.008L268.122 66.279C268.54 65.9497 269.103 65.671 269.813 65.443C270.522 65.2023 271.225 65.082 271.922 65.082C273.188 65.082 274.176 65.424 274.886 66.108C275.595 66.7793 275.95 67.723 275.95 68.939V75H273.708V74.183L273.765 73.48H273.727C273.423 73.9993 272.998 74.4237 272.454 74.753C271.909 75.0697 271.314 75.228 270.668 75.228C269.768 75.228 269.008 74.962 268.388 74.43C267.78 73.8853 267.476 73.1823 267.476 72.321ZM269.87 72.112C269.87 72.454 269.996 72.7517 270.25 73.005C270.516 73.2583 270.877 73.385 271.333 73.385C271.979 73.385 272.511 73.119 272.929 72.587C273.347 72.055 273.556 71.4723 273.556 70.839V70.573H273.138C270.959 70.573 269.87 71.086 269.87 72.112ZM282.279 73.537L285.395 69.642L282.279 65.728H284.578L287.694 69.642L284.578 73.537H282.279ZM278.023 73.537L281.139 69.642L278.023 65.728H280.322L283.438 69.642L280.322 73.537H278.023Z"
          fill="#413949"/>
    <path d="M112.833 98.538C113.734 99.626 115.111 100.204 116.522 100.204C118.936 100.204 120.772 98.47 120.772 96.175C120.772 93.999 119.123 92.248 116.59 92.248C116.012 92.248 115.315 92.452 115.026 92.605H114.992C114.992 92.605 115.06 92.367 115.094 91.993L115.366 89.46H119.973V87.998H113.904L113.309 93.948L114.295 94.305C114.856 93.931 115.621 93.71 116.318 93.71C117.865 93.71 119.038 94.73 119.038 96.175C119.038 97.637 117.831 98.606 116.42 98.606C115.179 98.606 114.295 97.943 113.785 97.314L112.833 98.538ZM126.747 100H128.345L128.719 94.883C128.753 94.373 128.702 93.404 128.702 93.404H128.736C128.736 93.404 129.008 94.05 129.28 94.679L131.32 98.963H132.731L134.771 94.662C135.094 93.999 135.315 93.404 135.315 93.404H135.349C135.349 93.404 135.315 94.373 135.332 94.883L135.706 100H137.304L136.556 91.398H134.754L132.51 96.26C132.289 96.787 132.034 97.416 132.034 97.416H132C132 97.416 131.762 96.77 131.524 96.26L129.331 91.398H127.495L126.747 100ZM139.522 100H141.103L144.826 94.866C145.098 94.458 145.523 93.88 145.574 93.727H145.608C145.608 93.863 145.557 94.458 145.557 94.866V100H147.155V91.398H145.557L141.851 96.532C141.562 96.94 141.154 97.535 141.086 97.688H141.052C141.069 97.603 141.103 96.991 141.103 96.532V91.398H139.522V100ZM149.682 100H151.331V96.311H155.683V100H157.332V91.398H155.683V94.9H151.331V91.398H149.682V100ZM159.451 101.785L158.873 103.043C158.873 103.043 159.57 103.57 160.522 103.57C161.729 103.57 162.8 102.89 163.31 101.547L167.356 91.398H165.571L163.48 97.042C163.327 97.484 163.191 98.062 163.191 98.062H163.157C163.157 98.062 163.004 97.45 162.834 97.025L160.675 91.398H158.822L162.426 99.898L162.001 100.884C161.678 101.666 161.117 102.159 160.437 102.159C159.927 102.159 159.451 101.785 159.451 101.785ZM171.047 100H172.679V92.809H175.688V91.398H168.055V92.809H171.047V100Z"
          fill="#7C7781"/>
    <defs>
        <filter id="filter0_d" x="0" y="0" width="375.5" height="211" filterUnits="userSpaceOnUse"
                color-interpolation-filters="sRGB">
            <feFlood flood-opacity="0" result="BackgroundImageFix"/>
            <feColorMatrix in="SourceAlpha" type="matrix" values="0 0 0 0 0 0 0 0 0 0 0 0 0 0 0 0 0 0 127 0"/>
            <feOffset dy="20"/>
            <feGaussianBlur stdDeviation="30"/>
            <feColorMatrix type="matrix" values="0 0 0 0 0.391667 0 0 0 0 0.391667 0 0 0 0 0.391667 0 0 0 0.18 0"/>
            <feBlend mode="normal" in2="BackgroundImageFix" result="effect1_dropShadow"/>
            <feBlend mode="normal" in="SourceGraphic" in2="effect1_dropShadow" result="shape"/>
        </filter>
        <clipPath id="clip0">
            <rect width="18" height="18" fill="white" transform="translate(87 85)"/>
        </clipPath>
    </defs>
</svg>
