<svg width="422" height="211" viewBox="0 0 422 211" fill="none" xmlns="http://www.w3.org/2000/svg">
    <g filter="url(#filter0_d)">
        <path fill-rule="evenodd" clip-rule="evenodd"
              d="M81.5 40C69.902 40 60.5 49.402 60.5 61V103C60.5 114.598 69.902 124 81.5 124H202.412L211 131L219.588 124H341C352.598 124 362 114.598 362 103V61C362 49.402 352.598 40 341 40H81.5Z"
              fill="white"/>
    </g>
    <path d="M92.028 72.891H97.386V63.619H93.776V64.626C93.776 68.2487 93.1933 71.0037 92.028 72.891ZM88.133 72.891H89.501C90.8057 70.915 91.458 68.103 91.458 64.455V61.51H99.837V72.891H101.338V77.66H99.153V75H90.394V77.66H88.133V72.891ZM102.526 70.155C102.526 68.6603 102.982 67.4443 103.894 66.507C104.819 65.557 106.01 65.082 107.466 65.082C108.809 65.082 109.86 65.519 110.62 66.393C111.38 67.2543 111.76 68.35 111.76 69.68C111.76 69.8953 111.735 70.2057 111.684 70.611H105.015C105.091 71.4217 105.402 72.055 105.946 72.511C106.491 72.9543 107.15 73.176 107.922 73.176C108.885 73.176 109.81 72.8213 110.696 72.112L111.646 73.841C111.165 74.2717 110.57 74.6137 109.86 74.867C109.164 75.1077 108.461 75.228 107.751 75.228C106.193 75.228 104.933 74.7403 103.97 73.765C103.008 72.777 102.526 71.5737 102.526 70.155ZM105.072 68.958H109.347C109.335 68.3247 109.145 67.8243 108.777 67.457C108.423 67.0897 107.967 66.906 107.409 66.906C106.801 66.906 106.288 67.096 105.87 67.476C105.452 67.8433 105.186 68.3373 105.072 68.958ZM115.934 75V67.362H112.742V65.31H121.539V67.362H118.328V75H115.934ZM122.343 70.155C122.343 68.7363 122.824 67.5393 123.787 66.564C124.762 65.576 126.035 65.082 127.606 65.082C128.302 65.082 128.986 65.2023 129.658 65.443C130.329 65.6837 130.886 66.0447 131.33 66.526L130.247 68.179C129.55 67.4823 128.714 67.134 127.739 67.134C126.865 67.134 126.155 67.4253 125.611 68.008C125.066 68.578 124.794 69.2873 124.794 70.136C124.794 70.9847 125.072 71.7067 125.63 72.302C126.187 72.8847 126.915 73.176 127.815 73.176C128.866 73.176 129.816 72.7643 130.665 71.941L131.596 73.651C131.14 74.1323 130.551 74.5187 129.829 74.81C129.119 75.0887 128.378 75.228 127.606 75.228C126.035 75.228 124.762 74.7467 123.787 73.784C122.824 72.8087 122.343 71.599 122.343 70.155ZM133.341 75V65.31H135.754V69.015H136.932L139.288 65.31H141.967L138.889 69.927V69.965L142.347 75H139.554L137.008 71.067H135.754V75H133.341ZM143.769 75V65.31H146.068V70.497C146.068 70.9657 146.049 71.352 146.011 71.656H146.049C146.099 71.542 146.34 71.1557 146.771 70.497L150.362 65.31H152.699V75H150.4V69.832C150.4 69.5533 150.419 69.167 150.457 68.673H150.419C150.381 68.7617 150.14 69.148 149.697 69.832L146.106 75H143.769ZM161.96 63.676C161.352 64.1447 160.617 64.379 159.756 64.379C158.895 64.379 158.16 64.1447 157.552 63.676C156.944 63.1947 156.64 62.555 156.64 61.757V61.51H158.483V61.757C158.483 62.137 158.61 62.4347 158.863 62.65C159.116 62.8527 159.414 62.954 159.756 62.954C160.098 62.954 160.396 62.8527 160.649 62.65C160.915 62.4347 161.048 62.1307 161.048 61.738V61.51H162.872V61.757C162.872 62.555 162.568 63.1947 161.96 63.676ZM155.291 75V65.31H157.59V70.497C157.59 70.9657 157.571 71.352 157.533 71.656H157.571C157.622 71.542 157.862 71.1557 158.293 70.497L161.884 65.31H164.221V75H161.922V69.832C161.922 69.5533 161.941 69.167 161.979 68.673H161.941C161.903 68.7617 161.662 69.148 161.219 69.832L157.628 75H155.291ZM171.563 75V65.31H173.976V69.015H175.154L177.51 65.31H180.189L177.111 69.927V69.965L180.569 75H177.776L175.23 71.067H173.976V75H171.563ZM181.079 75.095V72.967C181.738 72.8783 182.238 72.492 182.58 71.808C182.935 71.1113 183.112 69.9587 183.112 68.35V65.31H190.18V75H187.767V67.267H185.411V68.35C185.411 70.554 185.076 72.2197 184.404 73.347C183.733 74.4617 182.625 75.0443 181.079 75.095ZM192.524 76.558C192.879 76.824 193.234 76.957 193.588 76.957C194.361 76.957 194.925 76.539 195.279 75.703L195.64 74.848L191.555 65.31H194.272L196.305 70.896L196.666 72.207H196.704C196.818 71.7003 196.926 71.276 197.027 70.934L198.927 65.31H201.549L197.236 76.463C196.92 77.3117 196.445 77.945 195.811 78.363C195.191 78.781 194.5 78.99 193.74 78.99C193.398 78.99 193.056 78.9393 192.714 78.838C192.385 78.7367 192.138 78.6353 191.973 78.534L191.726 78.363L192.524 76.558ZM202.577 69.338C202.577 67.4887 202.938 66.013 203.66 64.911C204.382 63.809 205.611 62.9223 207.346 62.251L210.69 60.94L211.412 62.897L207.726 64.303C206.839 64.6703 206.155 65.1073 205.674 65.614C205.205 66.1207 204.946 66.7667 204.895 67.552H204.933C205.68 66.6147 206.744 66.146 208.125 66.146C209.366 66.146 210.367 66.5513 211.127 67.362C211.887 68.1727 212.267 69.2493 212.267 70.592C212.267 71.9473 211.83 73.062 210.956 73.936C210.082 74.7973 208.936 75.228 207.517 75.228C205.896 75.228 204.667 74.696 203.831 73.632C202.995 72.5553 202.577 71.124 202.577 69.338ZM205.028 70.611C205.028 71.409 205.256 72.0487 205.712 72.53C206.168 72.9987 206.738 73.233 207.422 73.233C208.106 73.233 208.676 72.9987 209.132 72.53C209.601 72.0613 209.835 71.428 209.835 70.63C209.835 69.832 209.607 69.1987 209.151 68.73C208.695 68.2487 208.131 68.008 207.46 68.008C206.763 68.008 206.181 68.255 205.712 68.749C205.256 69.2303 205.028 69.851 205.028 70.611ZM218.474 70.155C218.474 68.7363 218.956 67.5393 219.918 66.564C220.894 65.576 222.167 65.082 223.737 65.082C224.434 65.082 225.118 65.2023 225.789 65.443C226.461 65.6837 227.018 66.0447 227.461 66.526L226.378 68.179C225.682 67.4823 224.846 67.134 223.87 67.134C222.996 67.134 222.287 67.4253 221.742 68.008C221.198 68.578 220.925 69.2873 220.925 70.136C220.925 70.9847 221.204 71.7067 221.761 72.302C222.319 72.8847 223.047 73.176 223.946 73.176C224.998 73.176 225.948 72.7643 226.796 71.941L227.727 73.651C227.271 74.1323 226.682 74.5187 225.96 74.81C225.251 75.0887 224.51 75.228 223.737 75.228C222.167 75.228 220.894 74.7467 219.918 73.784C218.956 72.8087 218.474 71.599 218.474 70.155ZM233.805 69.338C233.805 67.4887 234.166 66.013 234.888 64.911C235.61 63.809 236.838 62.9223 238.574 62.251L241.918 60.94L242.64 62.897L238.954 64.303C238.067 64.6703 237.383 65.1073 236.902 65.614C236.433 66.1207 236.173 66.7667 236.123 67.552H236.161C236.908 66.6147 237.972 66.146 239.353 66.146C240.594 66.146 241.595 66.5513 242.355 67.362C243.115 68.1727 243.495 69.2493 243.495 70.592C243.495 71.9473 243.058 73.062 242.184 73.936C241.31 74.7973 240.163 75.228 238.745 75.228C237.123 75.228 235.895 74.696 235.059 73.632C234.223 72.5553 233.805 71.124 233.805 69.338ZM236.256 70.611C236.256 71.409 236.484 72.0487 236.94 72.53C237.396 72.9987 237.966 73.233 238.65 73.233C239.334 73.233 239.904 72.9987 240.36 72.53C240.828 72.0613 241.063 71.428 241.063 70.63C241.063 69.832 240.835 69.1987 240.379 68.73C239.923 68.2487 239.359 68.008 238.688 68.008C237.991 68.008 237.408 68.255 236.94 68.749C236.484 69.2303 236.256 69.851 236.256 70.611ZM244.8 72.321C244.8 71.637 244.984 71.0543 245.351 70.573C245.731 70.0917 246.225 69.7433 246.833 69.528C247.454 69.3 248.049 69.1417 248.619 69.053C249.202 68.9643 249.81 68.92 250.443 68.92H250.861V68.787C250.861 67.647 250.253 67.077 249.037 67.077C248.15 67.077 247.251 67.3873 246.339 68.008L245.446 66.279C245.864 65.9497 246.428 65.671 247.137 65.443C247.846 65.2023 248.549 65.082 249.246 65.082C250.513 65.082 251.501 65.424 252.21 66.108C252.919 66.7793 253.274 67.723 253.274 68.939V75H251.032V74.183L251.089 73.48H251.051C250.747 73.9993 250.323 74.4237 249.778 74.753C249.233 75.0697 248.638 75.228 247.992 75.228C247.093 75.228 246.333 74.962 245.712 74.43C245.104 73.8853 244.8 73.1823 244.8 72.321ZM247.194 72.112C247.194 72.454 247.321 72.7517 247.574 73.005C247.84 73.2583 248.201 73.385 248.657 73.385C249.303 73.385 249.835 73.119 250.253 72.587C250.671 72.055 250.88 71.4723 250.88 70.839V70.573H250.462C248.283 70.573 247.194 71.086 247.194 72.112ZM255.139 70.155C255.139 68.7363 255.62 67.5393 256.583 66.564C257.558 65.576 258.831 65.082 260.402 65.082C261.098 65.082 261.782 65.2023 262.454 65.443C263.125 65.6837 263.682 66.0447 264.126 66.526L263.043 68.179C262.346 67.4823 261.51 67.134 260.535 67.134C259.661 67.134 258.951 67.4253 258.407 68.008C257.862 68.578 257.59 69.2873 257.59 70.136C257.59 70.9847 257.868 71.7067 258.426 72.302C258.983 72.8847 259.711 73.176 260.611 73.176C261.662 73.176 262.612 72.7643 263.461 71.941L264.392 73.651C263.936 74.1323 263.347 74.5187 262.625 74.81C261.915 75.0887 261.174 75.228 260.402 75.228C258.831 75.228 257.558 74.7467 256.583 73.784C255.62 72.8087 255.139 71.599 255.139 70.155ZM265.344 70.155C265.344 68.7363 265.825 67.5393 266.788 66.564C267.763 65.576 269.036 65.082 270.607 65.082C271.303 65.082 271.987 65.2023 272.659 65.443C273.33 65.6837 273.887 66.0447 274.331 66.526L273.248 68.179C272.551 67.4823 271.715 67.134 270.74 67.134C269.866 67.134 269.156 67.4253 268.612 68.008C268.067 68.578 267.795 69.2873 267.795 70.136C267.795 70.9847 268.073 71.7067 268.631 72.302C269.188 72.8847 269.916 73.176 270.816 73.176C271.867 73.176 272.817 72.7643 273.666 71.941L274.597 73.651C274.141 74.1323 273.552 74.5187 272.83 74.81C272.12 75.0887 271.379 75.228 270.607 75.228C269.036 75.228 267.763 74.7467 266.788 73.784C265.825 72.8087 265.344 71.599 265.344 70.155ZM275.549 70.155C275.549 68.6603 276.005 67.4443 276.917 66.507C277.841 65.557 279.032 65.082 280.489 65.082C281.831 65.082 282.883 65.519 283.643 66.393C284.403 67.2543 284.783 68.35 284.783 69.68C284.783 69.8953 284.757 70.2057 284.707 70.611H278.038C278.114 71.4217 278.424 72.055 278.969 72.511C279.513 72.9543 280.172 73.176 280.945 73.176C281.907 73.176 282.832 72.8213 283.719 72.112L284.669 73.841C284.187 74.2717 283.592 74.6137 282.883 74.867C282.186 75.1077 281.483 75.228 280.774 75.228C279.216 75.228 277.955 74.7403 276.993 73.765C276.03 72.777 275.549 71.5737 275.549 70.155ZM278.095 68.958H282.37C282.357 68.3247 282.167 67.8243 281.8 67.457C281.445 67.0897 280.989 66.906 280.432 66.906C279.824 66.906 279.311 67.096 278.893 67.476C278.475 67.8433 278.209 68.3373 278.095 68.958ZM293.457 63.676C292.849 64.1447 292.114 64.379 291.253 64.379C290.392 64.379 289.657 64.1447 289.049 63.676C288.441 63.1947 288.137 62.555 288.137 61.757V61.51H289.98V61.757C289.98 62.137 290.107 62.4347 290.36 62.65C290.613 62.8527 290.911 62.954 291.253 62.954C291.595 62.954 291.893 62.8527 292.146 62.65C292.412 62.4347 292.545 62.1307 292.545 61.738V61.51H294.369V61.757C294.369 62.555 294.065 63.1947 293.457 63.676ZM286.788 75V65.31H289.087V70.497C289.087 70.9657 289.068 71.352 289.03 71.656H289.068C289.119 71.542 289.359 71.1557 289.79 70.497L293.381 65.31H295.718V75H293.419V69.832C293.419 69.5533 293.438 69.167 293.476 68.673H293.438C293.4 68.7617 293.159 69.148 292.716 69.832L289.125 75H286.788ZM298.311 75V65.31H300.724V69.053H304.866V65.31H307.279V75H304.866V71.086H300.724V75H298.311ZM310.82 73.803C309.794 72.8403 309.281 71.6243 309.281 70.155C309.281 68.6857 309.794 67.476 310.82 66.526C311.846 65.5633 313.1 65.082 314.582 65.082C316.077 65.082 317.337 65.5633 318.363 66.526C319.402 67.476 319.921 68.6857 319.921 70.155C319.921 71.6243 319.408 72.8403 318.382 73.803C317.356 74.753 316.096 75.228 314.601 75.228C313.106 75.228 311.846 74.753 310.82 73.803ZM311.732 70.155C311.732 71.0417 312.004 71.77 312.549 72.34C313.106 72.8973 313.79 73.176 314.601 73.176C315.412 73.176 316.096 72.8973 316.653 72.34C317.21 71.77 317.489 71.0417 317.489 70.155C317.489 69.281 317.204 68.559 316.634 67.989C316.077 67.419 315.399 67.134 314.601 67.134C313.803 67.134 313.125 67.419 312.568 67.989C312.011 68.559 311.732 69.281 311.732 70.155ZM321.513 75L322.387 65.31H325.123L327.175 70.307L327.65 71.542H327.688C327.865 71.086 328.024 70.6743 328.163 70.307L330.253 65.31H332.951L333.825 75H331.507L331.165 69.756L331.184 68.103H331.146C330.969 68.5843 330.779 69.053 330.576 69.509L328.676 73.784H326.681L324.781 69.528L324.192 68.103H324.154L324.173 69.756L323.831 75H321.513Z"
          fill="#413949"/>
    <path d="M95.9031 93.9736L94.401 92.3166C94.3075 92.2134 94.2214 92.0009 94.2171 91.8615L94.1619 90.1422V90.0923C94.1619 89.8274 93.9463 89.6118 93.6813 89.6118H92.2109H91.6266C91.3898 89.6118 91.1257 89.7795 91.0249 89.9937L89.0455 94.1983C88.9907 94.315 88.9852 94.4452 89.0301 94.5655C89.0749 94.6856 89.1646 94.7804 89.2824 94.8323L89.574 94.9609C89.6362 94.9883 89.7025 95.0023 89.7712 95.0023C89.9598 95.0023 90.1353 94.8951 90.2188 94.7293L91.146 92.8846V94.7388C91.1422 94.7495 91.1366 94.7593 91.1331 94.7702L89.566 99.6777C89.5008 99.8821 89.5207 100.097 89.6221 100.283C89.7235 100.469 89.8933 100.603 90.1005 100.659L90.2053 100.687C90.2739 100.706 90.345 100.715 90.4164 100.715C90.777 100.715 91.1045 100.478 91.2131 100.138L92.6773 95.5523L93.1966 96.8243C93.3233 97.1346 93.4601 97.6779 93.4954 98.0111L93.7438 100.353C93.7837 100.728 94.0802 101 94.4489 101C94.5093 101 94.5706 100.993 94.631 100.978L94.7366 100.953C95.1569 100.851 95.4538 100.419 95.3986 99.9902L95.0307 97.1346C94.9839 96.7718 94.8274 96.2036 94.6818 95.868L94.1849 94.7237C94.1785 94.7088 94.1694 94.6954 94.162 94.681V93.9055L95.0574 94.8403C95.1465 94.9334 95.2656 94.9847 95.3928 94.9847C95.5214 94.9847 95.6416 94.9324 95.731 94.8376L95.8966 94.6617C96.0737 94.4735 96.0768 94.165 95.9031 93.9736Z"
          fill="#7C7781"/>
    <path d="M92.7875 89.2044C93.671 89.2044 94.3897 88.4856 94.3897 87.6021C94.3897 86.7187 93.671 86 92.7875 86C91.9041 86 91.1855 86.7187 91.1855 87.6021C91.1854 88.4856 91.9041 89.2044 92.7875 89.2044Z"
          fill="#7C7781"/>
    <path d="M104.969 100H111.888V98.538H109.253V87.998H107.757L104.884 90.786L105.904 91.84L107.026 90.752C107.468 90.31 107.604 90.055 107.604 90.055H107.638C107.638 90.055 107.621 90.412 107.621 90.786V98.538H104.969V100ZM117.687 100.204C120.9 100.204 121.937 97.45 121.937 93.982C121.937 90.531 120.9 87.794 117.687 87.794C114.491 87.794 113.437 90.531 113.437 93.982C113.437 97.45 114.491 100.204 117.687 100.204ZM117.687 98.657C115.732 98.657 115.171 96.617 115.171 93.982C115.171 91.381 115.732 89.341 117.687 89.341C119.659 89.341 120.203 91.381 120.203 93.982C120.203 96.617 119.659 98.657 117.687 98.657ZM128.144 100H129.742L130.116 94.883C130.15 94.373 130.099 93.404 130.099 93.404H130.133C130.133 93.404 130.405 94.05 130.677 94.679L132.717 98.963H134.128L136.168 94.662C136.491 93.999 136.712 93.404 136.712 93.404H136.746C136.746 93.404 136.712 94.373 136.729 94.883L137.103 100H138.701L137.953 91.398H136.151L133.907 96.26C133.686 96.787 133.431 97.416 133.431 97.416H133.397C133.397 97.416 133.159 96.77 132.921 96.26L130.728 91.398H128.892L128.144 100ZM140.919 100H142.5L146.223 94.866C146.495 94.458 146.92 93.88 146.971 93.727H147.005C147.005 93.863 146.954 94.458 146.954 94.866V100H148.552V91.398H146.954L143.248 96.532C142.959 96.94 142.551 97.535 142.483 97.688H142.449C142.466 97.603 142.5 96.991 142.5 96.532V91.398H140.919V100ZM151.079 100H152.728V96.311H157.08V100H158.729V91.398H157.08V94.9H152.728V91.398H151.079V100ZM160.847 101.785L160.269 103.043C160.269 103.043 160.966 103.57 161.918 103.57C163.125 103.57 164.196 102.89 164.706 101.547L168.752 91.398H166.967L164.876 97.042C164.723 97.484 164.587 98.062 164.587 98.062H164.553C164.553 98.062 164.4 97.45 164.23 97.025L162.071 91.398H160.218L163.822 99.898L163.397 100.884C163.074 101.666 162.513 102.159 161.833 102.159C161.323 102.159 160.847 101.785 160.847 101.785ZM172.444 100H174.076V92.809H177.085V91.398H169.452V92.809H172.444V100Z"
          fill="#7C7781"/>
    <defs>
        <filter id="filter0_d" x="0.5" y="0" width="421.5" height="211" filterUnits="userSpaceOnUse"
                color-interpolation-filters="sRGB">
            <feFlood flood-opacity="0" result="BackgroundImageFix"/>
            <feColorMatrix in="SourceAlpha" type="matrix" values="0 0 0 0 0 0 0 0 0 0 0 0 0 0 0 0 0 0 127 0"/>
            <feOffset dy="20"/>
            <feGaussianBlur stdDeviation="30"/>
            <feColorMatrix type="matrix" values="0 0 0 0 0.391667 0 0 0 0 0.391667 0 0 0 0 0.391667 0 0 0 0.18 0"/>
            <feBlend mode="normal" in2="BackgroundImageFix" result="effect1_dropShadow"/>
            <feBlend mode="normal" in="SourceGraphic" in2="effect1_dropShadow" result="shape"/>
        </filter>
    </defs>
</svg>
