<svg width="343" height="277" viewBox="0 0 343 277" fill="none" xmlns="http://www.w3.org/2000/svg">
    <g filter="url(#filter0_d)">
        <rect x="60" y="40" width="223" height="46" rx="21" fill="white"/>
    </g>
    <path d="M80.306 67H82.193L85.185 61.509H86.749V67H88.415V61.509H89.996L92.971 67H94.875L91.373 60.727V60.693L94.62 54.998H92.784L89.996 60.047H88.415V54.998H86.749V60.047H85.185L82.38 54.998H80.544L83.791 60.693V60.727L80.306 67ZM96.7382 67H98.4212V61.509H100.206L103.402 67H105.323L101.6 60.727V60.693L105.102 54.998H103.249L100.206 60.047H98.4212V54.998H96.7382V67ZM114.049 62.206L116.837 65.691H118.486L115.698 62.206L118.486 58.704H116.837L114.049 62.206ZM113.403 65.691H115.052L112.264 62.206L115.052 58.704H113.403L110.615 62.206L113.403 65.691ZM119.651 67H121.521L123.697 63.311C124.071 62.648 124.428 61.934 124.428 61.934H124.462C124.462 61.934 124.836 62.648 125.21 63.311L127.403 67H129.29L125.499 60.812L129.069 54.998H127.131L125.227 58.245C124.836 58.908 124.479 59.639 124.479 59.639H124.445C124.445 59.639 124.054 58.891 123.697 58.245L121.81 54.998H119.889L123.425 60.812L119.651 67ZM129.755 62.682C129.755 65.3 131.829 67.204 134.396 67.204C136.946 67.204 139.02 65.3 139.02 62.682C139.02 60.081 136.946 58.194 134.379 58.194C131.829 58.194 129.755 60.081 129.755 62.682ZM131.438 62.682C131.438 60.897 132.764 59.622 134.396 59.622C136.011 59.622 137.354 60.897 137.354 62.682C137.354 64.484 136.011 65.776 134.396 65.776C132.764 65.776 131.438 64.484 131.438 62.682ZM141.007 70.4H142.656V66.49C142.656 66.048 142.588 65.742 142.588 65.742H142.622C143.217 66.66 144.203 67.204 145.291 67.204C147.552 67.204 149.184 65.436 149.184 62.699C149.184 60.03 147.739 58.194 145.41 58.194C144.152 58.194 143.064 58.772 142.52 59.809H142.486C142.486 59.809 142.537 59.52 142.537 59.163V58.398H141.007V70.4ZM142.605 62.733C142.605 60.557 143.795 59.639 145.087 59.639C146.515 59.639 147.518 60.846 147.518 62.716C147.518 64.671 146.396 65.776 145.036 65.776C143.455 65.776 142.605 64.263 142.605 62.733ZM150.656 62.682C150.656 65.3 152.73 67.204 155.297 67.204C157.847 67.204 159.921 65.3 159.921 62.682C159.921 60.081 157.847 58.194 155.28 58.194C152.73 58.194 150.656 60.081 150.656 62.682ZM152.339 62.682C152.339 60.897 153.665 59.622 155.297 59.622C156.912 59.622 158.255 60.897 158.255 62.682C158.255 64.484 156.912 65.776 155.297 65.776C153.665 65.776 152.339 64.484 152.339 62.682ZM161.909 67H173.027V58.398H171.446V65.572H168.267V58.398H166.669V65.572H163.49V58.398H161.909V67ZM174.858 64.654C174.858 66.269 176.235 67.204 177.731 67.204C179.006 67.204 180.06 66.439 180.553 65.453H180.587C180.587 65.453 180.536 65.742 180.536 66.133V67H182.083V61.56C182.083 59.384 180.842 58.194 178.683 58.194C177.476 58.194 176.167 58.636 175.47 59.214L176.133 60.421C176.83 59.928 177.697 59.588 178.547 59.588C179.618 59.588 180.434 60.064 180.434 61.475V61.645H179.992C178.207 61.645 174.858 61.951 174.858 64.654ZM176.507 64.518C176.507 62.937 178.785 62.835 180.009 62.835H180.434V63.158C180.434 64.433 179.567 65.895 178.122 65.895C177.051 65.895 176.507 65.198 176.507 64.518ZM183.653 67H185.472L187.58 63.889H189.025V67H190.674V58.398H187.24C185.421 58.398 184.163 59.333 184.163 61.101C184.163 62.41 185.047 63.328 186.033 63.6V63.617C186.033 63.617 185.829 63.838 185.642 64.144L183.653 67ZM187.597 62.682C186.594 62.682 185.829 62.155 185.829 61.084C185.829 59.979 186.543 59.537 187.648 59.537H189.025V62.682H187.597ZM197.469 67H199.118V59.809H203.334V67H204.983V58.398H197.469V67ZM206.969 62.682C206.969 65.3 209.043 67.204 211.61 67.204C214.16 67.204 216.234 65.3 216.234 62.682C216.234 60.081 214.16 58.194 211.593 58.194C209.043 58.194 206.969 60.081 206.969 62.682ZM208.652 62.682C208.652 60.897 209.978 59.622 211.61 59.622C213.225 59.622 214.568 60.897 214.568 62.682C214.568 64.484 213.225 65.776 211.61 65.776C209.978 65.776 208.652 64.484 208.652 62.682ZM218.221 67H219.87V59.809H223.61V58.398H218.221V67ZM224.367 62.682C224.367 65.3 226.441 67.204 229.008 67.204C231.558 67.204 233.632 65.3 233.632 62.682C233.632 60.081 231.558 58.194 228.991 58.194C226.441 58.194 224.367 60.081 224.367 62.682ZM226.05 62.682C226.05 60.897 227.376 59.622 229.008 59.622C230.623 59.622 231.966 60.897 231.966 62.682C231.966 64.484 230.623 65.776 229.008 65.776C227.376 65.776 226.05 64.484 226.05 62.682ZM237.087 65.64C238.175 63.94 238.311 61.492 238.311 60.2V59.741H240.895V65.64H237.087ZM234.333 65.64V69.04H235.88V67H242.255V69.04H243.768V65.64H242.544V58.398H236.73V59.979C236.73 61.305 236.594 63.991 235.387 65.64H234.333ZM244.784 64.654C244.784 66.269 246.161 67.204 247.657 67.204C248.932 67.204 249.986 66.439 250.479 65.453H250.513C250.513 65.453 250.462 65.742 250.462 66.133V67H252.009V61.56C252.009 59.384 250.768 58.194 248.609 58.194C247.402 58.194 246.093 58.636 245.396 59.214L246.059 60.421C246.756 59.928 247.623 59.588 248.473 59.588C249.544 59.588 250.36 60.064 250.36 61.475V61.645H249.918C248.133 61.645 244.784 61.951 244.784 64.654ZM246.433 64.518C246.433 62.937 248.711 62.835 249.935 62.835H250.36V63.158C250.36 64.433 249.493 65.895 248.048 65.895C246.977 65.895 246.433 65.198 246.433 64.518ZM257.489 65.691H259.138L261.926 62.206L259.138 58.704H257.489L260.277 62.206L257.489 65.691ZM254.072 65.691H255.721L258.509 62.206L255.721 58.704H254.072L256.86 62.206L254.072 65.691Z"
          fill="#413949"/>
    <g filter="url(#filter1_d)">
        <path fill-rule="evenodd" clip-rule="evenodd"
              d="M179.146 190.36C200.634 186.724 217 168.023 217 145.5C217 120.371 196.629 100 171.5 100C146.371 100 126 120.371 126 145.5C126 167.57 141.713 185.97 162.562 190.122L171 197L179.146 190.36Z"
              fill="white"/>
    </g>
    <circle cx="171.5" cy="145.5" r="33.5" fill="#61BDB5"/>
    <path d="M195.498 145.236C194.699 145.236 193.95 144.834 193.425 144.104C193.03 143.554 192.787 142.975 192.694 142.334C192.527 142.599 192.392 142.799 192.313 142.909C191.605 143.894 190.458 144.732 189.366 144.132C188.429 143.618 188.125 142.308 188.642 141.015L188.786 140.655C188.823 140.56 188.931 140.514 189.026 140.552L189.746 140.84C189.84 140.877 189.887 140.985 189.848 141.08L189.704 141.44C189.386 142.237 189.567 142.937 189.916 143.129C190.277 143.327 190.853 142.978 191.384 142.241C191.503 142.075 191.73 141.728 191.999 141.283C190.397 140.766 189.758 139.626 189.86 138.601C189.99 137.303 191.327 135.971 193.958 136.118C194.349 136.14 194.665 136.343 194.825 136.677C194.997 137.037 195.083 137.653 194.388 139.227L194.398 139.231C193.426 141.625 193.802 142.667 194.354 143.436C194.856 144.136 195.456 144.128 195.769 144.062C196.299 143.95 196.724 143.536 196.828 143.032C196.97 142.349 196.531 141.605 195.593 140.938L195.458 140.842C195.389 140.793 195.362 140.702 195.395 140.623L195.702 139.885C195.747 139.777 195.88 139.738 195.976 139.806L196.256 140.005C197.569 140.937 198.186 142.126 197.951 143.265C197.756 144.206 196.975 144.977 196.008 145.183C195.836 145.218 195.667 145.236 195.498 145.236ZM193.587 137.252C191.98 137.252 191.074 137.964 190.999 138.714C190.941 139.297 191.418 139.964 192.59 140.261C192.697 140.066 192.805 139.866 192.908 139.665C193.706 138.117 193.799 137.473 193.799 137.256C193.727 137.253 193.656 137.252 193.587 137.252Z"
          fill="white"/>
    <path d="M147.428 145.221C146.966 145.221 146.611 145.106 146.395 145.01C145.506 144.613 144.947 143.698 145.004 142.736C145.067 141.666 145.848 140.796 147.092 140.407L147.475 140.288C147.566 140.259 147.661 140.311 147.69 140.4L147.929 141.166C147.958 141.257 147.907 141.352 147.817 141.381L147.434 141.5C146.651 141.744 146.182 142.219 146.148 142.802C146.119 143.294 146.407 143.76 146.864 143.964C147.604 144.295 148.592 143.917 149.575 142.926C151.432 141.055 151.707 138.322 151.08 137.263C150.681 136.586 150.178 136.236 149.655 136.273C149.232 136.305 148.824 136.602 148.664 136.996C148.578 137.211 148.535 137.535 148.822 137.859L149.093 138.162C149.154 138.23 149.148 138.336 149.079 138.397L148.471 138.937C148.404 138.998 148.298 138.992 148.237 138.923L147.965 138.621C147.452 138.043 147.316 137.276 147.601 136.567C147.922 135.773 148.713 135.196 149.567 135.132C150.131 135.09 151.208 135.234 152.063 136.68C153.002 138.269 152.544 141.556 150.385 143.732C149.211 144.917 148.178 145.221 147.428 145.221Z"
          fill="white"/>
    <path d="M153.921 144.307C153.488 144.307 153.066 144.195 152.682 143.971C151.116 143.057 150.406 140.386 152.175 137.235C153.472 134.925 154.898 134.873 155.45 134.957C156.186 135.07 156.757 135.591 156.904 136.285C157.054 136.995 156.733 137.699 156.042 138.193C155.976 138.242 155.882 138.225 155.838 138.156L155.373 137.428C155.334 137.366 155.347 137.285 155.406 137.24C155.699 137.022 155.835 136.765 155.784 136.523C155.736 136.299 155.537 136.13 155.276 136.089C154.767 136.012 153.946 136.419 153.173 137.797C152.104 139.699 151.845 142.159 153.258 142.983C154.13 143.491 155.241 142.913 156.09 141.51L156.386 141.021L157.365 141.614L157.068 142.103C156.472 143.087 155.737 143.779 154.945 144.101C154.605 144.239 154.259 144.307 153.921 144.307Z"
          fill="white"/>
    <path d="M168.954 144.086C168.8 144.086 168.644 144.066 168.489 144.025C167.484 143.761 166.836 142.656 166.91 141.339C167.025 139.322 168.374 137.738 169.982 137.733C169.984 137.733 169.986 137.733 169.988 137.733C170.594 137.733 171.394 138.037 171.817 138.714C172.307 139.498 172.225 140.565 171.574 141.887C170.88 143.297 169.926 144.086 168.954 144.086ZM168.053 141.403C168.005 142.258 168.382 142.813 168.78 142.917C169.324 143.061 170.018 142.457 170.547 141.381C170.998 140.464 171.104 139.733 170.847 139.319C170.619 138.956 170.151 138.876 169.988 138.876C169.987 138.876 169.987 138.876 169.986 138.876C169 138.88 168.132 140.014 168.053 141.403Z"
          fill="white"/>
    <path d="M162.29 154.406C162.136 154.406 161.98 154.386 161.825 154.345C160.82 154.081 160.172 152.976 160.246 151.659C160.361 149.643 161.71 148.059 163.318 148.054C163.32 148.054 163.322 148.054 163.324 148.054C163.93 148.054 164.729 148.357 165.153 149.034C165.643 149.818 165.561 150.885 164.91 152.207C164.216 153.618 163.263 154.406 162.29 154.406ZM161.389 151.724C161.341 152.58 161.718 153.134 162.116 153.238C162.659 153.382 163.353 152.778 163.883 151.702C164.334 150.786 164.44 150.054 164.182 149.641C163.955 149.277 163.487 149.198 163.324 149.198C163.323 149.198 163.323 149.198 163.322 149.198C162.335 149.202 161.469 150.335 161.389 151.724Z"
          fill="white"/>
    <path d="M158.337 144.181C158.199 144.181 158.058 144.166 157.918 144.132C156.908 143.895 156.23 142.808 156.269 141.489C156.33 139.47 157.636 137.851 159.243 137.804C159.262 137.803 159.28 137.803 159.298 137.803C159.898 137.803 160.674 138.086 161.103 138.735C161.613 139.505 161.56 140.575 160.944 141.913C160.278 143.365 159.326 144.181 158.337 144.181ZM159.294 138.948C159.289 138.948 159.283 138.948 159.278 138.948C158.291 138.977 157.455 140.132 157.413 141.523C157.387 142.381 157.779 142.924 158.179 143.018C158.725 143.146 159.404 142.525 159.905 141.436C160.331 140.508 160.418 139.773 160.149 139.367C159.921 139.021 159.471 138.948 159.294 138.948ZM156.841 141.507H156.842H156.841Z"
          fill="white"/>
    <path d="M163.404 144.121C162.693 144.121 162.055 143.711 161.62 142.931L162.341 141.874L162.619 142.373C162.964 142.99 163.37 143.127 163.936 142.817C165.02 142.223 165.982 140.305 165.442 139.302C165.354 139.139 165.153 138.858 164.795 138.816C164.32 138.76 163.712 139.117 163.085 139.821L162.704 140.248L162.23 139.061C163.361 137.791 164.322 137.61 164.928 137.681C165.566 137.755 166.12 138.149 166.449 138.762C166.86 139.525 166.828 140.572 166.362 141.634C165.941 142.59 165.24 143.409 164.485 143.822C164.118 144.023 163.752 144.121 163.404 144.121Z"
          fill="white"/>
    <path d="M161.399 146.911L160.545 146.555C160.492 146.534 160.464 146.475 160.479 146.42L160.566 146.105C160.578 146.062 161.712 141.91 162.759 136.171C160.591 136.815 159.412 136.784 158.954 136.078C158.769 135.792 158.581 135.173 159.402 134.242C160.216 133.319 161.978 132.223 163.176 132.8C163.829 133.114 164.063 133.773 164.1 134.478C168.342 132.869 178.853 129.102 189.472 135.614L189.598 135.692C189.712 135.762 189.759 135.905 189.709 136.029L189.483 136.589C189.419 136.746 189.229 136.808 189.085 136.72L188.873 136.59C178.495 130.225 168.132 134.168 164.23 135.653C164.151 135.683 164.073 135.713 163.998 135.741C162.912 141.859 161.682 146.363 161.669 146.408L161.552 146.836C161.535 146.902 161.462 146.936 161.399 146.911ZM159.956 135.449C160.152 135.502 160.823 135.575 162.686 134.997C162.765 134.972 162.856 134.942 162.956 134.906C163.01 134.145 162.808 133.92 162.734 133.864C162.534 133.713 162.067 133.78 161.545 134.034C160.69 134.45 160.061 135.142 159.956 135.449Z"
          fill="white"/>
    <path d="M158.313 154.656C158.159 154.656 158.019 154.619 157.889 154.547C157.422 154.29 157.365 153.715 157.469 153.259C157.658 152.336 157.844 151.476 158.008 150.716C158.31 149.32 158.62 147.884 158.666 147.233C157.62 147.532 155.152 149.409 154.174 153.61C154.121 153.855 154.062 154.179 154.025 154.384C154.006 154.486 153.899 154.545 153.803 154.506L153.477 154.372C153.477 154.37 153.216 154.265 153.045 154.195C152.958 154.159 152.909 154.069 152.924 153.977C152.967 153.731 152.988 153.658 153.057 153.363C153.149 152.944 153.254 152.49 153.363 152.022C153.617 150.928 153.904 149.689 154.058 148.675C154.231 147.532 154.169 147.085 154.121 146.924C154.061 146.947 153.966 146.992 153.83 147.084C152.777 147.791 152.53 149.075 152.528 149.088L152.511 149.177C152.493 149.27 152.393 149.323 152.306 149.285L151.53 148.944C151.454 148.911 151.412 148.828 151.432 148.746C151.538 148.308 151.953 146.966 153.193 146.133C153.822 145.711 154.352 145.642 154.767 145.929C155.333 146.318 155.417 147.216 155.23 148.588C155.397 148.37 155.56 148.175 155.716 148.001C156.612 147.002 157.644 146.309 158.481 146.108C158.725 146.049 159.738 146.556 159.764 146.637C159.912 147.094 159.725 148.197 159.127 150.959C158.971 151.68 158.795 152.494 158.617 153.363C158.908 153.181 159.436 152.773 160.332 151.858L160.732 151.448L161.15 152.657C159.796 154.042 158.94 154.656 158.313 154.656Z"
          fill="white"/>
    <path d="M167.818 154.546C167.6 154.546 167.404 154.487 167.226 154.371C166.521 153.916 166.479 152.741 167.09 150.566C167.185 150.226 167.289 149.892 167.39 149.582L165.152 151.161L164.493 150.226L167.668 147.985C167.777 147.908 167.918 147.892 168.042 147.943L168.83 148.267C168.949 148.317 169.008 148.451 168.961 148.57C168.818 148.946 168.512 149.773 168.244 150.696C167.682 152.63 167.802 153.245 167.855 153.392C168.028 153.367 168.743 153.137 170.653 151.151L171.05 150.739L171.478 151.945C169.759 153.731 168.63 154.546 167.818 154.546Z"
          fill="white"/>
    <path d="M173.423 144.121C173.321 144.121 173.222 144.112 173.124 144.091C172.492 143.958 172.107 143.423 172.095 142.661C172.077 141.477 172.994 138.752 173.1 138.446L173.237 138.044C173.262 137.968 173.347 137.93 173.421 137.961L174.222 138.301C174.289 138.329 174.322 138.404 174.299 138.472L174.182 138.815C173.915 139.597 173.226 141.808 173.239 142.643C173.24 142.734 173.254 142.948 173.36 142.971C173.692 143.039 174.64 142.532 175.329 141.039L175.568 140.519L176.019 140.727L176.367 141.517C175.647 143.085 174.45 144.121 173.423 144.121Z"
          fill="white"/>
    <path d="M176.409 144.122C176.307 144.122 176.208 144.112 176.11 144.091C175.478 143.958 175.093 143.423 175.082 142.661C175.063 141.477 175.98 138.752 176.086 138.446L176.223 138.043C176.248 137.967 176.333 137.93 176.406 137.96L177.209 138.294C177.276 138.322 177.311 138.397 177.287 138.466L177.168 138.816C176.901 139.598 176.212 141.809 176.225 142.644C176.226 142.735 176.24 142.949 176.346 142.972C176.677 143.041 177.626 142.533 178.315 141.04L178.554 140.52L179.353 141.519C178.633 143.085 177.438 144.122 176.409 144.122Z"
          fill="white"/>
    <path d="M179.41 144.122C179.309 144.122 179.209 144.112 179.112 144.091C178.48 143.958 178.095 143.423 178.083 142.661C178.064 141.477 178.982 138.752 179.087 138.446L179.224 138.044C179.25 137.968 179.334 137.931 179.408 137.961L180.211 138.298C180.278 138.327 180.311 138.401 180.287 138.47L180.169 138.816C179.902 139.598 179.213 141.809 179.227 142.644C179.228 142.735 179.243 142.949 179.348 142.972C179.68 143.041 180.628 142.533 181.317 141.04L181.556 140.52L181.885 140.672L182.357 141.519C181.634 143.084 180.439 144.122 179.41 144.122Z"
          fill="white"/>
    <path d="M183.119 144.255C182.74 144.255 182.283 144.117 181.835 143.639C181.146 142.903 180.999 141.716 181.444 140.465C181.886 139.22 182.951 137.88 184.33 137.693C184.824 137.626 185.489 137.693 186.162 138.232C186.162 138.232 186.677 138.376 187.003 138.466C187.148 138.506 187.232 138.656 187.193 138.801C187.149 138.965 187.108 139.124 187.071 139.276L186.969 139.707C186.322 142.563 186.857 143.017 186.864 143.019C187.119 143.103 188.111 142.339 188.642 141.013L188.787 140.653C188.825 140.558 188.933 140.512 189.027 140.55L189.747 140.839C189.841 140.877 189.888 140.985 189.849 141.079L189.705 141.439C189.401 142.196 188.919 142.922 188.381 143.432C187.726 144.053 187.057 144.292 186.498 144.103C185.911 143.904 185.583 143.349 185.514 142.426C184.939 143.304 184.257 144.023 183.511 144.207C183.394 144.235 183.262 144.255 183.119 144.255ZM184.638 138.817C184.587 138.817 184.536 138.821 184.484 138.827C183.727 138.93 182.902 139.78 182.522 140.849C182.224 141.689 182.279 142.44 182.67 142.857C182.924 143.128 183.098 143.131 183.236 143.096C184.044 142.897 185.106 141.059 185.754 139.425C185.402 139.02 185.028 138.817 184.638 138.817Z"
          fill="white"/>
    <path d="M187.629 155.019C187.291 155.019 186.969 154.894 186.702 154.652C186.254 154.244 186.003 153.545 185.953 152.596C185.369 153.505 184.67 154.258 183.904 154.446C183.48 154.55 182.847 154.537 182.23 153.878C181.541 153.143 181.394 151.955 181.839 150.704C182.281 149.46 183.345 148.12 184.725 147.933C185.22 147.866 185.883 147.933 186.556 148.471L187.326 148.786C187.495 148.855 187.588 149.038 187.542 149.215C187.516 149.318 187.488 149.429 187.466 149.52L187.371 149.941C186.842 152.4 187.159 153.522 187.471 153.805C187.542 153.869 187.617 153.902 187.755 153.849C188.127 153.705 188.549 153.1 188.637 152.22L188.671 151.885C188.682 151.768 188.803 151.694 188.913 151.74L189.677 152.051C189.75 152.08 189.794 152.154 189.786 152.232L189.776 152.333C189.655 153.554 189.008 154.593 188.166 154.917C187.987 154.985 187.806 155.019 187.629 155.019ZM185.034 149.056C184.982 149.056 184.931 149.06 184.879 149.067C184.123 149.169 183.298 150.02 182.918 151.088C182.62 151.929 182.675 152.679 183.066 153.096C183.32 153.367 183.494 153.37 183.632 153.336C184.44 153.137 185.501 151.299 186.149 149.664C185.798 149.26 185.424 149.056 185.034 149.056Z"
          fill="white"/>
    <path d="M177.252 160.383C175.771 160.383 174.627 158.467 174.332 157.766C174.096 157.203 173.839 156.394 174.333 155.867C175.007 155.147 176.364 155.613 178.613 156.386C178.72 156.422 178.829 156.459 178.939 156.498C179.119 155.85 179.244 155.249 179.308 154.912C179.569 153.547 180.64 148.375 180.651 148.323L180.697 148.099C180.731 147.939 180.9 147.849 181.051 147.911L181.637 148.152C181.752 148.199 181.818 148.32 181.794 148.442L181.772 148.556C181.761 148.608 180.692 153.771 180.433 155.126C180.311 155.764 180.177 156.344 180.032 156.864C182.718 157.738 185.884 158.512 187.945 157.189C189.203 156.382 189.975 154.807 190.242 152.509C190.256 152.39 190.378 152.319 190.487 152.365L191.249 152.694C191.319 152.724 191.362 152.796 191.356 152.873C191.129 155.419 190.147 157.136 188.563 158.152C186.082 159.745 182.591 158.902 179.675 157.952C179.09 159.48 178.348 160.277 177.432 160.374C177.37 160.38 177.311 160.383 177.252 160.383ZM175.195 156.656C175.197 156.743 175.226 156.94 175.387 157.323C175.683 158.03 176.607 159.311 177.311 159.235C177.828 159.181 178.257 158.45 178.585 157.586C178.469 157.545 178.354 157.506 178.24 157.468C177.132 157.087 175.635 156.573 175.195 156.656Z"
          fill="white"/>
    <path d="M177.76 154.486C177.385 154.486 176.94 154.347 176.503 153.879C175.814 153.144 175.667 151.956 176.112 150.705C176.554 149.461 177.619 148.121 178.998 147.934C179.448 147.873 180.039 147.923 180.648 148.338C180.649 148.336 180.649 148.333 180.649 148.331L180.695 148.108C180.729 147.944 180.903 147.852 181.058 147.916L181.632 148.152C181.749 148.2 181.816 148.325 181.792 148.45L181.772 148.551C181.733 148.754 181.669 149.008 181.582 149.297L180.968 149.721L181.278 150.199C181.092 150.699 180.863 151.24 180.599 151.764C179.828 153.294 179.024 154.189 178.206 154.425C178.075 154.459 177.925 154.486 177.76 154.486ZM179.306 149.056C179.255 149.056 179.204 149.06 179.152 149.067C178.395 149.169 177.57 150.02 177.19 151.088C176.892 151.929 176.947 152.679 177.338 153.096C177.622 153.399 177.803 153.347 177.889 153.322C178.721 153.083 179.748 151.105 180.302 149.536C179.985 149.216 179.653 149.056 179.306 149.056Z"
          fill="white"/>
    <path d="M172.404 154.536C172.249 154.536 172.094 154.517 171.939 154.475C170.934 154.211 170.286 153.107 170.36 151.789C170.475 149.773 171.823 148.189 173.432 148.184C173.434 148.184 173.436 148.184 173.438 148.184C174.044 148.184 174.844 148.487 175.267 149.166C175.757 149.949 175.675 151.017 175.024 152.339C174.33 153.748 173.376 154.536 172.404 154.536ZM173.437 149.329H173.436C172.45 149.332 171.582 150.465 171.503 151.854C171.455 152.71 171.832 153.264 172.23 153.369C172.774 153.512 173.468 152.909 173.997 151.833C174.448 150.917 174.554 150.185 174.296 149.771C174.069 149.408 173.6 149.329 173.437 149.329ZM170.932 151.822H170.933H170.932Z"
          fill="#FFCA05"/>
    <path d="M171.248 147.99L170.287 146.384C170.253 146.328 170.272 146.256 170.327 146.223L171.107 145.756C171.163 145.722 171.235 145.741 171.268 145.796L172.229 147.402C172.263 147.458 172.244 147.53 172.189 147.564L171.409 148.03C171.354 148.064 171.281 148.046 171.248 147.99Z"
          fill="#FFCA05"/>
    <path d="M174.193 147.429L173.296 147.282C173.232 147.271 173.189 147.211 173.199 147.147L173.576 144.833C173.587 144.769 173.647 144.725 173.711 144.735L174.608 144.882C174.672 144.893 174.715 144.953 174.705 145.017L174.328 147.331C174.318 147.395 174.257 147.439 174.193 147.429Z"
          fill="#FFCA05"/>
    <path d="M171.973 158.249L171.085 158.057C171.021 158.043 170.981 157.98 170.995 157.917L171.522 155.478C171.536 155.414 171.599 155.373 171.662 155.387L172.55 155.579C172.614 155.593 172.655 155.656 172.641 155.719L172.113 158.158C172.1 158.222 172.037 158.263 171.973 158.249Z"
          fill="#FFCA05"/>
    <path d="M176.097 148.451L175.431 147.832C175.383 147.788 175.38 147.713 175.425 147.666L176.908 146.068C176.953 146.021 177.028 146.018 177.075 146.062L177.741 146.681C177.789 146.725 177.792 146.8 177.747 146.847L176.264 148.445C176.219 148.492 176.145 148.495 176.097 148.451Z"
          fill="#FFCA05"/>
    <path d="M169.37 156.593L168.693 155.986C168.644 155.943 168.641 155.868 168.684 155.82L169.997 154.353C170.041 154.305 170.115 154.301 170.164 154.344L170.841 154.951C170.889 154.994 170.893 155.069 170.85 155.117L169.536 156.584C169.493 156.632 169.418 156.636 169.37 156.593Z"
          fill="#FFCA05"/>
    <defs>
        <filter id="filter0_d" x="0" y="0" width="343" height="166" filterUnits="userSpaceOnUse"
                color-interpolation-filters="sRGB">
            <feFlood flood-opacity="0" result="BackgroundImageFix"/>
            <feColorMatrix in="SourceAlpha" type="matrix" values="0 0 0 0 0 0 0 0 0 0 0 0 0 0 0 0 0 0 127 0"/>
            <feOffset dy="20"/>
            <feGaussianBlur stdDeviation="30"/>
            <feColorMatrix type="matrix" values="0 0 0 0 0.391667 0 0 0 0 0.391667 0 0 0 0 0.391667 0 0 0 0.18 0"/>
            <feBlend mode="normal" in2="BackgroundImageFix" result="effect1_dropShadow"/>
            <feBlend mode="normal" in="SourceGraphic" in2="effect1_dropShadow" result="shape"/>
        </filter>
        <filter id="filter1_d" x="66" y="60" width="211" height="217" filterUnits="userSpaceOnUse"
                color-interpolation-filters="sRGB">
            <feFlood flood-opacity="0" result="BackgroundImageFix"/>
            <feColorMatrix in="SourceAlpha" type="matrix" values="0 0 0 0 0 0 0 0 0 0 0 0 0 0 0 0 0 0 127 0"/>
            <feOffset dy="20"/>
            <feGaussianBlur stdDeviation="30"/>
            <feColorMatrix type="matrix" values="0 0 0 0 0.391667 0 0 0 0 0.391667 0 0 0 0 0.391667 0 0 0 0.18 0"/>
            <feBlend mode="normal" in2="BackgroundImageFix" result="effect1_dropShadow"/>
            <feBlend mode="normal" in="SourceGraphic" in2="effect1_dropShadow" result="shape"/>
        </filter>
    </defs>
</svg>
