<svg width="322" height="211" viewBox="0 0 322 211" fill="none" xmlns="http://www.w3.org/2000/svg">
    <g filter="url(#filter0_d)">
        <path fill-rule="evenodd" clip-rule="evenodd"
              d="M81 40C69.402 40 60 49.402 60 61V103C60 114.598 69.402 124 81 124H152.412L161 131L169.588 124H240.5C252.098 124 261.5 114.598 261.5 103V61C261.5 49.402 252.098 40 240.5 40H81Z"
              fill="white"/>
    </g>
    <path d="M90.997 69.984C89.6163 69.984 88.584 69.6357 87.9 68.939C87.216 68.2297 86.874 67.229 86.874 65.937V61.51H89.363V65.386C89.363 66.9693 90.1167 67.761 91.624 67.761C92.65 67.761 93.5747 67.495 94.398 66.963V61.51H96.887V75H94.398V69.775L94.436 69.148H94.398C93.3087 69.7053 92.175 69.984 90.997 69.984ZM98.9641 72.321C98.9641 71.637 99.1478 71.0543 99.5151 70.573C99.8951 70.0917 100.389 69.7433 100.997 69.528C101.618 69.3 102.213 69.1417 102.783 69.053C103.366 68.9643 103.974 68.92 104.607 68.92H105.025V68.787C105.025 67.647 104.417 67.077 103.201 67.077C102.314 67.077 101.415 67.3873 100.503 68.008L99.6101 66.279C100.028 65.9497 100.592 65.671 101.301 65.443C102.01 65.2023 102.713 65.082 103.41 65.082C104.677 65.082 105.665 65.424 106.374 66.108C107.083 66.7793 107.438 67.723 107.438 68.939V75H105.196V74.183L105.253 73.48H105.215C104.911 73.9993 104.487 74.4237 103.942 74.753C103.397 75.0697 102.802 75.228 102.156 75.228C101.257 75.228 100.497 74.962 99.8761 74.43C99.2681 73.8853 98.9641 73.1823 98.9641 72.321ZM101.358 72.112C101.358 72.454 101.485 72.7517 101.738 73.005C102.004 73.2583 102.365 73.385 102.821 73.385C103.467 73.385 103.999 73.119 104.417 72.587C104.835 72.055 105.044 71.4723 105.044 70.839V70.573H104.626C102.447 70.573 101.358 71.086 101.358 72.112ZM109.303 70.155C109.303 68.7363 109.784 67.5393 110.747 66.564C111.722 65.576 112.995 65.082 114.566 65.082C115.262 65.082 115.946 65.2023 116.618 65.443C117.289 65.6837 117.846 66.0447 118.29 66.526L117.207 68.179C116.51 67.4823 115.674 67.134 114.699 67.134C113.825 67.134 113.115 67.4253 112.571 68.008C112.026 68.578 111.754 69.2873 111.754 70.136C111.754 70.9847 112.032 71.7067 112.59 72.302C113.147 72.8847 113.875 73.176 114.775 73.176C115.826 73.176 116.776 72.7643 117.625 71.941L118.556 73.651C118.1 74.1323 117.511 74.5187 116.789 74.81C116.079 75.0887 115.338 75.228 114.566 75.228C112.995 75.228 111.722 74.7467 110.747 73.784C109.784 72.8087 109.303 71.599 109.303 70.155ZM122.562 75V67.362H119.37V65.31H128.167V67.362H124.956V75H122.562ZM129.801 75V65.31H132.214V69.053H136.356V65.31H138.769V75H136.356V71.086H132.214V75H129.801ZM150.48 75V65.31H152.893V75H150.48ZM141.36 75V65.31H143.773V68.635H145.502C146.655 68.635 147.548 68.9137 148.181 69.471C148.827 70.0157 149.15 70.8073 149.15 71.846C149.15 72.8213 148.846 73.594 148.238 74.164C147.63 74.7213 146.712 75 145.483 75H141.36ZM143.773 73.347H145.103C145.635 73.347 146.034 73.2077 146.3 72.929C146.579 72.6503 146.718 72.283 146.718 71.827C146.718 71.3583 146.579 70.9847 146.3 70.706C146.022 70.4147 145.61 70.269 145.065 70.269H143.773V73.347ZM162.149 63.676C161.541 64.1447 160.807 64.379 159.945 64.379C159.084 64.379 158.349 64.1447 157.741 63.676C157.133 63.1947 156.829 62.555 156.829 61.757V61.51H158.672V61.757C158.672 62.137 158.799 62.4347 159.052 62.65C159.306 62.8527 159.603 62.954 159.945 62.954C160.287 62.954 160.585 62.8527 160.838 62.65C161.104 62.4347 161.237 62.1307 161.237 61.738V61.51H163.061V61.757C163.061 62.555 162.757 63.1947 162.149 63.676ZM155.48 75V65.31H157.779V70.497C157.779 70.9657 157.76 71.352 157.722 71.656H157.76C157.811 71.542 158.052 71.1557 158.482 70.497L162.073 65.31H164.41V75H162.111V69.832C162.111 69.5533 162.13 69.167 162.168 68.673H162.13C162.092 68.7617 161.852 69.148 161.408 69.832L157.817 75H155.48ZM174.318 73.062H177.909V67.248H175.496V67.704C175.496 69.9713 175.103 71.7573 174.318 73.062ZM170.708 73.062H171.905C172.766 71.7953 173.197 69.8827 173.197 67.324V65.31H180.322V73.062H181.709V77.28H179.524V75H172.95V77.28H170.708V73.062ZM182.761 70.155C182.761 68.6603 183.217 67.4443 184.129 66.507C185.053 65.557 186.244 65.082 187.701 65.082C189.043 65.082 190.095 65.519 190.855 66.393C191.615 67.2543 191.995 68.35 191.995 69.68C191.995 69.8953 191.969 70.2057 191.919 70.611H185.25C185.326 71.4217 185.636 72.055 186.181 72.511C186.725 72.9543 187.384 73.176 188.157 73.176C189.119 73.176 190.044 72.8213 190.931 72.112L191.881 73.841C191.399 74.2717 190.804 74.6137 190.095 74.867C189.398 75.1077 188.695 75.228 187.986 75.228C186.428 75.228 185.167 74.7403 184.205 73.765C183.242 72.777 182.761 71.5737 182.761 70.155ZM185.307 68.958H189.582C189.569 68.3247 189.379 67.8243 189.012 67.457C188.657 67.0897 188.201 66.906 187.644 66.906C187.036 66.906 186.523 67.096 186.105 67.476C185.687 67.8433 185.421 68.3373 185.307 68.958ZM196.168 75V67.362H192.976V65.31H201.773V67.362H198.562V75H196.168ZM202.577 70.155C202.577 68.7363 203.058 67.5393 204.021 66.564C204.996 65.576 206.269 65.082 207.84 65.082C208.537 65.082 209.221 65.2023 209.892 65.443C210.563 65.6837 211.121 66.0447 211.564 66.526L210.481 68.179C209.784 67.4823 208.948 67.134 207.973 67.134C207.099 67.134 206.39 67.4253 205.845 68.008C205.3 68.578 205.028 69.2873 205.028 70.136C205.028 70.9847 205.307 71.7067 205.864 72.302C206.421 72.8847 207.15 73.176 208.049 73.176C209.1 73.176 210.05 72.7643 210.899 71.941L211.83 73.651C211.374 74.1323 210.785 74.5187 210.063 74.81C209.354 75.0887 208.613 75.228 207.84 75.228C206.269 75.228 204.996 74.7467 204.021 73.784C203.058 72.8087 202.577 71.599 202.577 70.155ZM212.834 72.321C212.834 71.637 213.018 71.0543 213.385 70.573C213.765 70.0917 214.259 69.7433 214.867 69.528C215.488 69.3 216.083 69.1417 216.653 69.053C217.236 68.9643 217.844 68.92 218.477 68.92H218.895V68.787C218.895 67.647 218.287 67.077 217.071 67.077C216.185 67.077 215.285 67.3873 214.373 68.008L213.48 66.279C213.898 65.9497 214.462 65.671 215.171 65.443C215.881 65.2023 216.584 65.082 217.28 65.082C218.547 65.082 219.535 65.424 220.244 66.108C220.954 66.7793 221.308 67.723 221.308 68.939V75H219.066V74.183L219.123 73.48H219.085C218.781 73.9993 218.357 74.4237 217.812 74.753C217.268 75.0697 216.672 75.228 216.026 75.228C215.127 75.228 214.367 74.962 213.746 74.43C213.138 73.8853 212.834 73.1823 212.834 72.321ZM215.228 72.112C215.228 72.454 215.355 72.7517 215.608 73.005C215.874 73.2583 216.235 73.385 216.691 73.385C217.337 73.385 217.869 73.119 218.287 72.587C218.705 72.055 218.914 71.4723 218.914 70.839V70.573H218.496C216.318 70.573 215.228 71.086 215.228 72.112ZM226.327 73.062H229.918V67.248H227.505V67.704C227.505 69.9713 227.112 71.7573 226.327 73.062ZM222.717 73.062H223.914C224.775 71.7953 225.206 69.8827 225.206 67.324V65.31H232.331V73.062H233.718V77.28H231.533V75H224.959V77.28H222.717V73.062Z"
          fill="#413949"/>
    <path d="M93.9031 93.9736L92.401 92.3166C92.3075 92.2134 92.2214 92.0009 92.2171 91.8615L92.1619 90.1422V90.0923C92.1619 89.8274 91.9463 89.6118 91.6813 89.6118H90.2109H89.6266C89.3898 89.6118 89.1257 89.7795 89.0249 89.9937L87.0455 94.1983C86.9907 94.315 86.9852 94.4452 87.0301 94.5655C87.0749 94.6856 87.1646 94.7804 87.2824 94.8323L87.574 94.9609C87.6362 94.9883 87.7025 95.0023 87.7712 95.0023C87.9598 95.0023 88.1353 94.8951 88.2188 94.7293L89.146 92.8846V94.7388C89.1422 94.7495 89.1366 94.7593 89.1331 94.7702L87.566 99.6777C87.5008 99.8821 87.5207 100.097 87.6221 100.283C87.7235 100.469 87.8933 100.603 88.1005 100.659L88.2053 100.687C88.2739 100.706 88.345 100.715 88.4164 100.715C88.777 100.715 89.1045 100.478 89.2131 100.138L90.6773 95.5523L91.1966 96.8243C91.3233 97.1346 91.4601 97.6779 91.4954 98.0111L91.7438 100.353C91.7837 100.728 92.0802 101 92.4489 101C92.5093 101 92.5706 100.993 92.631 100.978L92.7366 100.953C93.1569 100.851 93.4538 100.419 93.3986 99.9902L93.0307 97.1346C92.9839 96.7718 92.8274 96.2036 92.6818 95.868L92.1849 94.7237C92.1785 94.7088 92.1694 94.6954 92.162 94.681V93.9055L93.0574 94.8403C93.1465 94.9334 93.2656 94.9847 93.3928 94.9847C93.5214 94.9847 93.6416 94.9324 93.731 94.8376L93.8966 94.6617C94.0737 94.4735 94.0768 94.165 93.9031 93.9736Z"
          fill="#7C7781"/>
    <path d="M90.7875 89.2044C91.671 89.2044 92.3897 88.4856 92.3897 87.6021C92.3897 86.7187 91.671 86 90.7875 86C89.9041 86 89.1855 86.7187 89.1855 87.6021C89.1854 88.4856 89.9041 89.2044 90.7875 89.2044Z"
          fill="#7C7781"/>
    <path d="M102.833 98.538C103.734 99.626 105.111 100.204 106.522 100.204C108.936 100.204 110.772 98.47 110.772 96.175C110.772 93.999 109.123 92.248 106.59 92.248C106.012 92.248 105.315 92.452 105.026 92.605H104.992C104.992 92.605 105.06 92.367 105.094 91.993L105.366 89.46H109.973V87.998H103.904L103.309 93.948L104.295 94.305C104.856 93.931 105.621 93.71 106.318 93.71C107.865 93.71 109.038 94.73 109.038 96.175C109.038 97.637 107.831 98.606 106.42 98.606C105.179 98.606 104.295 97.943 103.785 97.314L102.833 98.538ZM116.747 100H118.345L118.719 94.883C118.753 94.373 118.702 93.404 118.702 93.404H118.736C118.736 93.404 119.008 94.05 119.28 94.679L121.32 98.963H122.731L124.771 94.662C125.094 93.999 125.315 93.404 125.315 93.404H125.349C125.349 93.404 125.315 94.373 125.332 94.883L125.706 100H127.304L126.556 91.398H124.754L122.51 96.26C122.289 96.787 122.034 97.416 122.034 97.416H122C122 97.416 121.762 96.77 121.524 96.26L119.331 91.398H117.495L116.747 100ZM129.522 100H131.103L134.826 94.866C135.098 94.458 135.523 93.88 135.574 93.727H135.608C135.608 93.863 135.557 94.458 135.557 94.866V100H137.155V91.398H135.557L131.851 96.532C131.562 96.94 131.154 97.535 131.086 97.688H131.052C131.069 97.603 131.103 96.991 131.103 96.532V91.398H129.522V100ZM139.682 100H141.331V96.311H145.683V100H147.332V91.398H145.683V94.9H141.331V91.398H139.682V100ZM149.451 101.785L148.873 103.043C148.873 103.043 149.57 103.57 150.522 103.57C151.729 103.57 152.8 102.89 153.31 101.547L157.356 91.398H155.571L153.48 97.042C153.327 97.484 153.191 98.062 153.191 98.062H153.157C153.157 98.062 153.004 97.45 152.834 97.025L150.675 91.398H148.822L152.426 99.898L152.001 100.884C151.678 101.666 151.117 102.159 150.437 102.159C149.927 102.159 149.451 101.785 149.451 101.785ZM161.047 100H162.679V92.809H165.688V91.398H158.055V92.809H161.047V100Z"
          fill="#7C7781"/>
    <defs>
        <filter id="filter0_d" x="0" y="0" width="321.5" height="211" filterUnits="userSpaceOnUse"
                color-interpolation-filters="sRGB">
            <feFlood flood-opacity="0" result="BackgroundImageFix"/>
            <feColorMatrix in="SourceAlpha" type="matrix" values="0 0 0 0 0 0 0 0 0 0 0 0 0 0 0 0 0 0 127 0"/>
            <feOffset dy="20"/>
            <feGaussianBlur stdDeviation="30"/>
            <feColorMatrix type="matrix" values="0 0 0 0 0.391667 0 0 0 0 0.391667 0 0 0 0 0.391667 0 0 0 0.18 0"/>
            <feBlend mode="normal" in2="BackgroundImageFix" result="effect1_dropShadow"/>
            <feBlend mode="normal" in="SourceGraphic" in2="effect1_dropShadow" result="shape"/>
        </filter>
    </defs>
</svg>
