<svg width="26" height="26" viewBox="0 0 26 26" fill="none" xmlns="http://www.w3.org/2000/svg">
<g clip-path="url(#clip0)">
<path d="M20.6082 2.1006L21.6822 3.12425L8.09439 11.257L1.51167 7.28795L2.1271 6.00681L8.09439 9.56134L20.6082 2.1006ZM17.875 0.467773L19.323 1.23394L8.10043 7.95364L2.86924 4.85127L3.75619 3.73342L8.09439 6.3271L17.875 0.467773ZM22.6416 4.17931L23.444 5.29716L8.09439 14.4849L0.685059 10.07L1.02294 8.66329L8.09439 12.8898L22.6416 4.17931Z" fill="#19BB4F"/>
<path d="M24.8561 8.31173C25.3086 9.63683 25.5318 11.0184 25.5318 12.4754C25.5318 13.9324 25.3086 15.3329 24.8561 16.7019L24.5484 17.5686C23.9148 19.126 23.0218 20.5139 21.8754 21.7323C20.7049 22.9255 19.3775 23.8424 17.8751 24.483C16.2943 25.1863 14.6652 25.538 12.9879 25.538C11.2864 25.538 9.65728 25.1863 8.1006 24.483C6.64649 23.8424 5.32511 22.9255 4.13648 21.7323C2.96595 20.5139 2.07901 19.126 1.46357 17.5686C0.793835 15.9169 0.468018 14.2213 0.468018 12.4691V11.6025L8.09457 16.1179L24.1803 6.51562L24.8561 8.31173Z" fill="#19BB4F"/>
</g>
<defs>
<clipPath id="clip0">
<rect x="0.468018" y="0.467773" width="25.0638" height="25.0638" fill="white"/>
</clipPath>
</defs>
</svg>
