<svg width="500" height="517" viewBox="0 0 500 517" fill="none" xmlns="http://www.w3.org/2000/svg">
<path d="M161.991 256.744C112.58 153.425 163.701 55.547 224.582 26.432C285.463 -2.6832 420.049 -29.188 469.46 74.13C518.87 177.449 474.811 280.849 378.225 315.654C308.129 340.913 221.97 371.25 161.991 256.744Z" fill="#F9FAFA"/>
<path d="M479 149.801C538.532 258.665 458.945 425.307 346.408 486.847C233.871 548.388 103.115 511.273 43.583 402.409C-15.9494 293.544 -37.3827 126.815 138.303 43.426C265.803 -17.0921 404 31.301 479 149.801Z" fill="#61BDB5"/>
<path d="M423.947 488.052C416.738 511.088 382.108 514.88 358.84 507.598C335.573 500.317 291.919 479.111 299.128 456.075C306.338 433.039 358.146 405.455 392.719 418.543C417.809 428.042 430.456 461.561 423.947 488.052Z" fill="#A4D2CC"/>
</svg>
