<svg width="22" height="20" viewBox="0 0 22 20" fill="none" xmlns="http://www.w3.org/2000/svg">
<g clip-path="url(#clip0)">
<path d="M0.878303 16.8651L3.87021 19.7626L10.7842 12.9426L17.9859 19.9024L20.9778 17.0048L13.8528 10.1103L15.2049 8.79661V6.04812L16.0584 5.35866V7.632L17.1228 8.52642L20.4024 5.35866L21.4669 6.11334C22.1093 3.90522 18.4749 -1.19114 15.483 1.63189L11.9925 5.00462L12.7021 5.83383L10.9185 7.49224L9.28825 5.83383L10.2184 5.07916L6.36347 1.50145C3.5154 -0.781193 0.513903 2.66607 0.446777 6.11334L1.5208 5.28413L4.73326 8.65686L5.87441 7.76243V5.70339L6.58403 6.25309V8.93637L8.01285 10.3153L0.878303 16.8651Z" fill="#2B2D33"/>
</g>
<defs>
<clipPath id="clip0">
<rect x="0.446777" y="0.765625" width="21.1064" height="19.1277" fill="white"/>
</clipPath>
</defs>
</svg>
