<svg width="22" height="5" viewBox="0 0 22 5" fill="none" xmlns="http://www.w3.org/2000/svg">
<path d="M2.4255 4.29871C3.51832 4.29871 4.40422 3.41282 4.40422 2.32001C4.40422 1.22719 3.51832 0.341278 2.4255 0.341278C1.33268 0.341278 0.446777 1.22719 0.446777 2.32001C0.446777 3.41282 1.33268 4.29871 2.4255 4.29871Z" fill="#C4C4C4"/>
<path d="M11 4.29871C12.0928 4.29871 12.9787 3.41282 12.9787 2.32001C12.9787 1.22719 12.0928 0.341278 11 0.341278C9.90718 0.341278 9.02128 1.22719 9.02128 2.32001C9.02128 3.41282 9.90718 4.29871 11 4.29871Z" fill="#C4C4C4"/>
<path d="M19.5744 4.29871C20.6672 4.29871 21.5531 3.41282 21.5531 2.32001C21.5531 1.22719 20.6672 0.341278 19.5744 0.341278C18.4816 0.341278 17.5957 1.22719 17.5957 2.32001C17.5957 3.41282 18.4816 4.29871 19.5744 4.29871Z" fill="#C4C4C4"/>
</svg>
