<svg width="23" height="34" viewBox="0 0 23 34" fill="none" xmlns="http://www.w3.org/2000/svg">
<g clip-path="url(#clip0)">
<path fill-rule="evenodd" clip-rule="evenodd" d="M11.7518 11.868C12.0301 11.868 12.3175 11.868 12.542 11.9863L12.4881 4.52221H13.395C13.395 4.52221 13.2783 6.5703 13.6734 12.1593C18.5402 13.2425 22.2127 17.5753 22.2127 22.8093C22.2127 26.7417 20.1744 30.1005 17.1843 32.0394C17.1304 31.9848 17.0137 31.8118 16.897 31.6935C13.6734 27.5336 12.8832 21.3256 12.6587 15.9187C13.1077 16.037 13.5656 16.0916 14.0146 16.1462C14.9215 22.072 17.6333 26.0044 19.8422 28.4529C20.8569 27.0876 21.4854 25.5492 21.4854 23.8379C21.4854 21.8445 20.6952 20.0786 19.3932 18.6586C18.0912 17.2385 16.3402 16.0916 14.1942 15.5273C13.2873 15.2997 12.3265 15.1814 11.3118 15.1814C10.351 15.1814 9.39021 15.2997 8.42942 15.5273C4.24504 16.6105 1.13819 19.9147 1.13819 23.847C1.13819 25.5583 1.75776 27.0967 2.71855 28.4621C4.97237 25.9952 7.63026 22.0629 8.5282 16.1371C8.97716 16.0825 9.43511 16.0188 9.93796 15.9096C9.71347 21.3256 8.92329 27.4699 5.6997 31.6298V31.5751C5.58297 31.7481 5.47522 31.921 5.35848 32.0303C2.36836 30.0914 0.446777 26.7326 0.446777 22.8002C0.446777 17.5571 4.06546 13.2334 8.98614 12.1502C9.2645 6.5703 9.21063 4.51311 9.21063 4.51311H10.1175L10.0637 11.9772C10.2882 11.8589 10.5755 11.8589 10.8 11.8589V0.87207H11.7608V11.868H11.7518ZM11.8146 15.8549C11.9314 21.0343 12.2636 27.5336 13.9607 31.921C14.1313 32.3762 14.4097 32.8859 14.6431 33.341C13.5656 33.6232 12.4342 33.8508 11.3028 33.8508C10.1175 33.8508 8.98614 33.6232 7.97148 33.341C8.24984 32.7676 8.4833 32.2578 8.70778 31.7481C10.2882 27.4153 10.7461 20.9797 10.8 15.8549C10.9167 15.8549 11.1412 15.8549 11.3118 15.8549C11.4734 15.8549 11.644 15.8549 11.8146 15.8549Z" fill="#253081"/>
</g>
<defs>
<clipPath id="clip0">
<rect x="0.446777" y="0.87207" width="21.766" height="32.9787" fill="white"/>
</clipPath>
</defs>
</svg>
