<svg width="22" height="22" viewBox="0 0 22 22" fill="none" xmlns="http://www.w3.org/2000/svg">
<path d="M21.6574 16.6197C20.9448 15.2518 19.887 14.1576 18.5147 13.3682C17.9852 13.0621 17.4854 12.9132 16.9865 12.9132C16.7924 12.9132 16.5977 12.9366 16.4067 12.9825C15.7731 13.1361 15.1646 13.4325 14.5464 13.8888C14.3513 14.0328 14.1125 14.1058 13.8368 14.1058C13.501 14.1058 13.1374 13.9905 12.8885 13.8051C11.0813 12.4579 9.54779 10.9244 8.20087 9.11751C7.93604 8.76187 7.72613 7.98881 8.11679 7.45932C8.57326 6.84104 8.86975 6.23247 9.02343 5.59794C9.18805 4.91415 9.06187 4.22505 8.63846 3.4925C7.84804 2.11851 6.75374 1.06075 5.38623 0.348309C4.94308 0.117325 4.48961 0 4.03846 0C3.28397 0 2.57782 0.327716 1.9967 0.947095C1.4625 1.51557 0.990207 2.11754 0.445256 2.84642C-0.0535585 3.51426 -0.0124336 4.28463 0.023925 4.96432L0.0248416 4.9788C0.0860706 5.8409 0.408103 6.86114 1.00927 8.09678C2.02627 10.1883 3.47078 12.1743 5.42491 14.168C5.82632 14.5779 7.4272 16.1788 7.83735 16.5802C9.83151 18.535 11.8175 19.9794 13.9086 20.9963C15.1446 21.5975 16.1645 21.9194 17.0268 21.9808L17.0413 21.9817C17.2187 21.9911 17.4083 22 17.5929 22C17.5929 22 17.5929 22 17.5929 22C18.0482 22 18.6377 21.95 19.1592 21.5602C19.8882 21.0153 20.4903 20.543 21.058 20.0094C22.0534 19.0756 22.2773 17.8083 21.6574 16.6197Z" fill="#FFB52E"/>
</svg>
