<svg width="303" height="405" viewBox="0 0 303 405" fill="none" xmlns="http://www.w3.org/2000/svg">
<path d="M302.85 151.42C302.85 235.05 235.05 302.84 151.42 302.84C67.79 302.84 0 235.04 0 151.42C0 67.79 67.8 1.10605e-06 151.42 1.10605e-06C235.06 -0.00999889 302.85 67.79 302.85 151.42Z" fill="#A4D2CC"/>
<path d="M240.41 132.69C240.41 195.63 189.39 246.65 126.45 246.65C63.51 246.65 12.49 195.63 12.49 132.69C12.49 69.75 63.51 18.73 126.45 18.73C189.39 18.73 240.41 69.75 240.41 132.69Z" fill="#79ADA0"/>
<path d="M203.66 242.81L158.78 272.96V204.61L173.18 193.69L206.03 206.34L208.78 199.2L180.34 188.25L202.98 171.08L198.37 164.98L158.78 195V117.97H148.11V155.47L123.84 136.44L119.12 142.47L148.11 165.19V241.66L124.76 229.37L121.34 195.37L113.72 196.14L116.64 225.1L91.94 212.11L88.37 218.88L148.11 250.31V305.39L108.29 284.44L104.73 291.22L148.11 314.04V404.54H158.78V282.18L207.93 249.16L203.66 242.81Z" fill="#413949"/>
</svg>
